<svg id="Layer_1" data-name="Layer 1" xmlns="http://www.w3.org/2000/svg" viewBox="0 0 450 450"><defs><style>.cls-1{fill:#ececec;}.cls-2{fill:#f5f5f5;}.cls-3{fill:#e1e1e1;}.cls-4{fill:#fff;}.cls-5{fill:#1a2e35;}.cls-6{fill:#ff735d;}.cls-15,.cls-7{opacity:0.3;}.cls-8{fill:#375a64;}.cls-9{opacity:0.1;}.cls-10{opacity:0.2;}.cls-11{fill:#ffc19d;}.cls-12{fill:#c27460;}.cls-13{fill:#7c4235;}.cls-14{fill:#ff9c6a;}</style></defs><path class="cls-1" d="M314.45,86.3a14.43,14.43,0,1,0-27.63-3.38h0l0,.06c.16,1.07.55,2,.83,3.12l3.57,13.44a2.6,2.6,0,0,0,3.85,1.57l11.75-7a31.28,31.28,0,0,0,3-1.78l0,0h0A14.24,14.24,0,0,0,314.45,86.3Zm-15.73.38A6.35,6.35,0,1,1,307,83.19,6.36,6.36,0,0,1,298.72,86.68Z"/><path class="cls-1" d="M106.34,176.59A12.32,12.32,0,1,0,91,194.71h0l0,0c.85.39,1.66.53,2.62.88l11.27,3.76a2.21,2.21,0,0,0,2.92-2l.53-11.67a25.07,25.07,0,0,0,.13-3v0h0A12.21,12.21,0,0,0,106.34,176.59ZM99.22,188a5.42,5.42,0,1,1,1.4-7.54A5.44,5.44,0,0,1,99.22,188Z"/><path class="cls-1" d="M443.51,208.65a12.33,12.33,0,1,0-22.95,6.22h0l0,0c.48.79,1.07,1.36,1.67,2.2l7.15,9.48a2.22,2.22,0,0,0,3.55,0l7-9.32a28.06,28.06,0,0,0,1.79-2.37l0,0h0A12.28,12.28,0,0,0,443.51,208.65ZM431.19,214a5.43,5.43,0,1,1,5.42-5.42A5.43,5.43,0,0,1,431.19,214Z"/><path class="cls-1" d="M39.67,113.59a9.62,9.62,0,1,0-17.91,4.86h0l0,0c.36.62.83,1.07,1.29,1.72l5.59,7.4a1.74,1.74,0,0,0,2.77,0l5.49-7.28a19.93,19.93,0,0,0,1.4-1.85l0,0h0A9.57,9.57,0,0,0,39.67,113.59Zm-9.62,4.19a4.24,4.24,0,1,1,4.24-4.24A4.24,4.24,0,0,1,30.05,117.78Z"/><rect class="cls-2" x="205.23" y="319.34" width="47.34" height="10.14" transform="translate(457.81 648.83) rotate(180)"/><path class="cls-3" d="M247.94,329.56a66.81,66.81,0,0,0,0-10.07,63.48,63.48,0,0,0,0,10.07Z"/><path class="cls-3" d="M250.52,329.56a63.48,63.48,0,0,0,0-10.07,66.81,66.81,0,0,0,0,10.07Z"/><path class="cls-3" d="M242.25,329.56a66.81,66.81,0,0,0,0-10.07,63.48,63.48,0,0,0,0,10.07Z"/><path class="cls-3" d="M244.84,329.56a66.81,66.81,0,0,0,0-10.07,63.48,63.48,0,0,0,0,10.07Z"/><path class="cls-3" d="M236.56,329.56a63.48,63.48,0,0,0,0-10.07,63.48,63.48,0,0,0,0,10.07Z"/><path class="cls-3" d="M239.15,329.56a63.48,63.48,0,0,0,0-10.07,63.48,63.48,0,0,0,0,10.07Z"/><path class="cls-3" d="M230.87,329.56a63.48,63.48,0,0,0,0-10.07,63.48,63.48,0,0,0,0,10.07Z"/><path class="cls-3" d="M233.46,329.56a63.48,63.48,0,0,0,0-10.07,63.48,63.48,0,0,0,0,10.07Z"/><path class="cls-3" d="M225.18,329.56a63.48,63.48,0,0,0,0-10.07,66.81,66.81,0,0,0,0,10.07Z"/><path class="cls-3" d="M227.77,329.56a63.48,63.48,0,0,0,0-10.07,63.48,63.48,0,0,0,0,10.07Z"/><path class="cls-3" d="M219.49,329.56a63.48,63.48,0,0,0,0-10.07,66.81,66.81,0,0,0,0,10.07Z"/><path class="cls-3" d="M222.08,329.56a63.48,63.48,0,0,0,0-10.07,66.81,66.81,0,0,0,0,10.07Z"/><path class="cls-3" d="M213.81,329.56a66.81,66.81,0,0,0,0-10.07,63.48,63.48,0,0,0,0,10.07Z"/><path class="cls-3" d="M216.39,329.56a63.48,63.48,0,0,0,0-10.07,66.81,66.81,0,0,0,0,10.07Z"/><path class="cls-3" d="M208.12,329.56a66.81,66.81,0,0,0,0-10.07,63.48,63.48,0,0,0,0,10.07Z"/><path class="cls-3" d="M210.71,329.56a66.81,66.81,0,0,0,0-10.07,63.48,63.48,0,0,0,0,10.07Z"/><rect class="cls-2" x="207.27" y="309.15" width="47.34" height="10.14" transform="translate(461.87 628.45) rotate(180)"/><path class="cls-3" d="M250,319.36a63.35,63.35,0,0,0,0-10.06,63.35,63.35,0,0,0,0,10.06Z"/><path class="cls-3" d="M252.56,319.36a66.68,66.68,0,0,0,0-10.06,63.35,63.35,0,0,0,0,10.06Z"/><path class="cls-3" d="M244.28,319.36a63.35,63.35,0,0,0,0-10.06,63.35,63.35,0,0,0,0,10.06Z"/><path class="cls-3" d="M246.87,319.36a63.35,63.35,0,0,0,0-10.06,63.35,63.35,0,0,0,0,10.06Z"/><path class="cls-3" d="M238.59,319.36a63.35,63.35,0,0,0,0-10.06,63.35,63.35,0,0,0,0,10.06Z"/><path class="cls-3" d="M241.18,319.36a63.35,63.35,0,0,0,0-10.06,63.35,63.35,0,0,0,0,10.06Z"/><path class="cls-3" d="M232.9,319.36a63.35,63.35,0,0,0,0-10.06,66.68,66.68,0,0,0,0,10.06Z"/><path class="cls-3" d="M235.49,319.36a63.35,63.35,0,0,0,0-10.06,66.68,66.68,0,0,0,0,10.06Z"/><path class="cls-3" d="M227.22,319.36a66.68,66.68,0,0,0,0-10.06,63.35,63.35,0,0,0,0,10.06Z"/><path class="cls-3" d="M229.8,319.36a63.35,63.35,0,0,0,0-10.06,66.68,66.68,0,0,0,0,10.06Z"/><path class="cls-3" d="M221.53,319.36a66.68,66.68,0,0,0,0-10.06,63.35,63.35,0,0,0,0,10.06Z"/><path class="cls-3" d="M224.12,319.36a66.68,66.68,0,0,0,0-10.06,63.35,63.35,0,0,0,0,10.06Z"/><path class="cls-3" d="M215.84,319.36a63.35,63.35,0,0,0,0-10.06,63.35,63.35,0,0,0,0,10.06Z"/><path class="cls-3" d="M218.43,319.36a63.35,63.35,0,0,0,0-10.06,63.35,63.35,0,0,0,0,10.06Z"/><path class="cls-3" d="M210.15,319.36a63.35,63.35,0,0,0,0-10.06,63.35,63.35,0,0,0,0,10.06Z"/><path class="cls-3" d="M212.74,319.36a63.35,63.35,0,0,0,0-10.06,63.35,63.35,0,0,0,0,10.06Z"/><rect class="cls-2" x="208.2" y="329.6" width="47.34" height="10.14" transform="translate(463.74 669.35) rotate(180)"/><path class="cls-3" d="M250.9,339.82a63.48,63.48,0,0,0,0-10.07,66.81,66.81,0,0,0,0,10.07Z"/><path class="cls-3" d="M253.49,339.82a63.48,63.48,0,0,0,0-10.07,66.81,66.81,0,0,0,0,10.07Z"/><path class="cls-3" d="M245.22,339.82a66.81,66.81,0,0,0,0-10.07,63.48,63.48,0,0,0,0,10.07Z"/><path class="cls-3" d="M247.8,339.82a63.48,63.48,0,0,0,0-10.07,66.81,66.81,0,0,0,0,10.07Z"/><path class="cls-3" d="M239.53,339.82a66.81,66.81,0,0,0,0-10.07,63.48,63.48,0,0,0,0,10.07Z"/><path class="cls-3" d="M242.12,339.82a66.81,66.81,0,0,0,0-10.07,63.48,63.48,0,0,0,0,10.07Z"/><path class="cls-3" d="M233.84,339.82a63.48,63.48,0,0,0,0-10.07,63.48,63.48,0,0,0,0,10.07Z"/><path class="cls-3" d="M236.43,339.82a63.48,63.48,0,0,0,0-10.07,63.48,63.48,0,0,0,0,10.07Z"/><path class="cls-3" d="M228.15,339.82a63.48,63.48,0,0,0,0-10.07,63.48,63.48,0,0,0,0,10.07Z"/><path class="cls-3" d="M230.74,339.82a63.48,63.48,0,0,0,0-10.07,63.48,63.48,0,0,0,0,10.07Z"/><path class="cls-3" d="M222.46,339.82a63.48,63.48,0,0,0,0-10.07,66.81,66.81,0,0,0,0,10.07Z"/><path class="cls-3" d="M225.05,339.82a63.48,63.48,0,0,0,0-10.07,63.48,63.48,0,0,0,0,10.07Z"/><path class="cls-3" d="M216.77,339.82a63.48,63.48,0,0,0,0-10.07,66.81,66.81,0,0,0,0,10.07Z"/><path class="cls-3" d="M219.36,339.82a63.48,63.48,0,0,0,0-10.07,66.81,66.81,0,0,0,0,10.07Z"/><path class="cls-3" d="M211.09,339.82a66.81,66.81,0,0,0,0-10.07,63.48,63.48,0,0,0,0,10.07Z"/><path class="cls-3" d="M213.68,339.82a66.81,66.81,0,0,0,0-10.07,63.48,63.48,0,0,0,0,10.07Z"/><path class="cls-3" d="M208.2,329.6c0,.13,10.67.23,23.84.23s23.84-.1,23.84-.23-10.67-.23-23.84-.23S208.2,329.47,208.2,329.6Z"/><rect class="cls-2" x="211.91" y="339.66" width="47.34" height="10.14" transform="translate(471.17 689.47) rotate(180)"/><path class="cls-3" d="M254.61,349.88a63.35,63.35,0,0,0,0-10.06,66.68,66.68,0,0,0,0,10.06Z"/><path class="cls-3" d="M257.2,349.88a63.35,63.35,0,0,0,0-10.06,66.68,66.68,0,0,0,0,10.06Z"/><path class="cls-3" d="M248.93,349.88a66.68,66.68,0,0,0,0-10.06,63.35,63.35,0,0,0,0,10.06Z"/><path class="cls-3" d="M251.52,349.88a66.68,66.68,0,0,0,0-10.06,63.35,63.35,0,0,0,0,10.06Z"/><path class="cls-3" d="M243.24,349.88a63.35,63.35,0,0,0,0-10.06,63.35,63.35,0,0,0,0,10.06Z"/><path class="cls-3" d="M245.83,349.88a66.68,66.68,0,0,0,0-10.06,63.35,63.35,0,0,0,0,10.06Z"/><path class="cls-3" d="M237.55,349.88a63.35,63.35,0,0,0,0-10.06,63.35,63.35,0,0,0,0,10.06Z"/><path class="cls-3" d="M240.14,349.88a63.35,63.35,0,0,0,0-10.06,63.35,63.35,0,0,0,0,10.06Z"/><path class="cls-3" d="M231.86,349.88a63.35,63.35,0,0,0,0-10.06,63.35,63.35,0,0,0,0,10.06Z"/><path class="cls-3" d="M234.45,349.88a63.35,63.35,0,0,0,0-10.06,63.35,63.35,0,0,0,0,10.06Z"/><path class="cls-3" d="M226.17,349.88a63.35,63.35,0,0,0,0-10.06,66.68,66.68,0,0,0,0,10.06Z"/><path class="cls-3" d="M228.76,349.88a63.35,63.35,0,0,0,0-10.06,66.68,66.68,0,0,0,0,10.06Z"/><path class="cls-3" d="M220.48,349.88a63.35,63.35,0,0,0,0-10.06,66.68,66.68,0,0,0,0,10.06Z"/><path class="cls-3" d="M223.07,349.88a63.35,63.35,0,0,0,0-10.06,66.68,66.68,0,0,0,0,10.06Z"/><path class="cls-3" d="M214.8,349.88a66.68,66.68,0,0,0,0-10.06,63.35,63.35,0,0,0,0,10.06Z"/><path class="cls-3" d="M217.39,349.88a66.68,66.68,0,0,0,0-10.06,63.35,63.35,0,0,0,0,10.06Z"/><path class="cls-3" d="M211.91,339.66c0,.13,10.65.24,23.78.24s23.78-.11,23.78-.24-10.64-.23-23.78-.23S211.91,339.54,211.91,339.66Z"/><path class="cls-3" d="M254.61,319.29c0,.1-11.06.17-24.71.17s-24.7-.07-24.7-.17,11.06-.16,24.7-.16S254.61,319.2,254.61,319.29Z"/><path class="cls-4" d="M223.62,338.63c0,.1,6.8.18,15.19.18s15.2-.08,15.2-.18-6.8-.17-15.2-.17S223.62,338.54,223.62,338.63Z"/><path class="cls-4" d="M258.6,347.85a8.54,8.54,0,0,0,.14-2.19,8.65,8.65,0,0,0-.14-2.2,8.37,8.37,0,0,0-.15,2.2A8.26,8.26,0,0,0,258.6,347.85Z"/><path class="cls-4" d="M225.11,348.73c0,.1,7,.17,15.75.17s15.75-.07,15.75-.17-7.05-.17-15.75-.17S225.11,348.64,225.11,348.73Z"/><rect class="cls-2" x="360.91" y="239.59" width="47.34" height="10.14" transform="translate(769.16 489.32) rotate(180)"/><path class="cls-3" d="M403.61,249.8a31.85,31.85,0,0,0,.2-5,31.85,31.85,0,0,0-.2-5,31.85,31.85,0,0,0-.2,5A31.85,31.85,0,0,0,403.61,249.8Z"/><path class="cls-3" d="M406.2,249.8a31.85,31.85,0,0,0,.2-5,31.85,31.85,0,0,0-.2-5,31.85,31.85,0,0,0-.2,5A31.85,31.85,0,0,0,406.2,249.8Z"/><path class="cls-3" d="M397.92,249.8a31.85,31.85,0,0,0,.2-5,31.85,31.85,0,0,0-.2-5,31.85,31.85,0,0,0-.2,5A31.85,31.85,0,0,0,397.92,249.8Z"/><path class="cls-3" d="M400.51,249.8a31.85,31.85,0,0,0,.2-5,31.85,31.85,0,0,0-.2-5,31.85,31.85,0,0,0-.2,5A31.85,31.85,0,0,0,400.51,249.8Z"/><path class="cls-3" d="M392.23,249.8a31.85,31.85,0,0,0,.2-5,31.85,31.85,0,0,0-.2-5,32.65,32.65,0,0,0-.19,5A32.65,32.65,0,0,0,392.23,249.8Z"/><path class="cls-3" d="M394.82,249.8a31.85,31.85,0,0,0,.2-5,31.85,31.85,0,0,0-.2-5,32.65,32.65,0,0,0-.19,5A32.65,32.65,0,0,0,394.82,249.8Z"/><path class="cls-3" d="M386.54,249.8a31.85,31.85,0,0,0,.2-5,31.85,31.85,0,0,0-.2-5,34.24,34.24,0,0,0-.19,5A34.24,34.24,0,0,0,386.54,249.8Z"/><path class="cls-3" d="M389.13,249.8a31.85,31.85,0,0,0,.2-5,31.85,31.85,0,0,0-.2-5,34.24,34.24,0,0,0-.19,5A34.24,34.24,0,0,0,389.13,249.8Z"/><path class="cls-3" d="M380.86,249.8a32.65,32.65,0,0,0,.19-5,32.65,32.65,0,0,0-.19-5,31.85,31.85,0,0,0-.2,5A31.85,31.85,0,0,0,380.86,249.8Z"/><path class="cls-3" d="M383.45,249.8a34.24,34.24,0,0,0,.19-5,34.24,34.24,0,0,0-.19-5,31.85,31.85,0,0,0-.2,5A31.85,31.85,0,0,0,383.45,249.8Z"/><path class="cls-3" d="M375.17,249.8a31.85,31.85,0,0,0,.2-5,31.85,31.85,0,0,0-.2-5,31.85,31.85,0,0,0-.2,5A31.85,31.85,0,0,0,375.17,249.8Z"/><path class="cls-3" d="M377.76,249.8a32.65,32.65,0,0,0,.19-5,32.65,32.65,0,0,0-.19-5,31.85,31.85,0,0,0-.2,5A31.85,31.85,0,0,0,377.76,249.8Z"/><path class="cls-3" d="M369.48,249.8a31.85,31.85,0,0,0,.2-5,31.85,31.85,0,0,0-.2-5,31.85,31.85,0,0,0-.2,5A31.85,31.85,0,0,0,369.48,249.8Z"/><path class="cls-3" d="M372.07,249.8a31.85,31.85,0,0,0,.2-5,31.85,31.85,0,0,0-.2-5,31.85,31.85,0,0,0-.2,5A31.85,31.85,0,0,0,372.07,249.8Z"/><path class="cls-3" d="M363.79,249.8a31.85,31.85,0,0,0,.2-5,31.85,31.85,0,0,0-.2-5,31.85,31.85,0,0,0-.2,5A31.85,31.85,0,0,0,363.79,249.8Z"/><path class="cls-3" d="M366.38,249.8a31.85,31.85,0,0,0,.2-5,31.85,31.85,0,0,0-.2-5,31.85,31.85,0,0,0-.2,5A31.85,31.85,0,0,0,366.38,249.8Z"/><rect class="cls-2" x="363.88" y="249.85" width="47.34" height="10.14" transform="translate(775.09 509.83) rotate(180)"/><path class="cls-3" d="M406.58,260.06a63.35,63.35,0,0,0,0-10.06,63.35,63.35,0,0,0,0,10.06Z"/><path class="cls-3" d="M409.17,260.06a32.65,32.65,0,0,0,.19-5,32.65,32.65,0,0,0-.19-5,63.35,63.35,0,0,0,0,10.06Z"/><path class="cls-3" d="M400.89,260.06a63.35,63.35,0,0,0,0-10.06,63.35,63.35,0,0,0,0,10.06Z"/><path class="cls-3" d="M403.48,260.06a63.35,63.35,0,0,0,0-10.06,63.35,63.35,0,0,0,0,10.06Z"/><path class="cls-3" d="M395.2,260.06a63.35,63.35,0,0,0,0-10.06,63.35,63.35,0,0,0,0,10.06Z"/><path class="cls-3" d="M397.79,260.06a63.35,63.35,0,0,0,0-10.06,63.35,63.35,0,0,0,0,10.06Z"/><path class="cls-3" d="M389.51,260.06a63.35,63.35,0,0,0,0-10.06,32.65,32.65,0,0,0-.19,5A32.65,32.65,0,0,0,389.51,260.06Z"/><path class="cls-3" d="M392.1,260.06a63.35,63.35,0,0,0,0-10.06,32.65,32.65,0,0,0-.19,5A32.65,32.65,0,0,0,392.1,260.06Z"/><path class="cls-3" d="M383.83,260.06a66.68,66.68,0,0,0,0-10.06,63.35,63.35,0,0,0,0,10.06Z"/><path class="cls-3" d="M386.41,260.06a63.35,63.35,0,0,0,0-10.06,66.68,66.68,0,0,0,0,10.06Z"/><path class="cls-3" d="M378.14,260.06a32.65,32.65,0,0,0,.19-5,32.65,32.65,0,0,0-.19-5,63.35,63.35,0,0,0,0,10.06Z"/><path class="cls-3" d="M380.73,260.06a66.68,66.68,0,0,0,0-10.06,63.35,63.35,0,0,0,0,10.06Z"/><path class="cls-3" d="M372.45,260.06a63.35,63.35,0,0,0,0-10.06,63.35,63.35,0,0,0,0,10.06Z"/><path class="cls-3" d="M375,260.06a32.65,32.65,0,0,0,.19-5,32.65,32.65,0,0,0-.19-5,63.35,63.35,0,0,0,0,10.06Z"/><path class="cls-3" d="M366.76,260.06a63.35,63.35,0,0,0,0-10.06,63.35,63.35,0,0,0,0,10.06Z"/><path class="cls-3" d="M369.35,260.06a63.35,63.35,0,0,0,0-10.06,63.35,63.35,0,0,0,0,10.06Z"/><path class="cls-3" d="M363.88,249.85c0,.12,10.67.23,23.83.23s23.84-.11,23.84-.23-10.67-.24-23.84-.24S363.88,249.72,363.88,249.85Z"/><rect class="cls-2" x="367.59" y="259.91" width="47.34" height="10.14" transform="translate(782.52 529.96) rotate(180)"/><path class="cls-3" d="M410.29,270.12a63.35,63.35,0,0,0,0-10.06,63.35,63.35,0,0,0,0,10.06Z"/><path class="cls-3" d="M412.88,270.12a63.35,63.35,0,0,0,0-10.06,63.35,63.35,0,0,0,0,10.06Z"/><path class="cls-3" d="M404.6,270.12a63.35,63.35,0,0,0,0-10.06,63.35,63.35,0,0,0,0,10.06Z"/><path class="cls-3" d="M407.19,270.12a63.35,63.35,0,0,0,0-10.06,63.35,63.35,0,0,0,0,10.06Z"/><path class="cls-3" d="M398.91,270.12a63.35,63.35,0,0,0,0-10.06,66.68,66.68,0,0,0,0,10.06Z"/><path class="cls-3" d="M401.5,270.12a63.35,63.35,0,0,0,0-10.06,63.35,63.35,0,0,0,0,10.06Z"/><path class="cls-3" d="M393.22,270.12a63.35,63.35,0,0,0,0-10.06,66.68,66.68,0,0,0,0,10.06Z"/><path class="cls-3" d="M395.81,270.12a63.35,63.35,0,0,0,0-10.06,66.68,66.68,0,0,0,0,10.06Z"/><path class="cls-3" d="M387.54,270.12a66.68,66.68,0,0,0,0-10.06,63.35,63.35,0,0,0,0,10.06Z"/><path class="cls-3" d="M390.13,270.12a66.68,66.68,0,0,0,0-10.06,63.35,63.35,0,0,0,0,10.06Z"/><path class="cls-3" d="M381.85,270.12a66.68,66.68,0,0,0,0-10.06,63.35,63.35,0,0,0,0,10.06Z"/><path class="cls-3" d="M384.44,270.12a66.68,66.68,0,0,0,0-10.06,63.35,63.35,0,0,0,0,10.06Z"/><path class="cls-3" d="M376.16,270.12a63.35,63.35,0,0,0,0-10.06,63.35,63.35,0,0,0,0,10.06Z"/><path class="cls-3" d="M378.75,270.12a63.35,63.35,0,0,0,0-10.06,63.35,63.35,0,0,0,0,10.06Z"/><path class="cls-3" d="M370.47,270.12a63.35,63.35,0,0,0,0-10.06,63.35,63.35,0,0,0,0,10.06Z"/><path class="cls-3" d="M373.06,270.12a63.35,63.35,0,0,0,0-10.06,63.35,63.35,0,0,0,0,10.06Z"/><path class="cls-3" d="M367.59,259.91c0,.13,10.64.23,23.78.23s23.78-.1,23.78-.23-10.65-.23-23.78-.23S367.59,259.78,367.59,259.91Z"/><path class="cls-4" d="M379.29,258.88c0,.09,6.81.17,15.2.17s15.19-.08,15.19-.17-6.8-.17-15.19-.17S379.29,258.78,379.29,258.88Z"/><path class="cls-4" d="M414.27,268.1a16.14,16.14,0,0,0,0-4.39,17.28,17.28,0,0,0,0,4.39Z"/><path class="cls-4" d="M380.78,269c0,.09,7.06.17,15.75.17s15.76-.08,15.76-.17-7.05-.17-15.76-.17S380.78,268.88,380.78,269Z"/><path class="cls-5" d="M450,350.46c0,.09-100.74.17-225,.17s-225-.08-225-.17,100.72-.16,225-.16S450,350.37,450,350.46Z"/><rect class="cls-6" x="23.82" y="295.96" width="175.63" height="54.32"/><g class="cls-7"><rect x="136.6" y="295.96" width="62.85" height="54.32"/></g><path class="cls-5" d="M133.27,347.58s0-.3,0-.87,0-1.41,0-2.52c0-2.22,0-5.48,0-9.67,0-8.38,0-20.5-.06-35.47l.12.12-106.41,0h0l.16-.16c0,17.06,0,33.48,0,48.53l-.15-.15,76.38.07,22.08,0,5.9,0h0l-5.87,0-22,0-76.49.08H26.7v-.16c0-15.05,0-31.47,0-48.53v-.17h.17l106.41.05h.12v.12c0,15,0,27.14-.07,35.54,0,4.19,0,7.44,0,9.65,0,1.09,0,1.93,0,2.5S133.27,347.58,133.27,347.58Z"/><path class="cls-5" d="M195.73,347.58s0-.31,0-.9,0-1.47,0-2.6c0-2.28,0-5.61,0-9.85,0-8.48,0-20.6-.07-35.18l.13.14-55,0h0l.16-.16c0,17.64,0,34.25,0,48.53l-.14-.14,39.76.07,11.23,0,3,0h0l-2.94,0-11.19,0-39.86.08h-.15v-.15c0-14.28,0-30.89,0-48.53v-.17h.17l55,0h.15v.14c0,14.62-.06,26.76-.08,35.27,0,4.22,0,7.54,0,9.82,0,1.12,0,2,0,2.57S195.73,347.58,195.73,347.58Z"/><path class="cls-5" d="M33.07,347.54c-.09,0-.16-10.81-.16-24.15s.07-24.16.16-24.16.17,10.81.17,24.16S33.16,347.54,33.07,347.54Z"/><path class="cls-5" d="M41,347.54c-.09,0-.17-10.81-.17-24.15s.08-24.16.17-24.16.16,10.81.16,24.16S41.05,347.54,41,347.54Z"/><path class="cls-5" d="M48.84,347.54c-.09,0-.16-10.81-.16-24.15s.07-24.16.16-24.16S49,310,49,323.39,48.93,347.54,48.84,347.54Z"/><path class="cls-5" d="M56.73,347.54c-.09,0-.17-10.81-.17-24.15s.08-24.16.17-24.16.17,10.81.17,24.16S56.82,347.54,56.73,347.54Z"/><path class="cls-5" d="M64.62,347.54c-.1,0-.17-10.81-.17-24.15s.07-24.16.17-24.16.16,10.81.16,24.16S64.71,347.54,64.62,347.54Z"/><path class="cls-5" d="M72.5,347.54c-.09,0-.16-10.81-.16-24.15s.07-24.16.16-24.16.17,10.81.17,24.16S72.59,347.54,72.5,347.54Z"/><path class="cls-5" d="M80.39,347.54c-.09,0-.17-10.81-.17-24.15s.08-24.16.17-24.16.16,10.81.16,24.16S80.48,347.54,80.39,347.54Z"/><path class="cls-5" d="M88.28,347.54c-.1,0-.17-10.81-.17-24.15s.07-24.16.17-24.16.16,10.81.16,24.16S88.37,347.54,88.28,347.54Z"/><path class="cls-5" d="M96.16,347.54c-.09,0-.16-10.81-.16-24.15s.07-24.16.16-24.16.17,10.81.17,24.16S96.25,347.54,96.16,347.54Z"/><path class="cls-5" d="M104.05,347.54c-.09,0-.17-10.81-.17-24.15s.08-24.16.17-24.16.16,10.81.16,24.16S104.14,347.54,104.05,347.54Z"/><path class="cls-5" d="M111.93,347.54c-.09,0-.16-10.81-.16-24.15s.07-24.16.16-24.16.17,10.81.17,24.16S112,347.54,111.93,347.54Z"/><path class="cls-5" d="M119.82,347.54c-.09,0-.16-10.81-.16-24.15s.07-24.16.16-24.16S120,310,120,323.39,119.91,347.54,119.82,347.54Z"/><path class="cls-5" d="M127.71,347.54c-.09,0-.17-10.81-.17-24.15s.08-24.16.17-24.16.16,10.81.16,24.16S127.8,347.54,127.71,347.54Z"/><path class="cls-5" d="M148.16,347.54c-.1,0-.17-10.81-.17-24.15s.07-24.16.17-24.16.16,10.81.16,24.16S148.25,347.54,148.16,347.54Z"/><path class="cls-5" d="M164.45,347.54c-.09,0-.17-10.81-.17-24.15s.08-24.16.17-24.16.16,10.81.16,24.16S164.54,347.54,164.45,347.54Z"/><path class="cls-5" d="M173.08,347.54c-.09,0-.16-10.81-.16-24.15s.07-24.16.16-24.16.17,10.81.17,24.16S173.17,347.54,173.08,347.54Z"/><path class="cls-5" d="M181.72,347.54c-.09,0-.17-10.81-.17-24.15s.08-24.16.17-24.16.16,10.81.16,24.16S181.81,347.54,181.72,347.54Z"/><path class="cls-5" d="M190.35,347.54c-.09,0-.16-10.81-.16-24.15s.07-24.16.16-24.16.17,10.81.17,24.16S190.44,347.54,190.35,347.54Z"/><path class="cls-5" d="M156.22,347.54c-.09,0-.16-10.81-.16-24.15s.07-24.16.16-24.16.17,10.81.17,24.16S156.31,347.54,156.22,347.54Z"/><rect class="cls-8" x="19.63" y="262.93" width="106.79" height="33.03"/><g class="cls-7"><rect x="88.21" y="262.93" width="38.22" height="33.03"/></g><path class="cls-5" d="M86.18,294.32s0-.19,0-.53,0-.87,0-1.54c0-1.36,0-3.34,0-5.89,0-5.1,0-12.46-.07-21.55l.12.12-64.7,0h0l.17-.16c0,10.37,0,20.35,0,29.51l-.16-.16,46.42.08,13.44,0,3.59,0h0l-3.56,0-13.4,0-46.53.08h-.16v-.16c0-9.16,0-19.14,0-29.51v-.17h.17l64.7.05h.12v.12c0,9.12,0,16.51-.06,21.62,0,2.54,0,4.51,0,5.86,0,.66,0,1.17,0,1.52S86.18,294.32,86.18,294.32Z"/><path class="cls-5" d="M124.16,294.32s0-.2,0-.56,0-.9,0-1.58c0-1.4,0-3.42,0-6,0-5.16,0-12.52-.07-21.37l.14.14-33.44,0,.16-.16h0v15.51c0,4.95,0,9.65,0,14l-.14-.15,24.16.08,6.83,0,1.81,0h-1.75l-6.8,0-24.25.07h-.15v-.14c0-4.34,0-9,0-14v-7.61c0-1.29,0-2.6,0-3.92v-4h0l.17-.17,33.44,0h.14v.14c0,8.89-.06,16.28-.07,21.46,0,2.56,0,4.57,0,6,0,.68,0,1.2,0,1.56S124.16,294.32,124.16,294.32Z"/><path class="cls-5" d="M25.26,294.3c-.09,0-.17-6.58-.17-14.69s.08-14.69.17-14.69.16,6.57.16,14.69S25.35,294.3,25.26,294.3Z"/><path class="cls-5" d="M30.05,294.3c-.09,0-.16-6.58-.16-14.69s.07-14.69.16-14.69.17,6.57.17,14.69S30.15,294.3,30.05,294.3Z"/><path class="cls-5" d="M34.85,294.3c-.09,0-.17-6.58-.17-14.69s.08-14.69.17-14.69.16,6.57.16,14.69S34.94,294.3,34.85,294.3Z"/><path class="cls-5" d="M39.64,294.3c-.09,0-.16-6.58-.16-14.69s.07-14.69.16-14.69.17,6.57.17,14.69S39.74,294.3,39.64,294.3Z"/><path class="cls-5" d="M44.44,294.3c-.09,0-.17-6.58-.17-14.69s.08-14.69.17-14.69.16,6.57.16,14.69S44.53,294.3,44.44,294.3Z"/><path class="cls-5" d="M49.23,294.3c-.09,0-.16-6.58-.16-14.69s.07-14.69.16-14.69.17,6.57.17,14.69S49.33,294.3,49.23,294.3Z"/><path class="cls-5" d="M54,294.3c-.09,0-.17-6.58-.17-14.69s.08-14.69.17-14.69.17,6.57.17,14.69S54.12,294.3,54,294.3Z"/><path class="cls-5" d="M58.83,294.3c-.1,0-.17-6.58-.17-14.69s.07-14.69.17-14.69.16,6.57.16,14.69S58.92,294.3,58.83,294.3Z"/><path class="cls-5" d="M63.62,294.3c-.09,0-.17-6.58-.17-14.69s.08-14.69.17-14.69.17,6.57.17,14.69S63.71,294.3,63.62,294.3Z"/><path class="cls-5" d="M68.42,294.3c-.1,0-.17-6.58-.17-14.69s.07-14.69.17-14.69.16,6.57.16,14.69S68.51,294.3,68.42,294.3Z"/><path class="cls-5" d="M73.21,294.3c-.09,0-.16-6.58-.16-14.69s.07-14.69.16-14.69.17,6.57.17,14.69S73.3,294.3,73.21,294.3Z"/><path class="cls-5" d="M78,294.3c-.1,0-.17-6.58-.17-14.69s.07-14.69.17-14.69.16,6.57.16,14.69S78.1,294.3,78,294.3Z"/><path class="cls-5" d="M82.8,294.3c-.09,0-.16-6.58-.16-14.69s.07-14.69.16-14.69.17,6.57.17,14.69S82.89,294.3,82.8,294.3Z"/><path class="cls-5" d="M95.23,294.3c-.09,0-.16-6.58-.16-14.69s.07-14.69.16-14.69.17,6.57.17,14.69S95.33,294.3,95.23,294.3Z"/><path class="cls-5" d="M105.14,294.3c-.09,0-.16-6.58-.16-14.69s.07-14.69.16-14.69.17,6.57.17,14.69S105.23,294.3,105.14,294.3Z"/><path class="cls-5" d="M110.39,294.3c-.09,0-.16-6.58-.16-14.69s.07-14.69.16-14.69.17,6.57.17,14.69S110.48,294.3,110.39,294.3Z"/><path class="cls-5" d="M115.64,294.3c-.09,0-.16-6.58-.16-14.69s.07-14.69.16-14.69.17,6.57.17,14.69S115.73,294.3,115.64,294.3Z"/><path class="cls-5" d="M120.89,294.3c-.09,0-.16-6.58-.16-14.69s.07-14.69.16-14.69.17,6.57.17,14.69S121,294.3,120.89,294.3Z"/><path class="cls-5" d="M100.14,294.3c-.09,0-.17-6.58-.17-14.69s.08-14.69.17-14.69.16,6.57.16,14.69S100.23,294.3,100.14,294.3Z"/><rect class="cls-8" x="267.03" y="301.54" width="158.17" height="48.92"/><g class="cls-7"><rect x="368.6" y="301.54" width="56.61" height="48.92"/></g><path class="cls-5" d="M365.6,348s0-.27,0-.78,0-1.28,0-2.28c0-2,0-4.93,0-8.71,0-7.55,0-18.46-.07-31.94l.12.12-95.83,0h0l.16-.16V348l-.16-.16,68.79.08,19.88,0,5.31,0h0l-5.28,0-19.85,0-68.89.08h-.16V348c0-13.56,0-28.35,0-43.71v-.17h.17l95.83.05h.12v.12c0,13.51-.05,24.45-.06,32,0,3.77,0,6.7,0,8.69,0,1,0,1.74,0,2.25S365.6,348,365.6,348Z"/><path class="cls-5" d="M421.85,348s0-.28,0-.82,0-1.32,0-2.34c0-2.06,0-5.05,0-8.87,0-7.64,0-18.55-.07-31.68l.14.14-49.52,0h0l.17-.16c0,15.89,0,30.85,0,43.71l-.15-.15,35.81.08,10.11,0,2.68,0H418.3l-10.08,0-35.9.07h-.14V348c0-12.86,0-27.82,0-43.71v-.17h.17l49.52,0H422v.14c0,13.17-.05,24.11-.07,31.76,0,3.81,0,6.8,0,8.85,0,1,0,1.78,0,2.31S421.85,348,421.85,348Z"/><path class="cls-5" d="M275.37,348c-.1,0-.17-9.74-.17-21.75s.07-21.76.17-21.76.16,9.74.16,21.76S275.46,348,275.37,348Z"/><path class="cls-5" d="M282.47,348c-.09,0-.17-9.74-.17-21.75s.08-21.76.17-21.76.16,9.74.16,21.76S282.56,348,282.47,348Z"/><path class="cls-5" d="M289.57,348c-.09,0-.17-9.74-.17-21.75s.08-21.76.17-21.76.17,9.74.17,21.76S289.66,348,289.57,348Z"/><path class="cls-5" d="M296.67,348c-.09,0-.16-9.74-.16-21.75s.07-21.76.16-21.76.17,9.74.17,21.76S296.76,348,296.67,348Z"/><path class="cls-5" d="M303.77,348c-.09,0-.16-9.74-.16-21.75s.07-21.76.16-21.76.17,9.74.17,21.76S303.87,348,303.77,348Z"/><path class="cls-5" d="M310.88,348c-.09,0-.17-9.74-.17-21.75s.08-21.76.17-21.76.16,9.74.16,21.76S311,348,310.88,348Z"/><path class="cls-5" d="M318,348c-.09,0-.17-9.74-.17-21.75s.08-21.76.17-21.76.16,9.74.16,21.76S318.07,348,318,348Z"/><path class="cls-5" d="M325.08,348c-.09,0-.16-9.74-.16-21.75s.07-21.76.16-21.76.17,9.74.17,21.76S325.17,348,325.08,348Z"/><path class="cls-5" d="M332.18,348c-.09,0-.16-9.74-.16-21.75s.07-21.76.16-21.76.17,9.74.17,21.76S332.28,348,332.18,348Z"/><path class="cls-5" d="M339.29,348c-.09,0-.17-9.74-.17-21.75s.08-21.76.17-21.76.16,9.74.16,21.76S339.38,348,339.29,348Z"/><path class="cls-5" d="M346.39,348c-.09,0-.17-9.74-.17-21.75s.08-21.76.17-21.76.16,9.74.16,21.76S346.48,348,346.39,348Z"/><path class="cls-5" d="M353.49,348c-.09,0-.16-9.74-.16-21.75s.07-21.76.16-21.76.17,9.74.17,21.76S353.58,348,353.49,348Z"/><path class="cls-5" d="M360.59,348c-.09,0-.16-9.74-.16-21.75s.07-21.76.16-21.76.17,9.74.17,21.76S360.68,348,360.59,348Z"/><path class="cls-5" d="M379,348c-.09,0-.17-9.74-.17-21.75s.08-21.76.17-21.76.17,9.74.17,21.76S379.1,348,379,348Z"/><path class="cls-5" d="M393.68,348c-.09,0-.16-9.74-.16-21.75s.07-21.76.16-21.76.17,9.74.17,21.76S393.77,348,393.68,348Z"/><path class="cls-5" d="M401.46,348c-.09,0-.17-9.74-.17-21.75s.08-21.76.17-21.76.16,9.74.16,21.76S401.55,348,401.46,348Z"/><path class="cls-5" d="M409.24,348c-.1,0-.17-9.74-.17-21.75s.07-21.76.17-21.76.16,9.74.16,21.76S409.33,348,409.24,348Z"/><path class="cls-5" d="M417,348c-.09,0-.16-9.74-.16-21.75s.07-21.76.16-21.76.17,9.74.17,21.76S417.1,348,417,348Z"/><path class="cls-5" d="M386.27,348c-.09,0-.16-9.74-.16-21.75s.07-21.76.16-21.76.17,9.74.17,21.76S386.36,348,386.27,348Z"/><rect class="cls-3" x="34.81" y="229.9" width="106.79" height="33.03"/><g class="cls-7"><rect x="103.38" y="229.9" width="38.22" height="33.03"/></g><path class="cls-5" d="M101.36,261.29s0-.19,0-.53,0-.87,0-1.54c0-1.36,0-3.34,0-5.89,0-5.1,0-12.46-.07-21.55l.12.12-64.7,0h0l.16-.16c0,10.37,0,20.35,0,29.51l-.15-.16,46.42.08,13.43,0,3.6,0h0l-3.56,0-13.39,0-46.53.08H36.5V231.61h.17l64.7,0h.12v.12c0,9.12,0,16.51-.06,21.62,0,2.54,0,4.51,0,5.86,0,.66,0,1.17,0,1.52S101.36,261.29,101.36,261.29Z"/><path class="cls-5" d="M139.34,261.29s0-.2,0-.56,0-.9,0-1.58c0-1.4,0-3.43,0-6,0-5.16,0-12.52-.07-21.37l.14.14-33.44,0,.16-.16h0V247.3c0,4.95,0,9.65,0,14l-.14-.15,24.16.08,6.83,0,1.81,0H137l-6.8,0-24.25.07h-.15v-.14c0-4.34,0-9,0-14,0-2.48,0-5,0-7.61v-7.9h0c-.15.15.2-.21.17-.17l33.44,0h.14v.14c0,8.89-.06,16.28-.08,21.46,0,2.56,0,4.57,0,6,0,.68,0,1.2,0,1.56S139.34,261.29,139.34,261.29Z"/><path class="cls-5" d="M40.44,261.27c-.09,0-.17-6.58-.17-14.69s.08-14.69.17-14.69.16,6.57.16,14.69S40.53,261.27,40.44,261.27Z"/><path class="cls-5" d="M45.23,261.27c-.09,0-.16-6.58-.16-14.69s.07-14.69.16-14.69.17,6.57.17,14.69S45.32,261.27,45.23,261.27Z"/><path class="cls-5" d="M50,261.27c-.09,0-.17-6.58-.17-14.69s.08-14.69.17-14.69.16,6.57.16,14.69S50.12,261.27,50,261.27Z"/><path class="cls-5" d="M54.82,261.27c-.09,0-.16-6.58-.16-14.69s.07-14.69.16-14.69.17,6.57.17,14.69S54.91,261.27,54.82,261.27Z"/><path class="cls-5" d="M59.62,261.27c-.09,0-.17-6.58-.17-14.69s.08-14.69.17-14.69.16,6.57.16,14.69S59.71,261.27,59.62,261.27Z"/><path class="cls-5" d="M64.41,261.27c-.09,0-.16-6.58-.16-14.69s.07-14.69.16-14.69.17,6.57.17,14.69S64.5,261.27,64.41,261.27Z"/><path class="cls-5" d="M69.21,261.27c-.09,0-.17-6.58-.17-14.69s.08-14.69.17-14.69.16,6.57.16,14.69S69.3,261.27,69.21,261.27Z"/><path class="cls-5" d="M74,261.27c-.09,0-.16-6.58-.16-14.69s.07-14.69.16-14.69.17,6.57.17,14.69S74.09,261.27,74,261.27Z"/><path class="cls-5" d="M78.8,261.27c-.09,0-.17-6.58-.17-14.69s.08-14.69.17-14.69.16,6.57.16,14.69S78.89,261.27,78.8,261.27Z"/><path class="cls-5" d="M83.59,261.27c-.09,0-.16-6.58-.16-14.69s.07-14.69.16-14.69.17,6.57.17,14.69S83.68,261.27,83.59,261.27Z"/><path class="cls-5" d="M88.39,261.27c-.09,0-.17-6.58-.17-14.69s.08-14.69.17-14.69.16,6.57.16,14.69S88.48,261.27,88.39,261.27Z"/><path class="cls-5" d="M93.18,261.27c-.09,0-.16-6.58-.16-14.69s.07-14.69.16-14.69.17,6.57.17,14.69S93.28,261.27,93.18,261.27Z"/><path class="cls-5" d="M98,261.27c-.09,0-.17-6.58-.17-14.69s.08-14.69.17-14.69.16,6.57.16,14.69S98.07,261.27,98,261.27Z"/><path class="cls-5" d="M110.41,261.27c-.09,0-.16-6.58-.16-14.69s.07-14.69.16-14.69.17,6.57.17,14.69S110.5,261.27,110.41,261.27Z"/><path class="cls-5" d="M120.32,261.27c-.09,0-.17-6.58-.17-14.69s.08-14.69.17-14.69.16,6.57.16,14.69S120.41,261.27,120.32,261.27Z"/><path class="cls-5" d="M125.57,261.27c-.09,0-.17-6.58-.17-14.69s.08-14.69.17-14.69.16,6.57.16,14.69S125.66,261.27,125.57,261.27Z"/><path class="cls-5" d="M130.82,261.27c-.09,0-.17-6.58-.17-14.69s.08-14.69.17-14.69.17,6.57.17,14.69S130.91,261.27,130.82,261.27Z"/><path class="cls-5" d="M136.07,261.27c-.09,0-.16-6.58-.16-14.69s.07-14.69.16-14.69.17,6.57.17,14.69S136.16,261.27,136.07,261.27Z"/><path class="cls-5" d="M115.32,261.27c-.09,0-.17-6.58-.17-14.69s.08-14.69.17-14.69.16,6.57.16,14.69S115.41,261.27,115.32,261.27Z"/><rect class="cls-3" x="307.2" y="268.11" width="106.79" height="33.03"/><g class="cls-7"><rect x="375.77" y="268.11" width="38.22" height="33.03"/></g><path class="cls-5" d="M373.75,299.5s0-.18,0-.53,0-.87,0-1.54c0-1.36,0-3.34,0-5.89,0-5.1,0-12.46-.06-21.55l.12.12-64.7,0h0l.16-.16c0,10.37,0,20.36,0,29.51l-.15-.16,46.42.08,13.43,0,3.59,0h0l-3.56,0-13.39,0-46.53.08h-.16v-.16c0-9.15,0-19.14,0-29.51v-.17h.17l64.7.05h.12V270c0,9.12-.05,16.51-.07,21.63,0,2.53,0,4.51,0,5.86,0,.66,0,1.16,0,1.51S373.75,299.5,373.75,299.5Z"/><path class="cls-5" d="M411.72,299.5s0-.19,0-.55,0-.91,0-1.59c0-1.4,0-3.42,0-6,0-5.16-.05-12.52-.08-21.37l.14.14-33.43,0,.16-.16h0v7.9q0,3.89,0,7.61c0,4.95,0,9.65,0,14l-.15-.15,24.16.08,6.84,0h.06l-6.8,0-24.26.08h-.14v-.15c0-4.34,0-9,0-14V270h0l.17-.17,33.43,0h.14V270c0,8.89-.05,16.28-.07,21.46,0,2.56,0,4.58,0,6,0,.67,0,1.19,0,1.56S411.72,299.5,411.72,299.5Z"/><path class="cls-5" d="M312.82,299.48c-.09,0-.16-6.58-.16-14.69s.07-14.69.16-14.69.17,6.57.17,14.69S312.92,299.48,312.82,299.48Z"/><path class="cls-5" d="M317.62,299.48c-.09,0-.17-6.58-.17-14.69s.08-14.69.17-14.69.16,6.57.16,14.69S317.71,299.48,317.62,299.48Z"/><path class="cls-5" d="M322.41,299.48c-.09,0-.16-6.58-.16-14.69s.07-14.69.16-14.69.17,6.57.17,14.69S322.51,299.48,322.41,299.48Z"/><path class="cls-5" d="M327.21,299.48c-.09,0-.17-6.58-.17-14.69s.08-14.69.17-14.69.17,6.57.17,14.69S327.3,299.48,327.21,299.48Z"/><path class="cls-5" d="M332,299.48c-.1,0-.17-6.58-.17-14.69s.07-14.69.17-14.69.16,6.57.16,14.69S332.1,299.48,332,299.48Z"/><path class="cls-5" d="M336.8,299.48c-.09,0-.17-6.58-.17-14.69s.08-14.69.17-14.69.17,6.57.17,14.69S336.89,299.48,336.8,299.48Z"/><path class="cls-5" d="M341.6,299.48c-.1,0-.17-6.58-.17-14.69s.07-14.69.17-14.69.16,6.57.16,14.69S341.69,299.48,341.6,299.48Z"/><path class="cls-5" d="M346.39,299.48c-.09,0-.16-6.58-.16-14.69s.07-14.69.16-14.69.17,6.57.17,14.69S346.48,299.48,346.39,299.48Z"/><path class="cls-5" d="M351.19,299.48c-.1,0-.17-6.58-.17-14.69s.07-14.69.17-14.69.16,6.57.16,14.69S351.28,299.48,351.19,299.48Z"/><path class="cls-5" d="M356,299.48c-.09,0-.16-6.58-.16-14.69s.07-14.69.16-14.69.17,6.57.17,14.69S356.07,299.48,356,299.48Z"/><path class="cls-5" d="M360.78,299.48c-.1,0-.17-6.58-.17-14.69s.07-14.69.17-14.69.16,6.57.16,14.69S360.87,299.48,360.78,299.48Z"/><path class="cls-5" d="M365.57,299.48c-.09,0-.16-6.58-.16-14.69s.07-14.69.16-14.69.17,6.57.17,14.69S365.66,299.48,365.57,299.48Z"/><path class="cls-5" d="M370.37,299.48c-.09,0-.17-6.58-.17-14.69s.08-14.69.17-14.69.16,6.57.16,14.69S370.46,299.48,370.37,299.48Z"/><path class="cls-5" d="M382.8,299.48c-.09,0-.16-6.58-.16-14.69s.07-14.69.16-14.69.17,6.57.17,14.69S382.89,299.48,382.8,299.48Z"/><path class="cls-5" d="M392.71,299.48c-.09,0-.17-6.58-.17-14.69s.08-14.69.17-14.69.16,6.57.16,14.69S392.8,299.48,392.71,299.48Z"/><path class="cls-5" d="M398,299.48c-.09,0-.17-6.58-.17-14.69s.08-14.69.17-14.69.16,6.57.16,14.69S398.05,299.48,398,299.48Z"/><path class="cls-5" d="M403.21,299.48c-.09,0-.17-6.58-.17-14.69s.08-14.69.17-14.69.16,6.57.16,14.69S403.3,299.48,403.21,299.48Z"/><path class="cls-5" d="M408.46,299.48c-.09,0-.17-6.58-.17-14.69s.08-14.69.17-14.69.16,6.57.16,14.69S408.55,299.48,408.46,299.48Z"/><path class="cls-5" d="M387.7,299.48c-.09,0-.16-6.58-.16-14.69s.07-14.69.16-14.69.17,6.57.17,14.69S387.8,299.48,387.7,299.48Z"/><circle class="cls-8" cx="222.57" cy="160.18" r="83.81" transform="translate(-48.07 204.29) rotate(-45)"/><g class="cls-7"><path d="M213,77.8s-.06,0-.12,0a2.84,2.84,0,0,0-.56.06l-.65.24s-.07,0-.06,0,.19.17,1-.05C213.12,77.94,213.11,77.83,213,77.8Z"/><path d="M211.74,77.11a1.72,1.72,0,0,0,.38-.11s0,0-.05,0l-.47.05c-.06,0-.13,0-.12.06S211.62,77.13,211.74,77.11Z"/><path d="M214.37,76.81a1.17,1.17,0,0,0,.42,0,5.2,5.2,0,0,0,.55-.06s.38-.05.44-.07,0,0-.07,0a21.29,21.29,0,0,0-2.61.2l.68,0A3.9,3.9,0,0,1,214.37,76.81Z"/><path d="M212.87,77.09s0,0,0,0a2.67,2.67,0,0,1,.55,0c.17,0,.41,0,.54,0l.08,0h-.11a9.29,9.29,0,0,0-2.88.36,12.16,12.16,0,0,0,1.8-.16S212.85,77.11,212.87,77.09Z"/><path d="M214.21,77.42l.1,0,.16-.08.31-.12.06,0s0,0,0,0a3.37,3.37,0,0,0-.9.19h0s0,0-.13.16A4.38,4.38,0,0,0,214.21,77.42Z"/><path d="M210.17,78.65h-.08a1.17,1.17,0,0,0-.25,0,3.29,3.29,0,0,0-.84.21h0a4.39,4.39,0,0,0,1-.1C210.13,78.73,210.23,78.69,210.17,78.65Z"/><path d="M210.29,80.18s0-.07-.23-.1l-.1,0-.89-.13a5.62,5.62,0,0,0-1.89.26v0c.08.06.19.05.26.14s0,.19,0,.22a7.69,7.69,0,0,1-1.24.38c-.1,0-.11,0-.16,0,0-.24.31-.22.38-.4a2.36,2.36,0,0,0-1.1.26.08.08,0,0,0,0,.06,4.69,4.69,0,0,1,0,.53c0,.07,0,.14,0,.2s-.15.21-.18.34a.17.17,0,0,0,0,.07c.13.29,2.37-.15,3.06-.48.15-.08.7-.61.49-.68a3.49,3.49,0,0,0-.72,0c.53-.14,1.1-.17,1.63-.31C209.56,80.48,210.27,80.21,210.29,80.18Z"/><path d="M205,78.22c.94-.08,1.83-.41,2.76-.52a7.15,7.15,0,0,0-1,.25l3.26-.59a.63.63,0,0,0,.28-.11.21.21,0,0,0-.11,0,53.6,53.6,0,0,0-6.3,1.15c.43.09.8-.15,1.21-.2Z"/><path d="M203,84h0a.63.63,0,0,0-.22,0,12.37,12.37,0,0,1-1.31.53c-.78.16-1,.21-1.07.3h0a.64.64,0,0,0,.26.06c.26,0,.29,0,.33.09s0,.22.09.3a1.79,1.79,0,0,0,.4.1,3.2,3.2,0,0,0,1.8-.12c.17-.1.06-.78.06-.78A1,1,0,0,0,203,84Z"/><path d="M206.15,79.85a.46.46,0,0,0-.2,0,2.47,2.47,0,0,0-1.24.21h0c.06,0,.13,0,.18.06s0,0-.1.15-.22.22-.08.23a4.65,4.65,0,0,0,1.07-.34C206.15,80,206.26,79.9,206.15,79.85Z"/><path d="M263.73,97.39c-.29-.87-1-1.54-1.22-2.43a7.86,7.86,0,0,1,0-1.68c-.06-.66.11-.77.54-1,.59-.29.35-.58-.36-1.43-2.34-2.78-2.35-2.83-2.47-3.31l.1-.1h.17c-.57-1.15-2.55-1.09-2.41-2.84a3,3,0,0,0-.25-.25c0-.07.11-.16.15-.22h.13c-.36-.19-1.46-.65-1.47-.66A10.09,10.09,0,0,0,254.7,83c-.68-.11-1.08-.72-1.7-1-.86-.34-2.78-1-3.56-1.25-1.43-.42-1.43-.42-1.64-.36h0a13.53,13.53,0,0,0-2.35-.57h0s0,0,0,0h0l.05,0a6.14,6.14,0,0,1,1.12.54L245.51,80a7.56,7.56,0,0,0-1.07-.33,24.4,24.4,0,0,0-6.76-.61c.1.11.1.11.62.29a4.6,4.6,0,0,1-2.3.22,29.51,29.51,0,0,0-3.29,0c-1.14.76.69,1.78.71,1.79,5,1.34,5,1.41,5.23,1.82,0,0,1.38,3.31.18,4.41-.49.45-.5.47-.51.55,0,.31.29.45.31.74s-.29.8-.21,1.24c.69.08,1.43-.41,2.07.2a1.17,1.17,0,0,1,.12,1.86c-.75.45-1.71.08-2.44.62a3.29,3.29,0,0,0-1,2c0,.33,1.51,8,3.1,9.28,4.21,2.45,4.35,2.37,4.75,2.15.66-.37,2.93-4.2,2.95-4.24.33-.57.24-1.32.79-1.79.29-.24.31-.24,1.56-.19,3.93.18,3.93.18,4.26-.46s.53-1,1.29-1.13c1.82-.24,3.65.27,5.48,0a16.93,16.93,0,0,0,2.24-.28S263.92,98,263.73,97.39Z"/><path d="M217.21,88.82c.36-.43.35-.68,0-.74,0,0-1.13-.09-1.48.3-.2.23,0,1.06.12,1.23C216.16,90,217.2,88.83,217.21,88.82Z"/><path d="M229.63,76.85l-.79,0c.8.08,3.41.27,3.84.29a40.37,40.37,0,0,1-4.64-.24,1.15,1.15,0,0,0-.61,0,1.68,1.68,0,0,1-.63.63c-.63-.46-2.86,0-3,0,.14.13.34.17.46.32l-.05.07a3.86,3.86,0,0,0,1.23.06c-1.62.27-1.71,0-1.78-.12-1-.34-1.24,0-1.33.21-.72.18-1.5,0-2.19.29a.37.37,0,0,0,0,.09,6.38,6.38,0,0,0,1.43.28c.84.12,1.74-.2,2.55.3-.12.13-.12.13-.35.2.54.32,2.71.08,2.7-.44l-.19-.13a7.66,7.66,0,0,1,2-.46c1.8.19,2.6-.23,2.66-.37l-.08-.06a11,11,0,0,0,3,.06.91.91,0,0,0-.4-.1l4.05.15a13,13,0,0,1-1.34-.3c.94.08,1.86.26,2.8.34-.83-.29-2.28-.61-2.29-.61s-3.57-.61-4.39-.58a.49.49,0,0,0,.1.15,1.28,1.28,0,0,1-.62-.18,13,13,0,0,0-3.77-.17C228.24,76.71,228.27,76.74,229.63,76.85Z"/><path d="M214.19,77.91c-.1.07-.18.17-.28.23a2.77,2.77,0,0,1-.62.24l.22-.25s.08-.07.09-.13a1,1,0,0,0-.73.11l.1,0a.1.1,0,0,1,0,0,7.2,7.2,0,0,1-1.39.14c.05,0,.14,0,.18.07s-.08.08-.08.1.06,0,1.29.07a5.28,5.28,0,0,0-1.68.46,0,0,0,0,1,0,0s1.41,0,1.6,0a5.28,5.28,0,0,0,1.05-.39.13.13,0,0,1,0,.11h0c.43-.19.43-.19,1.53-.6.24-.09.25-.09.3-.13a.22.22,0,0,0-.13,0s-1.23-.07-1.36,0Z"/><path d="M223.17,91c.53.13,1.17,2,1.17,2,.15.45.3.91.58,1,.75.12,2.77-2.22,2.79-2.25a.87.87,0,0,0,.14-.27l-4.78-3a7.85,7.85,0,0,1,1.81-.24c.63-.05,1-.07,1-.22a6.29,6.29,0,0,0-2-3.21c-.37-.2-.83-.23-1.14-.55s-.05-1-.59-1.21a8.72,8.72,0,0,0-2.64-.17c-.92,0-.92,0-1.05,0a4.65,4.65,0,0,1,.35-1.5,5.1,5.1,0,0,0-1.69-.48c-1.69-.19-7.72,2.08-7.06,3s3.86,1.33,4.33,1.28c0-.27,0-.45,1.41-.13,1.14.27,1.4.06,1.57-.09A10.47,10.47,0,0,1,218.1,86c.24.54.2,1.15.41,1.7s1.31,1,1,2c0,0-1,2.15-4.4,2a15.48,15.48,0,0,0-3-.29.87.87,0,0,0-.63.85c.12.21.64.47,2.45.49,1.38,0,1.38,0,3.23,1.75-.24.13-.24.13-1.24.15.33.59,3.81,2.69,4.72,2.54,0-.13,0-.13-.15-.29a20.67,20.67,0,0,1-1.2-2.23,4.65,4.65,0,0,1,2.17,1.67c.11.15.18.26.26.26.47,0,1.72-1.31,1.5-1.78-.46-1-1.85-1.39-1.85-2.71C221.32,90.94,223.16,91,223.17,91Z"/><path d="M208.81,77.65a1.49,1.49,0,0,0,.66-.05.93.93,0,0,0,.18-.06h-.05A3.34,3.34,0,0,0,208.81,77.65Z"/><path d="M235.88,91.92l.84.12a.59.59,0,0,0,.35-.15.26.26,0,0,0,0-.22c0-.15-.16-.24-.21-.37a.27.27,0,0,1,0-.18v0a.7.7,0,0,0-.37-.17c-.38,0-1.6.19-1.17.72A.84.84,0,0,0,235.88,91.92Z"/><path d="M221.92,82.46h0a3.85,3.85,0,0,0-1.89-1c-.75-.13-.7.43-.58.63C219.86,82.68,221.9,82.47,221.92,82.46Z"/><path d="M217.65,76.79a4.84,4.84,0,0,0-.78.06H217a2.17,2.17,0,0,1,.73.16c-.08.12-.25,0-.32.17s.71,0,.76,0a3.44,3.44,0,0,0,1.2-.53c-.08-.06-.18,0-.27,0,.13-.12.33,0,.47-.14h-.07a10.54,10.54,0,0,0-1.78.11c.12.09.28,0,.41.09S218,76.78,217.65,76.79Z"/><path d="M213.48,79c-.19.06-.25.08-.07.3a1.26,1.26,0,0,0,1.25,0c.32-.12,1-.46.78-.56,0,0-.07,0-.1,0A12,12,0,0,0,213.48,79Z"/><path d="M221.61,77.71a0,0,0,0,1,0,0h-.11c-.36,0-.71,0-1.07,0s-.81-.07-1.22-.09h-.54a10.71,10.71,0,0,0,1.86.3,2.24,2.24,0,0,0,1-.12Z"/><path d="M218.73,77.33v0c.12,0,1.39,0,1.76-.09.17,0,.2,0,.23-.09s-.1-.07-.08-.14,0-.06,0-.1h0a.11.11,0,0,0,0,0c-.05,0-.07,0-.15,0a.58.58,0,0,0-.2,0c-.31.08-.56.3-.89.31S218.86,77.18,218.73,77.33Z"/><path d="M221.88,76.57c.92-.11.93-.12,1-.14h-.09s-.88,0-1.14,0-.25.16-.25.16S221.61,76.61,221.88,76.57Z"/><path d="M223.69,76.8c.37,0,.49,0,.58.11a.08.08,0,0,1,0,0,3.3,3.3,0,0,1-.61,0,7.69,7.69,0,0,0-1.34,0c-.25.06-.35.29-.28.36s0,0,.66,0c.25,0,.48.16.74.16.63,0,1.23-.21,1.85-.26.39,0,.78.06,1.16,0a.24.24,0,0,0,.09,0s0,0-.24-.16c0,0,0,0,0,0l.2,0c.54-.06.55-.08.58-.12s-.11,0-.14-.09.29,0,.31-.22.31-.07.45-.16l-.1,0a31,31,0,0,0-3.15,0,.93.93,0,0,0,.33.07,2.63,2.63,0,0,1-.84,0,2,2,0,0,0-1.11.16A4.16,4.16,0,0,0,223.69,76.8Z"/><path d="M215.43,79.76s5.9,1.42,7.93.46c.54-.26-.44-.67-.45-.67a22.42,22.42,0,0,0-4-.19c-.54,0-.75-.54-.61-.62a.71.71,0,0,1,.33,0c1,.06.66-.39.56-.43a5.82,5.82,0,0,0-.73-.08c-.28-.06-.5-.25-.78-.31a5.43,5.43,0,0,0-.54-.1,2,2,0,0,0-.81.43,1,1,0,0,0,.38,0,1.9,1.9,0,0,1,.73.07c.11.14-.54.56-.57.58a11.53,11.53,0,0,0-1.15.32C215.07,79.64,215.27,79.71,215.43,79.76Z"/><path d="M206,78.13h0c-.21,0-1.95.36-2.06.43C204,78.58,204.07,78.61,206,78.13Z"/><path d="M195.69,81.34l0,0h.11c.57-.15,1.11-.41,1.68-.57,1-.28,2.1-.45,3.13-.76.24-.07.24-.07.64-.44v-.06a3.36,3.36,0,0,0-.89.13c.27-.11.27-.11.36-.24l0,0h-.11c-1.17.08-1.17.08-7,2.2a3.34,3.34,0,0,0-1.46.89l0,0A16.09,16.09,0,0,0,195.69,81.34Z"/><path d="M203.52,79.28a3.36,3.36,0,0,0,1-.1c1.67-.29,2.49-.35,2.49-.35a13,13,0,0,0,1.53,0c.41-.06,2-.51,2-.51.31-.09.34-.11.38-.15a.84.84,0,0,0-.43,0c-.47.08-.92.27-1.39.36.65-.31,1.36-.5,2-.83h0a8.26,8.26,0,0,0-2.06.47c-.09.15-.45.49-1.79.34,0,0,0,0,0,0l.14-.08,0,0c.23-.12.84,0,.7-.38,0,0-3.9.44-4.08.88a12.91,12.91,0,0,0,1.9-.3,2.71,2.71,0,0,1-.87.29s.05,0,.51-.06a5.06,5.06,0,0,1,.81,0,21.84,21.84,0,0,1-2.61.38C203.45,79.08,203.4,79.22,203.52,79.28Z"/><path d="M191.46,84.23c.22.14.48,0,.71.09a.08.08,0,0,0,0,.05c-.21.25-.54.32-.77.53a14,14,0,0,0,4.45-.68,3.52,3.52,0,0,1,1-.27l0,0c-.18.16-.18.16-.2.2a4.72,4.72,0,0,0,.85.62,2.74,2.74,0,0,0,2-.58l.05,0c-.08,0-.08,0-.95.09a2,2,0,0,1,1.67-.33c.19.07.23.07.32,0s.53-.23.58-.58a.75.75,0,0,1,0-1.1,22.62,22.62,0,0,0,2.75-1.85c-.07-.07-.15-.11-.22-.17a.28.28,0,0,1,0-.09h0a16.85,16.85,0,0,1-3,1.34c.05-.41.49-.39.69-.63l-.05-.07a7.2,7.2,0,0,1-1.22.12c.16-.13.39-.17.54-.33l0,0c-.57,0-1.1.24-1.66.26a13.88,13.88,0,0,1,1.51-.59c-.32-.07-5.3,1.12-5.38,1.65a.58.58,0,0,1,.13.14c-.12.1-.13.1-.71.23-1,.2-1.05.28-1.09.4a.23.23,0,0,0,.14.07c.48.07,1-.1,1.44,0s.61.29.95.33a5.69,5.69,0,0,1-1.91.19C191.65,83.14,191.12,84,191.46,84.23Z"/><path d="M208,95.85c.13-.16,0-.21-.2-.24a2.06,2.06,0,0,0-.88,0,.68.68,0,0,0-.33.71C206.79,96.63,207.86,96.07,208,95.85Z"/><path d="M208.16,92.75a.34.34,0,0,0,.18-.07.51.51,0,0,0,0-.49c-.09-.17-.24-.31-.32-.49a6.81,6.81,0,0,0-.33-1,1.21,1.21,0,0,0-.1-.14c-.2-.25-.53-.33-.73-.58s-.05-.38-.18-.54l-.07,0a8.58,8.58,0,0,0-1.5.9c-.16.11-.35.26-.5.38l-1.35,1.09c.49.22.49.22.44.5s-.06.34,0,.35a2.17,2.17,0,0,0,.62-.19,3.94,3.94,0,0,1,2.22-.34C207.12,92.27,207.55,92.75,208.16,92.75Z"/><path d="M205.77,94.46a5.81,5.81,0,0,0-1.7,0c-.28.1-.48.56-.39.7s1.9-.09,2.3-.4C206.11,94.66,206.18,94.53,205.77,94.46Z"/><path d="M175.84,157.65c-.49,0-.48.8-.25,1s1.21.74,1.35.26C177,158.61,176.45,157.73,175.84,157.65Z"/><path d="M269.82,107.51a.32.32,0,0,0,0-.09,1.61,1.61,0,0,0-.46-.84l-.16-.13a12,12,0,0,1-1.38-.71c-.29-.25-.42-.67-.83-.79s-1,0-1.49-.06a11.4,11.4,0,0,0-1.42-.25c-.32,0-.24.41-.5.46s-.44-.29-.72-.23l-.15,0c-.22.36,0,.94-.58,1.13a6.3,6.3,0,0,1-.88-1.65c-.13-.84-1.56-1.84-2.13-1.64,0,.4.46.48.57.81-.31.48-.9.18-1.28.46.11.16.63.26.93.31.53.08,1.9,1.17.77,1.58.22.59.85.38,1.23.64s.34.44.21.83c.07.13.14.2,1.05.41a7.06,7.06,0,0,1,1,.27c.41.18.73.5,1.14.67l.17.07a7.13,7.13,0,0,0,1.62.24c1.14.12,3.15-.48,3.19-.85s-.11-.45-.1-.69C269.69,107.46,269.69,107.46,269.82,107.51Z"/><path d="M177.92,156.28c.25.76,3.06,2,3.22,1.67s-2.1-5.72-2.13-5.76a4.69,4.69,0,0,0-3.43-1.91,5.63,5.63,0,0,0-2.46.51,2.77,2.77,0,0,0,2,.22c1.28-.24,1.87.36,1.87.57s-.29.18-.57-.13l0,0c-.14.53.64,1,1.16,1.38.94.63.94.88.92,1.61a2.36,2.36,0,0,0,.11.95,1.1,1.1,0,0,1,.12.54C178.55,156.31,178.16,156.15,177.92,156.28Z"/><path d="M181.27,161.42c.24.27-.19.74.22.93.7.33,1-.69,1.62-.53a1,1,0,0,1,.35.16,28.67,28.67,0,0,0,3,1.32c.1,0,.17,0,.21-.06.13-.32,0-.69.16-1,.64-1-4.56-3.3-4.92-3.36-.09,0-.11,0-.15,0s0,.07,0,.18a1.59,1.59,0,0,1-.08,1.79c-.13,0-.53-.17-1.08-.47-1-.56-1.15-.56-1.21-.56a.17.17,0,0,0,0,.07C179.93,160.53,180.73,160.81,181.27,161.42Z"/><path d="M214.1,115.12c-.52,0,.35.89.53,1.07,1.16,1.13,1.89.6,1.9.6C216.83,116.47,214.64,115.22,214.1,115.12Z"/><path d="M167,97.21l0,0,0,0Z"/><path d="M179.84,88.08m-23.73,21c-6.83,8.33-11.51,20.3-11.51,20.3v2.34c.19.1.19.1,1.16,8.38-.25-.09-.58-.19-.83-.26.11,1,1.77,6,1.79,6.05.42-.3.85-.62.15-3.1-.32-1.12-.68-2.4-.16-7.76a4.08,4.08,0,0,1,.92,3.42,6.71,6.71,0,0,0-.06,2.08c.28,1.21.73,2.37,1.05,3.57.42,1.55,1.64,2.76,1.87,4.39.19,1.31-.61,2.7.29,4a3.39,3.39,0,0,0,.51.49,10.88,10.88,0,0,0,1,.85c1.12.75,2.31,1.39,3.44,2.12s2.75.49,3.74,1.63c2.27,2.61,2.27,2.61,3.23,3.07l.47.24c4.24,2.18,4.14,8.35,9.08,9.88,3.45-2.85,3.26,2,3,4.16-.08.69-.08.69-2.24,2.95,0,0-2.9,4.45-2.72,5.53,0,.17.07.41.11.58.77,2.94,5.06,11.74,5.09,11.8,1.12,2,3.18,3,4.45,4.84,1,1.37,1.28,3.53.91,6.07,0,.11-1.46,12.28.75,20,2.81,9.77,8.49,10.79,8.54,10.79-4.24-4.48-4.24-4.48-3-6.5-.45-1-.45-1-.49-5.24.23,0,.23,0,1.2.39,0-.11,0-.11-.58-2.16,1.19-.49,1.19-.49,1.35-1.15l.25-.09c1.45,1.1,2.47-.06,2.27-.81l-.24-.83c3.68,1.18,8.34-7.11,8.39-7.2a5.08,5.08,0,0,1,3.18-1.16c1.49-.09,2-1.6,3.25-2.11a1.31,1.31,0,0,1,1.21,0c.51.26.55.28.8-.21.54-1,.83-2.2,1.27-3.29.25-.61.11-1.38.73-1.84s1-.73.82-1.31a1.17,1.17,0,0,1,0-.37,8,8,0,0,0,5.71-3,.33.33,0,0,0,0-.13c.07-.39-.14-.76-.08-1.15.09-.59,1.09-1.08.52-1.68-.41-.42-1-.23-1.48-.51-1.47-.9-2-2.66-3.39-3.66-2-1.5-4.24-2.73-6.34-4.12-1.17-1-.74-2.55-1.26-3.73-1.08-1.41-1.61-3.27-2.78-4.62-1.54-1.78-4-2.23-5.54-4.06-1.19-1.45-1.65-3.35-3-4.7a4,4,0,0,0-.74-.55c-7.41-3.92-13.26-7-16.14-1.07-1.74-2.46-8.62-1.95-6.72-5.61a7,7,0,0,0,.75-4.29c-1.49-1.55-3.67-1.25-5.45-2,1.3-1.79,1.3-1.79,1.19-2.88a11.32,11.32,0,0,0,2.32-3.14c-.24-.43-2.42-4-5.49,2.7-1-.44-2.22.8-3.18-.32A8.81,8.81,0,0,1,157,148.9c.07-1.48,1.56-2.13,2-3.4.27-.81-.68-1.58-.07-2.4.79-1.07,3.78-2.54,4.43-2.76,1.18-.38,4.47,1.68,4.49,1.7l.41-.15c-.16-.39-.53-.64-.75-1l.22-.37c.86-.16,6.71,1.34,6.73,1.36,2,2.16-.7,5.06,1.16,7.23,3.77-1.94.25-6.07,1.77-8.83s4.85-2.49,7.22-3.84h0c-.05-.11-.1-.26-.15-.37l.17-.35.39,0,.2-.42-.3-.26,2.51-5.35c-.25.83-1.13,3.33-1.13,3.34.32-.08.32-.08,1.84-3.65a4.59,4.59,0,0,1,.24,1.37c.8-.68,1-1.86,2.06-2.34a40.25,40.25,0,0,1,4.16-.53c1.31-2.77,1.31-2.77,3.44-3.7.27.1.27.1,5.89-1l-.28.27a2.63,2.63,0,0,0,.79.47c0,.12-.1.28-.15.4-3.37,1-3.37,1-3.6,1.52,1.81.67,8.6-.62,8.48-3.51-1,.24-1.32,1.19-2,1.72-.55-.38-1-.68-1.35-1a1.51,1.51,0,0,0,.9-.27,0,0,0,0,1,0,0v0s0,0-.16,0a2.29,2.29,0,0,1-1.24-.57.64.64,0,0,1-.15-.83c0-.11,0-.13,0-.14h0a1.51,1.51,0,0,0-.42,1c-.59-.58-.58-1-.56-1.93-.57-.47-.6-.54-.76-1,1.09.07,1.87.13,2.43-.79-.34-.67-.34-.67-8.92,1.26,6.61-3.34,6.61-3.34,12.12-3.1.86,1.17,6.83.44,8.11-.7,0-.7,0-.7.64-1.48l-.06-.41c-.39-.24-.77-.48-1.17-.71l-.35-.13a5.38,5.38,0,0,0-2.67.15c0-.11,0-.27,0-.39.61-.43.83-.44,2.54-.49h0a.58.58,0,0,0,.3-.08c.13-.15-.69-1.57-2.3-1.71-.37,0-.37,0-.52-.15,0-.32.34-.55.23-.9s-.74-.57-.88-1c-.06-.2.07-.31.4-.54.48-.34.48-.34.21-1.86-.66-3.83-.66-3.83-2.13-2.46-.23.21,0,.6-.29.78s-.73-.23-1.1,0c-.82.56-.82.56-1,.56-1.07,0-1.48-1.08-2.26-1.56a3.9,3.9,0,0,1,1.55-2.18c-.43-.34-1-.28-1.47-.64-.11-.08-.15-.18-.21-.5,0-.11-.07-.36-1.15-1.19a1.05,1.05,0,0,0-.52-.26c-1.23-.09-2.34-.76-3.6-.69-.17,1.11-1.77,1.59-1.29,3-.34.45-1.06.39-1.31,1s.28,1.33.06,2c0,0-.89,2.72-2.56,2.53-.37,0-1.22-.06-1.26.56a2.12,2.12,0,0,1-.55.22c-1,1.41-.62,3.71-2.82,4.32-.26-1.05-1.15-1.63-1.73-2.45a2.73,2.73,0,0,0,.79-2.23l.56-.2c0-.07.07-.2.08-.27a2.39,2.39,0,0,0-.44-.18c-.48-1-1.59-.64-2.29-1.12s-.85-1.45-1.52-2a2.9,2.9,0,0,0-.41-.27c-.65-.36-1.33,0-2-.06-.15-.25-.15-.25.15-1.94.1-.59.1-.59-1.17-1.15.29-1.8,5.51-3.41,7.73-4.11,0-.61-.69-.57-.93-1,3.65.59,3.65.59,6.33-.8-1.41-.24-1.7-.28-2.57-1.28,1.44,0,2.81,1.37,4.3.22a.8.8,0,0,0-.32-.26s.91-.56,1.43.1c2.51,0,2.51,0,3.27-.33a1.81,1.81,0,0,0,.52-.3c.38-.31.14-.89.49-1.22s.79-.1,1.15-.28.32-.37.49-.53c0,0-1.21-2.6-2.8-.11-1.39.26-3.16,2.67-4.13.92.42-.79,2.29-.73,1.79-1.83-1,0-1.68.79-2.55,1.15,0-.51,1.33-1.38,1.34-1.39a5.89,5.89,0,0,0-.83-.34c2.17-1.75,2.17-1.75,2.27-2l-.16-.22c1.22-1,1.22-1,5.67-1.82a1.7,1.7,0,0,0-.69-.19c-3.19-.35-9.12,3.79-9.17,3.83a1.94,1.94,0,0,1,0,.24c.32.11.65.15,1,.24a1.49,1.49,0,0,1,0,.21,3.51,3.51,0,0,0-1.29.3l-.06.16h0l.18.1c-1,.86-2.52.75-3.45,1.76-.3-.67-.3-.67.93-1.31-.47-.32-.47-.32-2.61.41-.12,0-.81.2-2.85-.62-.06-.25.05-.5,0-.74-1.83-.16-2.67.64-4.35,2.23,0-.55.56-.81.67-1.3-1-.17-2,.31-2.89-.18.54-.26,1.25-.19,1.64-.76l-.12-.19c-.26.05-.31.05-.92-.24a3.07,3.07,0,0,0-.17-.42,3.42,3.42,0,0,0-1.33.36,3.79,3.79,0,0,1,.39-.31,4.22,4.22,0,0,0-.85.34,4.77,4.77,0,0,1,1.27-.92l-1.48.56s-8,5-11.15,7.86A102.41,102.41,0,0,0,156.11,109.09Z"/><path d="M188.21,164.31c-.53.15-.17.9.32,1.17a4.13,4.13,0,0,0,1.71.34s0-.23-.78-.82S188.43,164.34,188.21,164.31Z"/><path d="M278.12,130c.27-.06.53-.15.81-.19s.65.19,1,0,.26-.54.26-1.21a2.69,2.69,0,0,0-.14-.82.68.68,0,0,1,.2-.84,1.17,1.17,0,0,0,.34-.69,1.3,1.3,0,0,0-.28-.82,2.55,2.55,0,0,0-.26-.3c-.23-.23-.51-.4-.75-.63a.7.7,0,0,1-.23-.31s0,0-.05,0-2.06-.19-1.14.85a.61.61,0,0,0,.25.17.71.71,0,0,1-.2,0,3.33,3.33,0,0,0-1.36.34.77.77,0,0,0-.44.6.78.78,0,0,0,.25.57c.19.19.47.24.68.39l0,.06a8.51,8.51,0,0,0-1.13,1.54c-.24.43-.29.65-.2.89C275.8,130,277.05,130.3,278.12,130Z"/><path d="M288.14,157.22a.29.29,0,0,0,.22,0s.48-.26.49-.28-.12-.32-.52-.52-1.2-.36-1,.07A2.11,2.11,0,0,0,288.14,157.22Z"/><path d="M282.36,128.64c-.08,0-.08,0-.09.12l.53.24A1.44,1.44,0,0,0,282.36,128.64Z"/><path d="M302.75,141.27a24.21,24.21,0,0,1,2.49,5.92c-.45-2.12-1.49-7.1-2-9.19-2.53-8.33-2.58-8.49-4.45-12.78l-2.07-4.38v0c-.09-.15-.17-.3-.25-.45a20,20,0,0,0,.95,2.18,8.72,8.72,0,0,1-.51-.73,8.55,8.55,0,0,0,1,2.16l-.15,0c-1.6-2.62-2.74-5.48-4.37-8.08.89,1.1,1.41,2.46,2.44,3.46a34.05,34.05,0,0,0-4.28-7,13.49,13.49,0,0,1-1.52-2,1.88,1.88,0,0,1,.26.22,5.45,5.45,0,0,0-.55-.75l-.15,0a7.83,7.83,0,0,1-1.2-1.43,2.92,2.92,0,0,0,.29.23c0-.5-1.7-2.11-1.83-2.2a1.72,1.72,0,0,0,.2.76c-.6-.48-.7-1.34-1.3-1.82,0,.36.31.62.34,1-.45.46-.45.46-.52.81a30.39,30.39,0,0,0,.5,3.93c.55,2.25.28,2.87.25,2.94-.83,1.62-.83,1.62-2,2-.43.13-.47.25-.44.76,0,.07.45,6.81,3.14,6.56.86-.09.92-1.45.95-2.1a55.92,55.92,0,0,1,3.15,7.34c.15.75.29,1.45.93,1.68a4.94,4.94,0,0,0,.7-2.68c-.32-2,0-2.15.58-2.42.16-.4.16-.57-.76-1.79-.63-.84-.63-.84-1.12-3.06-.19-.84.83-1.47.43-2.35a15.92,15.92,0,0,1-1.07-2.43c0-.07,0-.17,0-.24l.13-.1a9.69,9.69,0,0,1,2.13,3l-.18-.05c.35,4.14.35,4.14,1.37,6.08.88,1.69,3,2.21,3.86,3.89a2.69,2.69,0,0,1-.55-.46l-.16,0c0,.18.09.36.13.55a16,16,0,0,0-2.08-1.48c.45,1.52,1.39,2.86,1.59,4.46-.85-.34-.47-1.61-1.42-1.87l-.14.11s.37,2.3.43,2.47.46,1.39.27,1.77c-.51-.23-.51-.23-.62-.24s-.22.31-.35.45a.66.66,0,0,1,.05.15h0c-2.38-1-2.38-1-2.48-.8l-.41.09a6.44,6.44,0,0,0-1.6-1.25l1.1.62a2.61,2.61,0,0,0-1.5-1.09c-.33-.1-.41-.12-.95-1.48a5.07,5.07,0,0,1-.42-3.32c.16-.39.15-2.26-.28-2.46-.05,0-1.31-.47-1.31.22a29.73,29.73,0,0,0,1.31,5.43,2.59,2.59,0,0,1,.27.82c-.08,0-.1.06-.47,0l-.85-.15a20.43,20.43,0,0,1-2.1-2.71,8,8,0,0,0-.75-1.63A4.49,4.49,0,0,0,283,125h0c.65-.27,2.07-2.23.75-2.75a4.09,4.09,0,0,0-.71-.2c-.88-.18-1-.22-1-.44.14-.44,1.19-1,.58-1.26,0,0-1.67-.55-2.12,0a.46.46,0,0,0,0,.2c-.1.55.11,1.09,0,1.64s-.55.74-.54,1.23c.12.1.41.16,1.14-.07.27-.09.51-.16.62,0,.48.54-.43.94-.4,1.48a2,2,0,0,0,1.09,1.78c.88.59,1,.67,1.13.85,0,.17-.17.29-.14.47.1.56.45,1,.51,1.6s-.57,0-.94-.33c-.16-.15-.16-.15-.69-.39,0,.71.6,1.27.5,2,0,.4-.46.47-1,.53-.16,0-.39,0-.37.22s.14.42,1.33.8c.5.16,1.53.49,1.46.83a2.41,2.41,0,0,0-.89-.08.5.5,0,0,0,0,.13.75.75,0,0,0-.44.07c-.34.14-.5.49-.81.66s-.82.27-1.21.47c0,0,0,.07,0,.1s.14.09,1.33.35a2.21,2.21,0,0,1-.36.51c-1.22-.5-1.37-.72-1.77-1.3a7.43,7.43,0,0,0,.23.93l-.27.36a6.15,6.15,0,0,1-1,0c-.47-.6-.47-.6-1.43-1l-.31.31.56,1-.42.13c5.26,3.66,2.29,9.19,2.24,9.23-2.65-1.15-5-2.88-7.58-4.1a4.76,4.76,0,0,0,.27.91c0,.07-2.27,7.4-1.43,8a25.25,25.25,0,0,1-1.16,2.33,9.9,9.9,0,0,1,3.09,1.09,12.89,12.89,0,0,0-.13,1.42l4.93.09c1.28.27,2.12-1.17,1.83-2.44,1.72-2.65,1.76-2.66,3.83-2.73.85-2.34.85-2.34,1.11-2.43,1.09-.41,1.35.95,2.14,1.23,1.16-1,2.05-1.64,2.83-.28a99.23,99.23,0,0,1,3.34,9.67,1.55,1.55,0,0,0-.19,1c.08.2.41.23.37.53s-.22.48-.24.75a.37.37,0,0,0,.17.35l.1,0c-.19.82-.76.7-2.94.26a13.77,13.77,0,0,0,1.31,3c.47-.63.27-1.46.65-2.12l.37.19c.49-.37.83-.9,1.31-1.3v-.07a.87.87,0,0,0,.55-.5,2.5,2.5,0,0,0,.07-.26c.06-.3,0-.6.1-.9a.14.14,0,0,1,0-.06c.07.25.16.54.23.76a2,2,0,0,0-.12-1.17,3.45,3.45,0,0,0,.12-.46c.1-.5-.05-.61-.21-.69a1,1,0,0,0-.32,0c-.16-.42-.34-.92-.58-1.56l.21-.33a.85.85,0,0,0,0,.17s.38,1,.42,1,.45-1.22.53-1.87a7.14,7.14,0,0,0,.05-.93l1,2.65s0,0,0,5.74l.37,5a6.45,6.45,0,0,0,.34-.82,15.94,15.94,0,0,0,.45-3.16c.48-3.42.48-3.42.88-3.54a3.23,3.23,0,0,1,1.4,2.47,5.29,5.29,0,0,0,.61-.64l.43.13c1.41-2.78.22-6,1.6-8.8a1.22,1.22,0,0,1,.73.3l-.29.31a3.32,3.32,0,0,0,.66,1.12,2.22,2.22,0,0,1-.47,1.3,17.8,17.8,0,0,1,.38,1.76c1.69-.32.1-2.49.93-3.52.67.08.7.33.72.87l-.34.3a4.75,4.75,0,0,1,0,1.8l-.35.25c.14,2.85,1.75,5.59.61,8.53l-.42.07c-.92-1.24.08-3.89-2.06-4.07a1.36,1.36,0,0,1-.55.61c-.2-.16-.49-.36-.71-.5a1.59,1.59,0,0,0,.15.8c-.59.22-1.11-.22-1.69-.15a5.24,5.24,0,0,0-.36.88l.33.24c-.33,1.55-.93,4.45.36,6.64l.38-.19.13-.41c.42.71.32,1.62.87,2.28a3.52,3.52,0,0,0,.46-.74,2.29,2.29,0,0,0,.51.68c-1.68,5.74-1.93,6.63-3.08,7.93-.79-.35-.86-.57-.84-1.46a1.25,1.25,0,0,0-.79.05c-2.63-1.14-1-5-3.8-6-.85.75-.82,2-1.52,2.81l-.44,0c-.43-.63-4.63-8.42-4.82-9.31-.05-.28.28-.63.5-.8.52-.42.52-.42,1.43-3.84a12.71,12.71,0,0,0-.95-1.16c-.69.23-.69.23-2.77-1.09a4.32,4.32,0,0,0-.79.49c-2.53-2.18-6,.2-8.6-1.83l-.42-.18c-.88-.13-1.18-.17-1.7-1.56-.13-.17-.13-.17-.14-.17a4.89,4.89,0,0,0-.48.2c-.78.48-.7,1.58-1.47,2.06-1,.61-2.22.15-3.15.85-.28.21-.37.72-.5,1-1.43,3.48-1.43,3.48-2.54,3.61a11,11,0,0,0-3.16,1c-.84.67-7.13,6.08-7.13,6.09-.8,1.75-.14,3.7-.73,5.49-.5,1.49-2.87,1.45-2.8,3.41.1,2.94.65,5.82,1,8.73.13,1.22,2.63,6.14,3.37,6.32,3.65.91,7.54.78,11,2.44a.7.7,0,0,1,.28.31c.46.77-.35,1.6.09,2.38s1.35.78,2,1.25c0,1.57,0,1.57-1.08,2.72-2.93,3.21-2.93,3.21-3.06,4.37-.21,1.84-.5,4.36-4.47,8.71-1.83,2-4.36,3.06-6.43,4.73s-2.91,3.91-4.76,5.53c-7.19,6.33-7.37,6.41-8.33,6.9a5.23,5.23,0,0,0-1.92,1.46c2,1.5,5.32.62,6.41.34l4.38-1.24,5.68-2c1.37-.69,2.45-1.84,3.87-2.46,1.62-.7,3.45-.68,5.07-1.41,3.87-1.75,8.49-6.3,9-6.89,2.08-2.34,7.39-5.18,8.95-6,2.48-1.35,6.7-5.71,8-7.53-.4-.31-.4-.31-1.26-.42-.09-.31-.09-.31,1.42-3.44a27.28,27.28,0,0,0,1.11-3.64c1-3.14,2.73-6,3.54-9.24l2.63-10.11c.09.37.09.37-.2,1.87a1.75,1.75,0,0,0,.72-.63c-.59,8.12-5.34,14.8-7.71,22.3,1-.09,1-.09,1.29.11,3.77-3.88,3.77-3.88,4.09-4.44l-.23.42c.14-.23.31-.54.44-.77l.13-.25.84-1.63c.37-.75.84-1.69,2-4.3-.06.14-.1.28-.16.4.92-2.27,2.09-5.1,2.85-7.32s1.61-5.34,2.17-7.66c.13-.71.26-1.36.38-2,.08-2,.14-2.27,1.3-8.94a.31.31,0,0,0,0,.09c.43-9.48.43-9.48.53-9.91,0,0,0,0,0,.05a51.45,51.45,0,0,0,.05-7.14L304.74,145A11.59,11.59,0,0,0,302.75,141.27Zm-15.94-10.51s.05,0,.37.2l-.41-.15h0Zm7.78,22.71,0,.05a5.22,5.22,0,0,0-.25.88.65.65,0,0,1-.43.44.28.28,0,0,0-.2.23v0c-.82-.77-1.46-1.45-2.19-7.63a1.43,1.43,0,0,1,.77-.29l2.39,6.21S294.62,153.42,294.59,153.47Z"/></g><circle class="cls-6" cx="259.25" cy="182.88" r="4.2"/><circle class="cls-6" cx="288.7" cy="119.08" r="3.1"/><path class="cls-6" d="M161.31,129.54a3.94,3.94,0,0,1-1.53.46,3.88,3.88,0,0,1-1.59.14,3.79,3.79,0,0,1,1.53-.46A3.88,3.88,0,0,1,161.31,129.54Z"/><path class="cls-6" d="M173.7,127.89a15.61,15.61,0,0,1-3.09.52,15,15,0,0,1-3.13.18,14.87,14.87,0,0,1,3.09-.51A14.68,14.68,0,0,1,173.7,127.89Z"/><path class="cls-6" d="M186.18,127.32a15.43,15.43,0,0,1-3.12.23,14.81,14.81,0,0,1-3.13-.1,15.33,15.33,0,0,1,3.12-.23A14.69,14.69,0,0,1,186.18,127.32Z"/><path class="cls-6" d="M198.64,128.27a18.4,18.4,0,0,1-3.12-.26,19.44,19.44,0,0,1-3.09-.45,12.17,12.17,0,0,1,3.13.12A13,13,0,0,1,198.64,128.27Z"/><path class="cls-6" d="M210.67,131.62a18.18,18.18,0,0,1-3-.91,19.36,19.36,0,0,1-2.94-1.08,11.66,11.66,0,0,1,3,.77A12.64,12.64,0,0,1,210.67,131.62Z"/><path class="cls-6" d="M221.83,137.23a19,19,0,0,1-2.77-1.45,18,18,0,0,1-2.68-1.62,20.93,20.93,0,0,1,5.45,3.07Z"/><path class="cls-6" d="M231.84,144.69a18,18,0,0,1-2.49-1.89,16.64,16.64,0,0,1-2.36-2.05,13.37,13.37,0,0,1,2.57,1.8A13.1,13.1,0,0,1,231.84,144.69Z"/><path class="cls-6" d="M240.61,153.59a15.22,15.22,0,0,1-2.23-2.19,15.68,15.68,0,0,1-2-2.41,13.86,13.86,0,0,1,2.24,2.19A14.58,14.58,0,0,1,240.61,153.59Z"/><path class="cls-6" d="M248.17,163.56a14.91,14.91,0,0,1-1.95-2.45,15.15,15.15,0,0,1-1.68-2.65,29.25,29.25,0,0,1,3.63,5.1Z"/><path class="cls-6" d="M254.52,174.32a15.68,15.68,0,0,1-1.66-2.65,16,16,0,0,1-1.37-2.82,14,14,0,0,1,1.66,2.66A14.82,14.82,0,0,1,254.52,174.32Z"/><path class="cls-6" d="M258,179.74c.05,0,.14.34.24.91l.17,1,.08.59.05.31,0,.16v.14h0c.28-.08-.39.1-.32.08a14.92,14.92,0,0,1-1-3,15.63,15.63,0,0,1,1.36,2.88l-.32.08h0v-.14l0-.16,0-.31-.06-.6c0-.33-.07-.67-.1-1A2.81,2.81,0,0,1,258,179.74Z"/><path class="cls-6" d="M257.19,168.08a25.94,25.94,0,0,1,.29,5.84,13.2,13.2,0,0,1-.31-2.91A12.46,12.46,0,0,1,257.19,168.08Z"/><path class="cls-6" d="M257.37,156.38a13.5,13.5,0,0,1,.05,2.93,13.06,13.06,0,0,1-.28,2.92,12.69,12.69,0,0,1-.05-2.93A13,13,0,0,1,257.37,156.38Z"/><path class="cls-6" d="M258.9,144.79a14.34,14.34,0,0,1-.32,2.91,13.38,13.38,0,0,1-.65,2.86,25.73,25.73,0,0,1,1-5.77Z"/><path class="cls-6" d="M262.46,133.67a17.46,17.46,0,0,1-1,2.75,18.11,18.11,0,0,1-1.11,2.71,16.59,16.59,0,0,1,2.1-5.46Z"/><path class="cls-6" d="M269.28,124.26c.06.07-.89,1-2,2.17a25.88,25.88,0,0,1-1.94,2.18,8.74,8.74,0,0,1,1.7-2.4A8.35,8.35,0,0,1,269.28,124.26Z"/><path class="cls-6" d="M279.7,119.28a27.45,27.45,0,0,1-2.78.86c-1.53.49-2.73,1-2.77.92a8.11,8.11,0,0,1,2.67-1.23A8.24,8.24,0,0,1,279.7,119.28Z"/><path class="cls-6" d="M288.7,119.08a3.83,3.83,0,0,1-1.59,0,3.9,3.9,0,0,1-1.57-.28,7.67,7.67,0,0,1,3.16.23Z"/><path class="cls-6" d="M163.33,130.14a4.2,4.2,0,1,1-4.2-4.2A4.2,4.2,0,0,1,163.33,130.14Z"/><circle class="cls-6" cx="81.67" cy="142.47" r="19.71" transform="translate(-65.41 215.5) rotate(-86.59)"/><g class="cls-9"><path class="cls-4" d="M83,122.8a19.7,19.7,0,0,0-21,18.37s13.78,1.53,17.47-3.82S83,122.8,83,122.8Z"/></g><path class="cls-6" d="M96.33,143.12a15,15,0,1,1-14-15.94A15,15,0,0,1,96.33,143.12Z"/><g class="cls-10"><path d="M96.33,143.12a15,15,0,1,1-14-15.94A15,15,0,0,1,96.33,143.12Z"/></g><path class="cls-6" d="M96.71,143.77a14.78,14.78,0,1,1-13.78-15.72A14.78,14.78,0,0,1,96.71,143.77Z"/><g class="cls-10"><path class="cls-4" d="M96.71,143.77a14.78,14.78,0,1,1-13.78-15.72A14.78,14.78,0,0,1,96.71,143.77Z"/></g><path class="cls-4" d="M64.31,150.59l-.08-.16c0-.12-.12-.27-.21-.46s-.19-.45-.3-.75-.23-.63-.34-1c-.05-.19-.11-.39-.17-.6s-.1-.43-.16-.66c-.12-.45-.19-.94-.28-1.46A19.37,19.37,0,0,1,63,138.7c.11-.51.21-1,.35-1.44.07-.23.12-.45.19-.65s.14-.4.21-.59c.12-.38.27-.7.39-1s.24-.54.34-.74.17-.33.23-.45l.09-.15s0,.06-.06.16l-.21.47c-.09.2-.2.44-.31.74s-.26.62-.37,1l-.2.58-.18.65c-.13.44-.23.93-.34,1.44a20.42,20.42,0,0,0-.18,6.74c.09.52.16,1,.27,1.46,0,.22.09.44.15.65s.11.41.16.6c.1.38.23.71.32,1s.19.55.28.76.13.35.18.47S64.32,150.59,64.31,150.59Z"/><path class="cls-4" d="M83.74,126.89a2.62,2.62,0,0,1-.48-.06l-.56-.06c-.22,0-.47,0-.75-.06s-.57,0-.9,0-.67,0-1,0a16.24,16.24,0,0,0-2.35.34,17.23,17.23,0,0,0-2.26.7c-.34.14-.66.27-1,.41s-.56.28-.81.41L73,129l-.48.3-.41.26a2.18,2.18,0,0,1,.38-.3c.12-.1.28-.21.46-.33s.4-.26.64-.39.51-.29.8-.43.62-.28,1-.43a15.71,15.71,0,0,1,2.28-.71,15.2,15.2,0,0,1,2.37-.34c.37,0,.72,0,1,0s.63,0,.91,0a7.21,7.21,0,0,1,.75.08,5.5,5.5,0,0,1,.56.09A3.07,3.07,0,0,1,83.74,126.89Z"/><path class="cls-4" d="M82.84,161.27a1.72,1.72,0,0,1-.36.08c-.23,0-.57.07-1,.1a14.08,14.08,0,0,1-6.41-1.09c-.39-.16-.69-.31-.9-.42a1.13,1.13,0,0,1-.31-.19l.34.14.91.38a16.16,16.16,0,0,0,3.12.86,16.58,16.58,0,0,0,3.24.22l1-.06A1.94,1.94,0,0,1,82.84,161.27Z"/><path class="cls-6" d="M361.27,116.63a17.16,17.16,0,1,1-16-18.25A17.16,17.16,0,0,1,361.27,116.63Z"/><g class="cls-9"><path class="cls-4" d="M345.27,98.38a17.16,17.16,0,0,0-18.25,16s12,1.33,15.21-3.33S345.27,98.38,345.27,98.38Z"/></g><path class="cls-6" d="M356.91,116.07a13,13,0,1,1-12.16-13.87A13,13,0,0,1,356.91,116.07Z"/><g class="cls-10"><path d="M356.91,116.07a13,13,0,1,1-12.16-13.87A13,13,0,0,1,356.91,116.07Z"/></g><path class="cls-6" d="M357.24,116.64a12.87,12.87,0,1,1-12-13.69A12.88,12.88,0,0,1,357.24,116.64Z"/><g class="cls-10"><path class="cls-4" d="M357.24,116.64a12.87,12.87,0,1,1-12-13.69A12.88,12.88,0,0,1,357.24,116.64Z"/></g><path class="cls-4" d="M329,122.58l-.07-.14c0-.1-.11-.24-.18-.4s-.17-.4-.26-.65-.21-.55-.3-.89c-.05-.16-.1-.34-.15-.52s-.09-.37-.14-.57c-.1-.39-.16-.82-.24-1.27a17.26,17.26,0,0,1,.15-5.91c.1-.45.19-.87.31-1.26.06-.2.11-.39.17-.56l.18-.52c.11-.32.24-.61.34-.86a5.67,5.67,0,0,1,.3-.64l.2-.39c0-.09.07-.14.08-.14l-.06.15-.18.4c-.08.18-.18.39-.27.65s-.23.54-.33.86c-.05.17-.11.34-.17.51s-.1.37-.15.57c-.12.38-.2.81-.3,1.25a18.5,18.5,0,0,0-.32,2.93,18.26,18.26,0,0,0,.17,2.94c.07.45.13.88.23,1.27,0,.2.08.39.13.57s.09.35.14.52a9.22,9.22,0,0,0,.28.88,6,6,0,0,0,.24.66l.15.41C329,122.53,329,122.58,329,122.58Z"/><path class="cls-4" d="M345.94,101.94a3,3,0,0,1-.41,0c-.14,0-.3-.05-.49-.06a5.94,5.94,0,0,0-.65,0c-.24,0-.5,0-.78,0s-.59,0-.9,0a14.71,14.71,0,0,0-2,.3,15.27,15.27,0,0,0-2,.61c-.29.12-.57.23-.83.36l-.7.36c-.21.1-.39.22-.56.32a4.27,4.27,0,0,0-.41.26l-.36.22a1.84,1.84,0,0,1,.33-.26c.11-.08.24-.18.4-.28s.35-.23.56-.34.44-.25.7-.38.53-.24.83-.37a12.27,12.27,0,0,1,2-.62,14.84,14.84,0,0,1,2.06-.3c.32,0,.62,0,.91,0s.55,0,.79,0a5.63,5.63,0,0,1,.65.07,4,4,0,0,1,.48.08A2.1,2.1,0,0,1,345.94,101.94Z"/><path class="cls-4" d="M345.16,131.88l-.31.06a6.5,6.5,0,0,1-.86.09,12.16,12.16,0,0,1-2.84-.15,13.09,13.09,0,0,1-2.74-.79c-.33-.15-.6-.27-.78-.37a1.34,1.34,0,0,1-.27-.17l.29.12c.19.09.46.2.8.33a13.88,13.88,0,0,0,2.72.76,14.16,14.16,0,0,0,2.82.18c.36,0,.65,0,.86-.05Z"/><path class="cls-6" d="M213.48,235.89a18.45,18.45,0,1,1-17.2-19.63A18.44,18.44,0,0,1,213.48,235.89Z"/><g class="cls-9"><path class="cls-4" d="M196.28,216.26a18.46,18.46,0,0,0-19.63,17.21s12.91,1.43,16.36-3.58S196.28,216.26,196.28,216.26Z"/></g><path class="cls-6" d="M208.8,235.29a14,14,0,1,1-13.08-14.92A14,14,0,0,1,208.8,235.29Z"/><g class="cls-10"><path d="M208.8,235.29a14,14,0,1,1-13.08-14.92A14,14,0,0,1,208.8,235.29Z"/></g><path class="cls-6" d="M209.15,235.89a13.84,13.84,0,1,1-12.9-14.71A13.84,13.84,0,0,1,209.15,235.89Z"/><g class="cls-10"><path class="cls-4" d="M209.15,235.89a13.84,13.84,0,1,1-12.9-14.71A13.84,13.84,0,0,1,209.15,235.89Z"/></g><path class="cls-4" d="M178.82,242.29s0,0-.08-.15l-.19-.44a5.64,5.64,0,0,1-.28-.7,9.54,9.54,0,0,1-.32-.95c0-.18-.11-.36-.17-.56s-.09-.4-.14-.61c-.11-.42-.18-.89-.26-1.37a20,20,0,0,1-.2-3.19,20.31,20.31,0,0,1,.36-3.17c.11-.48.2-.93.33-1.35.07-.21.12-.42.18-.61s.13-.37.2-.55c.11-.35.25-.65.36-.93a6.39,6.39,0,0,1,.32-.68l.22-.43.08-.14s0,0-.06.15l-.19.44c-.09.19-.19.42-.29.69s-.24.58-.35.94l-.19.55c-.06.19-.11.39-.17.6-.12.42-.21.87-.31,1.35a18.92,18.92,0,0,0-.17,6.31c.08.48.15.94.25,1.36.05.21.08.42.14.62l.15.55c.09.36.21.68.3.95s.18.52.26.71.12.33.17.45A.67.67,0,0,1,178.82,242.29Z"/><path class="cls-4" d="M197,220.09l-.44-.05L196,220a6.55,6.55,0,0,0-.69,0,7.72,7.72,0,0,0-.85,0c-.3,0-.63,0-1,0a15.44,15.44,0,0,0-2.19.32,15.15,15.15,0,0,0-2.12.66c-.32.13-.62.25-.89.38s-.53.26-.76.39a6.37,6.37,0,0,0-.6.35c-.18.1-.33.2-.45.28a2.35,2.35,0,0,1-.38.23,3,3,0,0,1,.35-.28c.12-.09.26-.19.44-.3s.37-.24.6-.37.47-.27.75-.4.57-.26.89-.4a15.43,15.43,0,0,1,2.14-.67,15.7,15.7,0,0,1,2.21-.32c.35,0,.68,0,1,0s.59,0,.85,0a6.18,6.18,0,0,1,.7.08,4.46,4.46,0,0,1,.52.08A2.86,2.86,0,0,1,197,220.09Z"/><path class="cls-4" d="M196.16,252.29a1.29,1.29,0,0,1-.33.06,7.33,7.33,0,0,1-.92.1,13.56,13.56,0,0,1-3.06-.16,13.07,13.07,0,0,1-2.94-.86,7.66,7.66,0,0,1-.84-.4,1.52,1.52,0,0,1-.3-.17,1.48,1.48,0,0,1,.32.13l.85.35a14.93,14.93,0,0,0,6,1c.39,0,.71,0,.92,0A1.26,1.26,0,0,1,196.16,252.29Z"/><circle class="cls-6" cx="145.54" cy="95.25" r="28.09" transform="translate(-6.99 11.66) rotate(-4.48)"/><g class="cls-9"><path class="cls-4" d="M147.38,67.21A28.1,28.1,0,0,0,117.51,93.4s19.64,2.18,24.9-5.44S147.38,67.21,147.38,67.21Z"/></g><path class="cls-6" d="M166.44,96.17a21.36,21.36,0,1,1-19.91-22.71A21.35,21.35,0,0,1,166.44,96.17Z"/><g class="cls-10"><path d="M166.44,96.17a21.36,21.36,0,1,1-19.91-22.71A21.35,21.35,0,0,1,166.44,96.17Z"/></g><path class="cls-6" d="M167,97.1a21.07,21.07,0,1,1-19.64-22.4A21.06,21.06,0,0,1,167,97.1Z"/><g class="cls-10"><path class="cls-4" d="M167,97.1a21.07,21.07,0,1,1-19.64-22.4A21.06,21.06,0,0,1,167,97.1Z"/></g><path class="cls-4" d="M120.81,106.83a1.09,1.09,0,0,1-.12-.23c-.08-.17-.17-.39-.3-.66a10.45,10.45,0,0,1-.42-1.07c-.15-.42-.34-.9-.49-1.44-.08-.27-.16-.56-.25-.85s-.14-.62-.22-.94c-.17-.64-.27-1.35-.4-2.08a30.88,30.88,0,0,1-.3-4.85,31.77,31.77,0,0,1,.55-4.83c.17-.73.31-1.42.51-2.06.09-.32.17-.63.27-.92l.29-.84c.18-.54.39-1,.56-1.41A10.82,10.82,0,0,1,121,83.6l.33-.65c.07-.14.12-.22.12-.22s0,.09-.09.24l-.29.67c-.13.28-.29.63-.45,1s-.36.88-.53,1.42l-.28.84c-.09.29-.16.6-.25.92-.2.63-.33,1.32-.49,2a31.46,31.46,0,0,0-.53,4.79,31.83,31.83,0,0,0,.28,4.82c.12.73.22,1.43.38,2.07.07.33.13.64.21.94s.16.57.23.85c.14.54.32,1,.46,1.44a11.44,11.44,0,0,0,.39,1.08l.26.68A1.74,1.74,0,0,1,120.81,106.83Z"/><path class="cls-4" d="M148.49,73a3.39,3.39,0,0,1-.68-.07c-.22,0-.49-.07-.8-.09s-.67-.08-1.06-.09-.82,0-1.29,0-.95,0-1.47,0a23.86,23.86,0,0,0-3.34.49,24.64,24.64,0,0,0-3.23,1c-.48.2-.94.38-1.35.59s-.81.4-1.15.58-.65.38-.92.53-.5.31-.68.43a4.77,4.77,0,0,1-.59.36,5.85,5.85,0,0,1,.54-.43c.18-.13.4-.29.67-.45s.56-.38.91-.57.72-.41,1.14-.61.87-.4,1.36-.61a21.81,21.81,0,0,1,3.25-1,22.88,22.88,0,0,1,3.38-.48c.52,0,1-.05,1.48,0s.9,0,1.3.06.75.07,1.06.11.58.08.8.13A4.75,4.75,0,0,1,148.49,73Z"/><path class="cls-4" d="M147.21,122.05a2.06,2.06,0,0,1-.51.1,13.64,13.64,0,0,1-1.4.15,20.07,20.07,0,0,1-9.14-1.55c-.55-.23-1-.44-1.28-.6a2.35,2.35,0,0,1-.44-.27,3,3,0,0,1,.48.19c.3.14.75.33,1.3.54a22.86,22.86,0,0,0,4.46,1.24,23.57,23.57,0,0,0,4.61.31l1.4-.09Z"/><circle class="cls-6" cx="375.12" cy="180.51" r="30.5" transform="translate(-40.71 160.89) rotate(-23)"/><g class="cls-9"><path class="cls-4" d="M375.37,150a30.5,30.5,0,0,0-30.75,30.25s21.43,1.14,26.65-7.45S375.37,150,375.37,150Z"/></g><path class="cls-6" d="M397.83,180.22a23.19,23.19,0,1,1-23-23.38A23.18,23.18,0,0,1,397.83,180.22Z"/><g class="cls-10"><path d="M397.83,180.22a23.19,23.19,0,1,1-23-23.38A23.18,23.18,0,0,1,397.83,180.22Z"/></g><path class="cls-6" d="M398.48,181.19a22.88,22.88,0,1,1-22.69-23.07A22.89,22.89,0,0,1,398.48,181.19Z"/><g class="cls-10"><path class="cls-4" d="M398.48,181.19a22.88,22.88,0,1,1-22.69-23.07A22.89,22.89,0,0,1,398.48,181.19Z"/></g><path class="cls-4" d="M349,194.61a1,1,0,0,1-.14-.24c-.1-.18-.22-.41-.36-.7a11.31,11.31,0,0,1-.53-1.13c-.19-.45-.43-.95-.62-1.54l-.32-.9c-.11-.32-.2-.66-.31-1-.21-.69-.37-1.44-.56-2.24a32.89,32.89,0,0,1-.62-5.23,33.84,33.84,0,0,1,.29-5.27c.14-.8.25-1.57.42-2.27.09-.35.15-.69.24-1s.18-.63.27-.93c.15-.59.36-1.11.52-1.57a9.33,9.33,0,0,1,.46-1.16l.31-.72a1.24,1.24,0,0,1,.13-.25,1.09,1.09,0,0,1-.08.26c-.08.2-.17.44-.28.74s-.28.71-.42,1.17-.34,1-.49,1.58c-.08.29-.16.6-.25.92s-.14.66-.22,1c-.17.7-.27,1.46-.4,2.26a34.76,34.76,0,0,0-.27,5.23,32.58,32.58,0,0,0,.6,5.2c.17.79.33,1.54.54,2.23.1.34.18.68.28,1l.31.91c.18.58.41,1.09.58,1.54s.35.84.5,1.14.23.54.32.72S349,194.61,349,194.61Z"/><path class="cls-4" d="M376.93,156.26a5.82,5.82,0,0,1-.74,0l-.87-.05c-.34,0-.73,0-1.15,0s-.9,0-1.4,0-1,.09-1.6.15a26.72,26.72,0,0,0-3.59.74,27.87,27.87,0,0,0-3.44,1.28c-.5.25-1,.47-1.43.73s-.84.47-1.2.7-.69.44-1,.63-.52.36-.71.51a4.88,4.88,0,0,1-.61.42,5.76,5.76,0,0,1,.56-.49,8.43,8.43,0,0,1,.69-.54c.28-.2.58-.44.95-.67s.76-.49,1.2-.73.93-.49,1.43-.75a25.39,25.39,0,0,1,3.47-1.31,24.05,24.05,0,0,1,3.63-.73c.57,0,1.1-.11,1.61-.12a13.55,13.55,0,0,1,1.41,0c.43,0,.82,0,1.16,0s.63.06.87.09A4,4,0,0,1,376.93,156.26Z"/><path class="cls-4" d="M378.6,209.47a3.93,3.93,0,0,1-.55.14c-.35.08-.87.17-1.51.25a22.18,22.18,0,0,1-10-1.11,15.3,15.3,0,0,1-1.42-.58,2,2,0,0,1-.5-.26,3.05,3.05,0,0,1,.53.18c.34.13.83.31,1.44.5a25.38,25.38,0,0,0,4.91,1.07,25.68,25.68,0,0,0,5,0c.64-.06,1.16-.12,1.52-.18A2.14,2.14,0,0,1,378.6,209.47Z"/><path class="cls-11" d="M216.45,264.27a7,7,0,0,1,4-.69c1.88.41,8.73,4.88,8.73,4.88l9.62-1.8,3.1,17.29-25.47,8Z"/><path class="cls-12" d="M199.62,269.35s5.84-.27,7.62-1.17,6-4.67,6.94-4.6,4.12.69,4.12.69l-1.3,3.91s6.45,3.92,8.38,5.36,8,7.9,8.24,9.48-.21,3.43-1,4.05-3.51-.62-3.51-.62a3.42,3.42,0,0,1-.61,2.82c-1,1.37-3.44.89-3.44.89s-.21,2.27-1.3,2.68-3.58-.82-3.58-.82-.74,1.92-1.64,2.13-3.44-1.31-3.44-1.31-13.22-8.85-15.69-10l-1.16,1.56Z"/><path class="cls-13" d="M220.22,292c-.05,0-.08-.2-.19-.49a9.58,9.58,0,0,0-.56-1.09,8,8,0,0,1-.85-1.57,3.94,3.94,0,0,1,1.14,1.4,4.15,4.15,0,0,1,.49,1.2C220.32,291.8,220.27,292,220.22,292Z"/><path class="cls-13" d="M224.79,290.68a17,17,0,0,1-1.39-2.07c-.75-1.15-1.55-1.91-1.49-2a4.84,4.84,0,0,1,1.77,1.79A6.78,6.78,0,0,1,224.79,290.68Z"/><path class="cls-13" d="M229.2,286.72c-.1,0-.4-1.17-1.16-2.45s-1.64-2.14-1.57-2.21a5.24,5.24,0,0,1,1.85,2A5.35,5.35,0,0,1,229.2,286.72Z"/><path class="cls-13" d="M226,278.14a6.19,6.19,0,0,1,.17,3.71A8,8,0,0,1,226,280,8.94,8.94,0,0,1,226,278.14Z"/><path class="cls-11" d="M210,272s1.72-5.5,2.33-6.18,6.37-2.2,6.37-2.2l1.78,4.6-1.28,1.35-2.74-.18A4.71,4.71,0,0,1,210,272Z"/><path class="cls-11" d="M199.45,282.83s-.79.6,0,2,2.91.42,3.6,0c0,0-1,2.41.28,3.16a5.07,5.07,0,0,0,2.88.55A2.81,2.81,0,0,0,208,291c1.85,1,2.33,0,2.33,0s.21,2.4,2.34,2.61,2.88-.53,2.88-.53l-1-1.42s1.24-2.52.28-3.62a3.31,3.31,0,0,0-2.55-1s.43-2.23-.8-2.85a2.25,2.25,0,0,0-3.25,1s-.14-2.45-1.92-2.39A4,4,0,0,0,203.6,284Z"/><path class="cls-14" d="M208.27,285.22a5.18,5.18,0,0,1-.82,1.83,5.07,5.07,0,0,1-1.2,1.6,7.25,7.25,0,0,1,.92-1.77A7.43,7.43,0,0,1,208.27,285.22Z"/><path class="cls-14" d="M212.37,287.38a4.85,4.85,0,0,1-.94,1.9,5,5,0,0,1-1.43,1.56,68.88,68.88,0,0,1,2.37-3.46Z"/><path class="cls-5" d="M287.21,152.48a5.15,5.15,0,0,1-2.37-10,5.35,5.35,0,0,1,4.49-9.12,6.41,6.41,0,0,1,9.56-5.43,7.2,7.2,0,0,1,8.87-.35,5.12,5.12,0,0,1,4.69,8.6"/><path class="cls-11" d="M286.48,153.21a21.83,21.83,0,0,1,21.35-20.52l1.13,0c12.21.46,18.64,11.09,17.84,23.28l.72,43.49h0l-29.66,10.65-.26-15.67s-11.76-1.58-12.14-13.3C285.27,175.46,285.84,163.78,286.48,153.21Z"/><path class="cls-14" d="M297.5,194.41a28.41,28.41,0,0,0,15.27-4.81s-3.44,8.51-15.16,7.69Z"/><path class="cls-5" d="M289.77,163.81a1.67,1.67,0,0,0,1.65,1.66,1.6,1.6,0,0,0,1.69-1.55,1.69,1.69,0,0,0-1.65-1.66A1.6,1.6,0,0,0,289.77,163.81Z"/><path class="cls-5" d="M289.11,158.9c.21.21,1.46-.75,3.26-.79s3.14.85,3.33.62-.12-.49-.71-.89a4.53,4.53,0,0,0-2.67-.77,4.39,4.39,0,0,0-2.59.9C289.19,158.4,289,158.8,289.11,158.9Z"/><path class="cls-5" d="M306.18,163.81a1.67,1.67,0,0,0,1.64,1.66,1.6,1.6,0,0,0,1.7-1.55,1.68,1.68,0,0,0-1.65-1.65A1.59,1.59,0,0,0,306.18,163.81Z"/><path class="cls-5" d="M306.82,158.87c.21.22,1.46-.75,3.26-.78s3.14.84,3.33.62-.12-.49-.71-.9a4.53,4.53,0,0,0-2.67-.76,4.46,4.46,0,0,0-2.59.89C306.9,158.38,306.72,158.78,306.82,158.87Z"/><path class="cls-5" d="M300.56,172.36a12.46,12.46,0,0,0-2.94-.47c-.46,0-.9-.12-1-.43a2.32,2.32,0,0,1,.28-1.37l1.29-3.53c1.78-5,3.07-9.15,2.86-9.22s-1.81,3.94-3.6,9l-1.23,3.55a2.67,2.67,0,0,0-.2,1.81,1.13,1.13,0,0,0,.77.65,2.92,2.92,0,0,0,.78.1A11.86,11.86,0,0,0,300.56,172.36Z"/><path class="cls-5" d="M306.15,152.75c.25.45,1.78-.07,3.68-.17s3.5.18,3.67-.3c.07-.23-.28-.63-1-1a5.74,5.74,0,0,0-2.86-.54,5.44,5.44,0,0,0-2.74.9C306.31,152.09,306,152.54,306.15,152.75Z"/><path class="cls-5" d="M288.76,152.53c.39.4,1.87-.06,3.66-.11s3.3.2,3.64-.23c.15-.21-.1-.62-.77-1a6.18,6.18,0,0,0-5.88.27C288.79,151.9,288.59,152.33,288.76,152.53Z"/><path class="cls-5" d="M287.49,147.82s2.94-7.41,6.45-9.19c4.24-2.16,6.18,2.5,10.24,1.28s8.11-3.3,12.35-.23c4.63,3.36,2.54,5.83,2.93,11,1.57,21,5.55,26.94,6.44,17,.1-1.09,3.1-2,3.45-6.63.46-6,.54-13.21-.87-17.41-1.2-3.55-3.28-6-7-8.61-5.84-4.17-13.75-4.1-19.1-3.45S286.82,138.64,287.49,147.82Z"/><path class="cls-11" d="M325.15,167.39a3.17,3.17,0,0,1,3.37-3.13c2.19.16,4.65,1.35,4.59,5.87-.09,8-8.12,6.27-8.13,6S325.08,170.75,325.15,167.39Z"/><path class="cls-14" d="M326.76,173.17s.14.1.37.22a1.47,1.47,0,0,0,1.05,0c.85-.3,1.57-1.64,1.63-3.08a4.65,4.65,0,0,0-.37-2,1.6,1.6,0,0,0-1-1.08.71.71,0,0,0-.82.37c-.11.22-.07.39-.11.4s-.17-.14-.1-.47a.89.89,0,0,1,.32-.5,1.07,1.07,0,0,1,.78-.19,2,2,0,0,1,1.44,1.26,4.78,4.78,0,0,1,.46,2.24c-.07,1.61-.92,3.12-2.08,3.44a1.5,1.5,0,0,1-1.27-.23C326.77,173.37,326.73,173.19,326.76,173.17Z"/><path class="cls-5" d="M324.67,151.87a7.61,7.61,0,0,1-3.36,1.64,2.62,2.62,0,0,1-2.94-1.78c-.1-.56,0-1.21-.35-1.63s-1.26-.33-1.93-.24a5.13,5.13,0,0,1-5.38-3.56,2.14,2.14,0,0,1-2.87.33,11.54,11.54,0,0,1-2.23-2.29,3.3,3.3,0,0,0-2.78-1.32,8.38,8.38,0,0,1-1.73.42c-1.06-.07-1.6-1.3-1.78-2.34s-.33-2.25-1.23-2.8-1.9-.19-2.87,0-2.22,0-2.48-1a1.93,1.93,0,0,1,.32-1.46,5.21,5.21,0,0,1,6.09-2.09A7,7,0,0,1,312,132.12a7.15,7.15,0,0,1,11.47,2.37,5.17,5.17,0,0,1,6,7.41,4.91,4.91,0,0,1,2.79,3.85c.06,1.66-1.52,3.35-3.13,2.94a2.87,2.87,0,0,1-4.9,3"/><path class="cls-8" d="M298.6,136.11s0,0,0,.15a3.55,3.55,0,0,0,.06.43,5,5,0,0,0,.61,1.53,5.68,5.68,0,0,0,1.82,1.86,5.39,5.39,0,0,0,3.3.87l-.14-.18a2.91,2.91,0,0,0,.2,2.21,8.22,8.22,0,0,0,1.41,1.94,6.1,6.1,0,0,0,.92.91,2.88,2.88,0,0,0,1.28.44,2.91,2.91,0,0,0,2.56-1l-.3-.08a6,6,0,0,0,2.63,4.11,4.37,4.37,0,0,0,2.65.81,8.07,8.07,0,0,0,2.58-.62l-.22-.09a6.41,6.41,0,0,0,1.95,2.43,3.34,3.34,0,0,0,2.81.7,4.41,4.41,0,0,0,3.33-3.52l-.18.09a4.16,4.16,0,0,0,2.76.35,4.55,4.55,0,0,0,1.9-.9,4,4,0,0,0,.88-1,2.1,2.1,0,0,0,.19-.42,5,5,0,0,1-1.15,1.31,4.45,4.45,0,0,1-1.86.81,3.92,3.92,0,0,1-2.61-.38l-.15-.08,0,.17a4.15,4.15,0,0,1-3.15,3.27,3.06,3.06,0,0,1-2.55-.67,6,6,0,0,1-1.82-2.31l-.07-.15-.15.06a7.5,7.5,0,0,1-2.47.59,4,4,0,0,1-2.45-.75,5.75,5.75,0,0,1-2.49-3.87l-.05-.38-.25.3a2.58,2.58,0,0,1-2.26.86,2.45,2.45,0,0,1-1.13-.38,5.3,5.3,0,0,1-.86-.85,7.66,7.66,0,0,1-1.38-1.86,2.6,2.6,0,0,1-.22-2l.06-.2-.2,0a5.13,5.13,0,0,1-3.16-.78,5.61,5.61,0,0,1-1.8-1.76A6.26,6.26,0,0,1,298.6,136.11Z"/><path class="cls-5" d="M306.77,173c-.29,0,0,1.92-1.34,3.55s-3.43,1.77-3.4,2,.52.29,1.37.16a4.82,4.82,0,0,0,2.86-1.59,4.13,4.13,0,0,0,1-3C307.19,173.38,306.89,173,306.77,173Z"/><path class="cls-6" d="M233.29,265.19c1-.41,42.57-5.47,42.57-5.47l13.62-11.52-1.28,33.37-49.44,4.76Z"/><path class="cls-15" d="M283.46,253.29c-.41.21-3.77,3.2-3.77,3.2l1,25.69Z"/><path class="cls-5" d="M340.63,313.72H284s3,16,4.11,23.36a93.71,93.71,0,0,0,2.74,12.6h51.33s3.83-9.29,4.5-15.25S340.63,313.72,340.63,313.72Z"/><path class="cls-5" d="M279.73,315.65s-1.59,18.23,0,34h19.63V335.12Z"/><path class="cls-1" d="M290.64,226.29l6.1-13.37.76-8.26s11.72-7.36,17.27-10.14a122.22,122.22,0,0,1,13-5.3V197Z"/><path class="cls-6" d="M341.69,294.61s3.32-44.59,3.54-47.9c0,0,2-23.82-2.27-32.89s-13.69-17-13.69-17L328.4,192l-18.49,11.65-8.55,7.44a85.23,85.23,0,0,0-8.06,10A35.4,35.4,0,0,0,287,234.24c-.43,2-5.52,25.71-5.67,42.26,0,0-.78,14.43-1.62,22.61-1,10.11-2.6,33.18-2.26,46.85l59.91-1.83c14.8-2.26,12.2-3.73,12.2-3.73Z"/><path class="cls-5" d="M327.81,197l-.41.19-1.22.51c-.53.25-1.16.58-1.91,1s-1.57.9-2.45,1.53a67.86,67.86,0,0,0-13.16,12.17l0,0h-.05l-5.74,1.05.12-.14c-.09,2.67-.19,5.47-.28,8.37v.07l-.05.05a80.11,80.11,0,0,0-8.45,9.26,36.78,36.78,0,0,0-2.89,4.38L291,236l-.24.59a10.07,10.07,0,0,0-.43,1.2c-.26.81-.51,1.62-.72,2.43-.89,3.24-1.62,6.4-2.3,9.41-1.37,6-2.5,11.47-3.44,16.05-1.89,9.15-2.94,14.83-2.94,14.83a8.84,8.84,0,0,1,.12-1c.11-.68.28-1.68.51-3,.47-2.57,1.17-6.29,2.08-10.87s2-10,3.37-16.07c.68-3,1.4-6.18,2.29-9.43.21-.81.46-1.62.72-2.44a10.08,10.08,0,0,1,.44-1.23l.25-.61.32-.57a35.9,35.9,0,0,1,2.92-4.42,79.17,79.17,0,0,1,8.5-9.3l0,.11c.1-2.9.2-5.7.3-8.37v-.12l.12,0,5.75-1-.08.05a66.58,66.58,0,0,1,13.29-12.13c.89-.62,1.76-1.07,2.48-1.5s1.4-.7,1.93-.94l1.24-.47Z"/><path class="cls-6" d="M307.7,232.25l.72,59.49-9.06,57.94h23.88s10.86-44,13.39-53.24c2.45-9,6.13-54.16,6.45-56.38.13-.87,2.72-16.48-4.9-23.84"/><path class="cls-5" d="M338.18,216.22l.5.5a13.37,13.37,0,0,1,1.3,1.6,20,20,0,0,1,3,7.33,41.23,41.23,0,0,1,.45,12.55c-.36,2.44-.54,5.05-.8,7.82s-.52,5.71-.8,8.79c-.57,6.15-1.21,12.9-2,20.14-.4,3.62-.81,7.36-1.32,11.21A90.59,90.59,0,0,1,336.4,298c-4,15.89-8.38,33.38-13,51.77l0,.13h-24.2l0-.19c3.35-21.37,6.45-41.1,9.09-57.94v0c-.2-18-.36-32.88-.47-43.26-.05-5.18-.08-9.23-.11-12,0-1.38,0-2.43,0-3.15s0-1.08,0-1.08,0,.37,0,1.08,0,1.77.05,3.15c0,2.76.11,6.82.19,12,.13,10.37.33,25.24.58,43.26h0c-2.62,16.85-5.7,36.57-9,57.95l-.16-.19h23.88l-.16.12,13-51.77a91.11,91.11,0,0,0,2.11-11.75c.52-3.84.94-7.58,1.34-11.2.79-7.23,1.44-14,2-20.13q.44-4.62.82-8.79c.27-2.76.46-5.4.83-7.82a41.06,41.06,0,0,0-.4-12.5,20,20,0,0,0-2.91-7.32,13.2,13.2,0,0,0-1.28-1.62Z"/><path class="cls-5" d="M320.33,297.59a9.08,9.08,0,0,1-1.84-.53c-1.13-.38-2.66-1-4.31-1.7s-3.12-1.48-4.16-2.06a9,9,0,0,1-1.63-1,13,13,0,0,1,1.74.8c1.06.53,2.53,1.23,4.18,2s3.16,1.34,4.26,1.78A13.47,13.47,0,0,1,320.33,297.59Z"/><path class="cls-5" d="M279.45,301.54s0-.05,0-.16l0-.45.09-1.75c.1-1.55.24-3.74.41-6.43.37-5.43.89-12.93,1.62-21.2s1.58-15.75,2.27-21.15c.34-2.7.64-4.88.86-6.39.11-.73.19-1.31.26-1.73l.07-.45c0-.1,0-.15,0-.15s0,0,0,.15l-.05.46c0,.42-.11,1-.19,1.74-.19,1.54-.44,3.72-.76,6.4-.63,5.4-1.44,12.87-2.17,21.14s-1.29,15.77-1.72,21.19c-.21,2.69-.39,4.88-.51,6.43-.07.73-.12,1.32-.16,1.74l0,.45C279.46,301.49,279.45,301.54,279.45,301.54Z"/><path class="cls-5" d="M327.81,208.72a29.34,29.34,0,0,0-2.24-4.74,30.57,30.57,0,0,0-3.3-4.08,5.23,5.23,0,0,1,1.21,1,15.51,15.51,0,0,1,2.37,2.92,16,16,0,0,1,1.61,3.4A5,5,0,0,1,327.81,208.72Z"/><path class="cls-5" d="M285.67,282.63s.08.15.06.43a1.75,1.75,0,0,1-.52,1.08,1.65,1.65,0,0,1-1.72.39,2,2,0,0,1-.89-.63,1.79,1.79,0,0,1-.36-1.12,2.36,2.36,0,0,1,.46-1.38,1.41,1.41,0,0,1,.56-.44c.23-.09.4-.13.58-.19h.05a2,2,0,0,1,1.15.33,1.47,1.47,0,0,1,.53.75,1.52,1.52,0,0,1,.1.78s-.07-.28-.25-.71a1.43,1.43,0,0,0-.51-.63,1.9,1.9,0,0,0-1-.24h0c-.17.06-.39.12-.55.19a1.16,1.16,0,0,0-.42.35,2,2,0,0,0-.38,1.19,1.51,1.51,0,0,0,1,1.46,1.41,1.41,0,0,0,1.46-.27,1.69,1.69,0,0,0,.55-.93C285.66,282.79,285.64,282.63,285.67,282.63Z"/><path class="cls-5" d="M284.78,303.67s.08.14.06.43a1.68,1.68,0,0,1-.52,1.07,1.63,1.63,0,0,1-1.72.4,2,2,0,0,1-.89-.64,1.73,1.73,0,0,1-.35-1.11,2.23,2.23,0,0,1,.46-1.39,1.4,1.4,0,0,1,.55-.44l.59-.18h0a2,2,0,0,1,1.15.33,1.48,1.48,0,0,1,.54.76,1.57,1.57,0,0,1,.09.78s-.07-.28-.25-.72a1.41,1.41,0,0,0-.51-.62,1.8,1.8,0,0,0-1-.24h0c-.17.07-.39.13-.54.19a1.14,1.14,0,0,0-.43.36,2,2,0,0,0-.38,1.19,1.51,1.51,0,0,0,1,1.46,1.41,1.41,0,0,0,1.46-.28,1.67,1.67,0,0,0,.55-.92C284.77,303.82,284.75,303.67,284.78,303.67Z"/><path class="cls-5" d="M335.49,212.7c0,.06-.82-.45-2.21-1a16.13,16.13,0,0,0-2.52-.72,17.5,17.5,0,0,0-3.18-.28,17,17,0,0,0-3.17.37,14.5,14.5,0,0,0-2.5.79c-1.37.57-2.15,1.09-2.18,1s.17-.16.52-.4a6.68,6.68,0,0,1,.66-.4,9.58,9.58,0,0,1,.91-.46,14.69,14.69,0,0,1,2.52-.87,16.13,16.13,0,0,1,3.24-.4,16.35,16.35,0,0,1,3.24.31,14.42,14.42,0,0,1,2.54.8,7.41,7.41,0,0,1,.93.44,5.51,5.51,0,0,1,.67.38A2.81,2.81,0,0,1,335.49,212.7Z"/><g class="cls-7"><path d="M283.18,268.35c2.58-3.77,3.53-7.32,4.92-11.67,2-6.47,2.62-13.78,5.85-19.75,1.89-3.52,4.13-7.13,7.43-9.39s3.69-5,3.63-12.56a8.88,8.88,0,0,0,5-2.06,12.8,12.8,0,0,0,2.82-5.29c-1.61,1.76-4.3,4.67-4.3,4.67s-5.84,1.08-5.75,1c-.14,2.91-.15,5.47-.29,8.38,0,0-11.2,11.88-12.07,14.26S283.18,268.35,283.18,268.35Z"/></g><g class="cls-7"><path d="M324.74,342.51c14.19-26.86,18.6-62.17,17.75-95.8,0,0-4.07,40.88-5.44,47.9S324.74,342.51,324.74,342.51Z"/></g><path class="cls-5" d="M326.91,192.7a3,3,0,0,1-.32.24l-.95.64-3.51,2.31-11.64,7.5-5,3.21h0l-1.6,1.24a13.3,13.3,0,0,0-1.44,1.23c-.87.85-1.66,1.67-2.36,2.42l-.13.14-.07-.17L298,207.21l-.49-1.16a2.1,2.1,0,0,1-.14-.41,2.85,2.85,0,0,1,.21.39l.54,1.13,1.93,4.19-.2,0c.69-.77,1.47-1.6,2.35-2.47a12.85,12.85,0,0,1,1.45-1.26l1.59-1.25h0l5-3.22,11.7-7.42,3.57-2.22,1-.59A1.55,1.55,0,0,1,326.91,192.7Z"/><path class="cls-5" d="M122.59,178.34a82.52,82.52,0,0,1-4.11-13.74,29,29,0,0,1,.62-14.19c.23-.69,2.22-5.33,3-5.29.51,0-.66,4.34-.38,4.78,2.64,4.18,3.5,9.3,3.28,14.24a64.54,64.54,0,0,1-2.36,14.2"/><path class="cls-12" d="M124.13,203.84l-1.75-43.45c-.82-12,4.54-22.72,16.54-23.21l1.3,0a21.26,21.26,0,0,1,20.85,19.91c.66,10.44,1.26,22,1.09,27.62-.34,11.52-11.89,13.11-11.89,13.11s.49,8.34.58,11.72c0,0-1.22.89-11.95,1.27S124.13,203.84,124.13,203.84Z"/><path class="cls-13" d="M150.27,197.84a27.8,27.8,0,0,1-14.92-4.7s3.51,8.44,15,7.61Z"/><path class="cls-5" d="M157.56,168A1.64,1.64,0,0,1,156,169.6a1.57,1.57,0,0,1-1.67-1.51,1.64,1.64,0,0,1,1.61-1.63A1.56,1.56,0,0,1,157.56,168Z"/><path class="cls-5" d="M141.62,168.39A1.63,1.63,0,0,1,140,170a1.57,1.57,0,0,1-1.67-1.51,1.65,1.65,0,0,1,1.61-1.64A1.57,1.57,0,0,1,141.62,168.39Z"/><path class="cls-5" d="M158.16,163.46c-.21.21-1.44-.73-3.21-.76s-3.08.84-3.27.62.12-.48.7-.88a4.46,4.46,0,0,1,2.62-.76,4.29,4.29,0,0,1,2.55.87C158.09,163,158.26,163.37,158.16,163.46Z"/><path class="cls-5" d="M141.12,163.92c-.2.21-1.43-.74-3.2-.76s-3.09.83-3.27.61.12-.48.69-.88a4.53,4.53,0,0,1,2.62-.76,4.37,4.37,0,0,1,2.55.87C141.05,163.43,141.23,163.82,141.12,163.92Z"/><path class="cls-5" d="M147.37,177.41a12,12,0,0,1,2.89-.47c.45,0,.88-.12,1-.43a2.31,2.31,0,0,0-.28-1.34c-.4-1.11-.83-2.26-1.27-3.47-1.78-4.93-3-9-2.85-9s1.8,3.87,3.57,8.8c.42,1.22.83,2.38,1.22,3.48a2.65,2.65,0,0,1,.2,1.78,1.12,1.12,0,0,1-.75.65,3.31,3.31,0,0,1-.77.09A11.59,11.59,0,0,1,147.37,177.41Z"/><path class="cls-5" d="M141.14,157.6c-.22.46-2,.08-4,.14s-3.82.47-4.05,0c-.11-.22.23-.64.94-1a6.7,6.7,0,0,1,3.07-.78,6.81,6.81,0,0,1,3.1.65C140.88,157,141.23,157.38,141.14,157.6Z"/><path class="cls-5" d="M158.33,156.36c-.34.42-1.78.1-3.48.19s-3.13.47-3.49.07c-.16-.19,0-.61.65-1a5.72,5.72,0,0,1,5.61-.21C158.25,155.75,158.47,156.15,158.33,156.36Z"/><path class="cls-12" d="M123.17,168.85c-.19-.08-7.87-2.47-7.76,5.4s8,6.14,8,5.92S123.17,168.85,123.17,168.85Z"/><path class="cls-13" d="M120.84,177.25s-.13.1-.36.21a1.41,1.41,0,0,1-1,0c-.84-.29-1.56-1.6-1.61-3a4.33,4.33,0,0,1,.35-2,1.58,1.58,0,0,1,1-1.07.7.7,0,0,1,.81.36c.11.22.06.38.11.39s.16-.13.1-.46a.87.87,0,0,0-.32-.48,1,1,0,0,0-.76-.19,1.91,1.91,0,0,0-1.42,1.24,4.64,4.64,0,0,0-.44,2.2c.07,1.59.9,3.06,2,3.37a1.46,1.46,0,0,0,1.25-.22C120.83,177.44,120.87,177.26,120.84,177.25Z"/><path class="cls-5" d="M155.68,144.37c1.26-.73-2.67-4.77-5.83-6.12-4.79-2-12-3.19-16.38-1.85-5.23,1.61-9.53,4.33-12.06,9.17a31,31,0,0,0-3.11,15.9,9.49,9.49,0,0,0,1.22,4.79c1.14,1.72,3.28,2.76,3.25,5.17a3.23,3.23,0,0,0,.87,2.38c1.48,1.5,3.21,0,4-1.44,1.66-3.13,1.77-6.81,1.84-10.35a23.12,23.12,0,0,0-.67-7.48c-.42-1.31-1.07-2.53-1.41-3.86a4.71,4.71,0,0,1,.47-3.94,4.91,4.91,0,0,1,.62-.67,8.23,8.23,0,0,1,8.11-1.74c4.48,1.47,12.11,3.64,14,2.08,2.8-2.23,3.44-3.66,3.44-3.66Z"/><path class="cls-5" d="M141.21,178.14c.28,0,.44,1.87,2.18,3.1s3.77.85,3.8,1.12c0,.12-.42.41-1.28.5a4.75,4.75,0,0,1-3.16-.83,4.1,4.1,0,0,1-1.71-2.61C140.9,178.63,141.08,178.14,141.21,178.14Z"/><path class="cls-5" d="M106.24,312.39s-6.67,15.64-6,22,4.41,15.92,4.41,15.92h52.78s.26-5.28,1.37-13.1,1.8-24.79,1.8-24.79Z"/><path class="cls-8" d="M155.39,215.93c0,1.07,3.53,24.68,4.14,30.78,1,9.63,3.51,57.35,2.66,61.47s-1,4.89-1,4.89S115,314.8,109.34,315.3s-8,.33-9.4-6.11.25-37.44.25-45.61c0-8.79-1.1-15.81-1.56-27.83-.4-10.41,2.15-16.8,7.1-22.83S120,200.26,120,200.26l3.89-5.67,27.52,14.55.63-3.31,1.67,5.16Z"/><g class="cls-7"><path d="M167.22,287.62c-.46-1.17-1.94-1.46-3.19-1.6-11.66-1.29-23.8-4.2-32.31-12.27a60.56,60.56,0,0,1-8.5-10.8c-5.53-8.37-10.73-16.95-15.94-25.53l-4,1.52c2.47,12.12,4.91,20.89,8.94,30.82s7.17,19.56,17.4,22.82c6.61,2.1,19.16.49,26.07-.06a39.86,39.86,0,0,0,8.57-1.34,5.51,5.51,0,0,0,2.32-1.18A2.27,2.27,0,0,0,167.22,287.62Z"/></g><path class="cls-8" d="M101.82,235.78c.31.53,23.64,50.37,34.06,52.42s42.8,2.53,49.12,1.34,13.45-3.21,13.45-3.21l1.28-18.66-10.53-.3s-24.18-1.3-27.6-2.23-6.37-4.14-9.44-4l-18.4-42.82s-11.95-11.1-20.49-7.68S99.32,231.32,101.82,235.78Z"/><path class="cls-5" d="M131.32,215s-.32-.3-.9-.83a17.78,17.78,0,0,0-2.67-2,17.37,17.37,0,0,0-4.53-2,17,17,0,0,0-6-.52,16.69,16.69,0,0,0-5.78,1.7,17.41,17.41,0,0,0-4,2.82,17.68,17.68,0,0,0-2.22,2.5,10.64,10.64,0,0,1-.72,1,1.27,1.27,0,0,1,.14-.29c.11-.18.25-.46.48-.78a15.42,15.42,0,0,1,2.16-2.6,17.07,17.07,0,0,1,4.07-2.92,16.19,16.19,0,0,1,12-1.2,16.47,16.47,0,0,1,4.57,2.06,15,15,0,0,1,2.64,2.11c.29.28.48.53.62.68A1.07,1.07,0,0,1,131.32,215Z"/><path class="cls-5" d="M152.09,261.21a21.12,21.12,0,0,1-1.18,3.61,22.18,22.18,0,0,1-1.48,3.5,21.57,21.57,0,0,1,1.17-3.61A21.15,21.15,0,0,1,152.09,261.21Z"/><path class="cls-5" d="M152,210.8a4.51,4.51,0,0,1-.63-.32l-1.73-1,.12,0c-.35,1.74-.68,4.29-1.26,7.35l0,.2-.18-.11c-2.55-1.61-5.62-3.45-8.89-5.43-2.44-1.46-4.72-2.93-6.81-4.2s-4-2.36-5.67-3.27l-3.85-2.14-1-.59a2.44,2.44,0,0,1-.35-.22,1.76,1.76,0,0,1,.39.16l1.07.53c.93.47,2.27,1.17,3.91,2.06s3.58,1.95,5.7,3.21,4.41,2.7,6.83,4.18c3.27,2,6.33,3.83,8.88,5.47l-.22.09c.61-3,1-5.59,1.38-7.32l0-.12.1.06,1.7,1.06A5.3,5.3,0,0,1,152,210.8Z"/><g class="cls-7"><path d="M125.56,203.07l14.36,10.7c3.16,2.36,6.4,4.75,10.15,6l-.21-10-1.47,7Z"/></g><path class="cls-5" d="M198.45,286.33a2.73,2.73,0,0,1,0-.33c0-.23,0-.56.05-1l.22-3.73c.21-3.24.52-7.9.89-13.64l.11.14L165.05,266l-4.87-.27h-.08l0-.07a11.65,11.65,0,0,0-3.46-3.46,5.9,5.9,0,0,0-4.46-.79l-.14,0-.06-.13-10.86-25.58L138,228.25c-.35-.86-.63-1.52-.82-2l-.21-.52-.06-.18.09.17.23.51c.2.46.49,1.12.87,2,.76,1.74,1.85,4.25,3.21,7.4,2.73,6.34,6.55,15.24,11,25.53l-.2-.08a6.15,6.15,0,0,1,4.73.81,11.85,11.85,0,0,1,3.56,3.56l-.13-.07,4.87.26,34.67,1.93h.13v.12c-.42,5.73-.76,10.39-1,13.63-.12,1.61-.22,2.86-.28,3.72l-.09,1C198.47,286.22,198.45,286.33,198.45,286.33Z"/><polygon class="cls-5" points="159.62 314.19 167.34 350.28 156.72 350.28 159.62 314.19"/><path class="cls-8" d="M158.82,327.23c.09,0-.31,5.19-.9,11.56s-1.13,11.55-1.22,11.54.31-5.19.9-11.57S158.73,327.22,158.82,327.23Z"/></svg>