<svg xmlns="http://www.w3.org/2000/svg" version="1.1" xmlns:xlink="http://www.w3.org/1999/xlink" xmlns:svgjs="http://svgjs.com/svgjs" width="512" height="512" x="0" y="0" viewBox="0 0 512 512" style="enable-background:new 0 0 512 512" xml:space="preserve" class=""><g><g><g><path d="m500.52 323.75h-124.9l-19.22-128.04 32.49-26.03c9.43-7.86 16.07-18.69 18.69-30.57l16.6-73.72c1.57-6.46-.52-13.1-5.24-17.82-4.72-4.54-11.53-6.29-17.99-4.89l-72.15 18.17c-11.7 2.8-21.66 9.26-29.35 18.52l-26.55 33.01-176.61-26.2c-1.75-.35-3.49.17-4.89 1.22l-41.4 32.14c-1.92 1.4-2.8 3.49-2.62 5.76.35 2.27 1.75 4.37 3.84 5.24l150.06 71.27-99.05 123.69-74.94-33.36c-2.45-1.05-5.42-.52-7.34 1.4l-13.27 13.27c-2.45 2.62-2.45 6.64 0 9.26l145.86 145.86c1.4 1.22 2.97 1.92 4.72 1.92 1.57 0 3.32-.7 4.54-1.92l13.28-13.28c1.92-1.92 2.45-4.89 1.4-7.34l-33.36-74.94 123.68-98.87 26.73 56.25h-58.87c-3.49 0-6.46 2.97-6.46 6.46v132.94c0 3.67 2.97 6.64 6.46 6.64h132.76.17 132.94c3.67 0 6.64-2.97 6.64-6.64v-132.94c-.01-3.49-2.98-6.46-6.65-6.46zm-434.1-200.36 30.75-23.93 58.69 8.73c-1.92 2.62-1.92 6.11.35 8.38 1.22 1.22 2.97 1.92 4.54 1.92 1.75 0 3.49-.52 4.72-1.92l6.11-6.11 30.92 4.72-5.76 5.59c-2.62 2.62-2.62 6.81 0 9.26 1.22 1.4 2.97 2.1 4.54 2.1 1.75 0 3.49-.7 4.72-1.92l12.58-12.58 44.89 6.64-53.8 67.08zm-45.77 187.96 5.42-5.42 34.59 15.37-15.02 15.02zm34.24 34.24 18.52-18.52 27.08 11.88 29.17 29.35 9.96 22.19-19.92 19.91zm90.32 57.82 17.47 39.13-5.42 5.42-28.3-28.3zm-9.61-47.69-22.53-22.71 65.86-82.28 39.13 38.95zm92.76-74.24-41.23-41.05 122.45-152.86c5.76-6.99 13.45-11.88 22.36-13.97l20.61-5.24-42.45 42.62c-2.62 2.44-2.62 6.64 0 9.26 1.22 1.22 2.97 1.75 4.54 1.75 1.75 0 3.49-.52 4.72-1.92l58-57.82 26.73-6.81c2.97-.7 4.89.87 5.76 1.57.7.7 2.27 2.62 1.57 5.59l-6.11 27.08-58.17 58.35c-2.62 2.44-2.62 6.64 0 9.26 1.22 1.22 2.97 1.92 4.54 1.92 1.75 0 3.49-.7 4.72-1.92l43.5-43.67-5.07 22.71c-1.92 8.91-6.99 17.29-14.15 23.23zm61.49 55.37h13.97.17 8.56v31.79l-5.76-4.02c-3.32-2.45-8.04-2.45-11.36 0l-5.59 4.02v-31.79zm-48.57 0h35.46v14.67h-35.46zm119.84 119.84h-119.84v-92.06h35.46v11.36c0 3.32 1.92 6.46 4.89 8.03 3.32 1.57 7.34 1.4 10.31-.7l9.26-6.64 9.26 6.64c1.57 1.05 3.67 1.75 5.59 1.75 1.57 0 3.14-.35 4.54-1.05 3.14-1.57 5.07-4.72 5.07-8.03v-11.36h35.46zm0-105.16h-35.46v-14.67h35.46zm-52.93-27.78-30.92-64.81 67.25-53.8 6.81 44.89-12.75 12.75c-2.45 2.62-2.45 6.64 0 9.26 1.4 1.22 2.97 1.92 4.72 1.92 1.57 0 3.32-.7 4.54-1.92l5.94-5.76 4.54 30.92-6.11 6.11c-2.62 2.62-2.62 6.64 0 9.26 1.22 1.22 2.97 1.92 4.54 1.92 1.4 0 2.79-.7 4.02-1.57l1.57 10.83zm114.42 13.1h22.71v31.79l-5.59-4.02c-3.32-2.45-8.04-2.45-11.36 0l-5.76 4.02zm-48.39 0h35.29v14.67h-35.29zm119.66 119.84h-119.66v-92.06h35.29v11.36c0 3.32 1.92 6.46 5.07 8.03 3.32 1.57 7.34 1.4 10.31-.7l9.08-6.64 9.26 6.64c1.75 1.05 3.67 1.75 5.76 1.75 1.57 0 3.15-.35 4.54-1.05 2.97-1.57 4.89-4.72 4.89-8.03v-11.36h35.46zm0-105.16h-35.46v-14.67h35.46z" fill="#ffffff" data-original="#000000" class=""></path><path d="m162.67 442.54-5.41 5.41-28.3-28.3 16.25-16.24z" fill="#7481a4" data-original="#7481a4" class=""></path><path d="m139.61 390.52-19.89 19.89-64.85-64.84 18.51-18.51 27.11 11.92 14.57 14.65 14.61 14.69z" fill="#e8efff" data-original="#e8efff"></path><path d="m60.66 321.31-15.03 15.02-24.98-24.98 5.42-5.42z" fill="#607093" data-original="#607093"></path><path d="m218.06 289.66-82.44 66.06-11.29-11.37-11.24-11.33 65.85-82.31 19.56 19.48z" fill="#7481a4" data-original="#7481a4" class=""></path><path d="m362.36 323.74h-32.23-21.91l-30.98-64.8 67.11-53.6.17-.17 6.84 44.87-12.76 12.76c-2.43 2.6-2.43 6.63 0 9.23 1.39 1.22 2.94 1.93 4.7 1.93 1.59 0 3.32-.71 4.53-1.93l5.92-5.75 4.57 30.93-6.13 6.13c-2.6 2.6-2.6 6.63 0 9.23 1.22 1.22 2.98 1.89 4.53 1.93 1.43 0 2.81-.71 4.03-1.59z" fill="#7481a4" data-original="#7481a4" class=""></path><path d="m209.66 191.36-143.25-67.95 10.28-8.02 20.48-15.95 58.68 8.73c-1.89 2.64-1.93 6.13.34 8.39 1.22 1.22 3.02 1.93 4.53 1.93 1.76 0 3.53-.5 4.74-1.89l6.13-6.13 30.89 4.7-5.75 5.58c-2.6 2.6-2.6 6.8 0 9.23 1.26 1.43 2.98 2.14 4.53 2.1 1.76 0 3.53-.67 4.74-1.89l12.59-12.59 37.65 5.58 7.22 1.09z" fill="#7481a4" data-original="#7481a4" class=""></path><path d="m380.66 159.55-152.32 121.93-20.61-20.52-20.61-20.52 122.48-152.87c5.75-7.01 13.47-11.88 22.37-13.98l20.61-5.25-42.48 42.64c-2.6 2.43-2.6 6.63 0 9.23 1.22 1.22 2.98 1.8 4.53 1.76 1.76 0 3.53-.5 4.74-1.89l58.01-57.84 26.69-6.8c2.98-.71 4.91.88 5.75 1.55.21.21.55.55.84 1.01.63.97 1.26 2.52.8 4.57l-6.17 27.07-58.17 58.34c-2.6 2.43-2.6 6.63.04 9.28 1.22 1.22 2.94 1.93 4.53 1.93 1.72-.04 3.48-.71 4.7-1.93l43.52-43.69-5.08 22.71c-1.92 8.91-7 17.35-14.17 23.27z" fill="#e8efff" data-original="#e8efff"></path><path d="m458.42 336.85h35.46v14.67h-35.46z" fill="#f6ccaf" data-original="#f6ccaf"></path><path d="m445.32 336.85v31.79l-5.59-4.02c-3.32-2.45-8.04-2.45-11.36 0l-5.76 4.02v-31.79z" fill="#be927c" data-original="#be927c"></path><path d="m374.22 336.85h35.29v14.67h-35.29z" fill="#f6ccaf" data-original="#f6ccaf"></path><path d="m241.28 336.85h35.46v14.67h-35.46z" fill="#f6ccaf" data-original="#f6ccaf"></path><path d="m312.57 336.84v31.82l-5.76-4.04c-3.32-2.43-8.07-2.43-11.4 0l-5.58 4.04v-31.82h14.01.18z" fill="#be927c" data-original="#be927c"></path><path d="m325.69 336.84h35.44v14.66h-35.44z" fill="#f6ccaf" data-original="#f6ccaf"></path><path d="m458.42 364.63v11.36c0 3.32-1.92 6.46-4.89 8.03-1.4.7-2.97 1.05-4.54 1.05-2.1 0-4.02-.7-5.76-1.75l-9.26-6.64-9.08 6.64c-2.97 2.1-6.99 2.27-10.31.7-3.14-1.57-5.07-4.72-5.07-8.03v-11.36h-35.29v92.06h119.66v-92.06zm-48.39 80h-18.17c-3.67 0-6.64-2.97-6.64-6.46 0-3.67 2.97-6.64 6.64-6.64h18.17c3.67 0 6.64 2.97 6.64 6.64 0 3.5-2.97 6.46-6.64 6.46zm0-19.74h-18.17c-3.67 0-6.64-2.79-6.64-6.46s2.97-6.64 6.64-6.64h18.17c3.67 0 6.64 2.97 6.64 6.64s-2.97 6.46-6.64 6.46z" fill="#f6ccaf" data-original="#f6ccaf"></path><path d="m325.69 364.62v11.34c0 3.32-1.96 6.47-5.1 8.07-1.37.71-2.97 1.01-4.51 1.01-1.96 0-4.04-.65-5.64-1.72l-9.26-6.65-9.2 6.65c-3.03 2.08-7 2.26-10.33.71-2.97-1.6-4.93-4.75-4.93-8.07v-11.34h-35.44v92.06h119.84v-92.06zm-66.78 47.19h18.34c3.5 0 6.47 2.97 6.47 6.65 0 3.62-2.97 6.41-6.47 6.41h-18.34c-3.5 0-6.47-2.79-6.47-6.41 0-3.68 2.97-6.65 6.47-6.65zm18.34 32.83h-18.34c-2.14 0-4.1-1.13-5.22-2.79-.77-1.01-1.25-2.32-1.25-3.68 0-3.68 2.97-6.65 6.47-6.65h18.34c.59 0 1.19.06 1.72.3 2.67.71 4.75 3.26 4.75 6.35 0 3.5-2.97 6.47-6.47 6.47z" fill="#f6ccaf" data-original="#f6ccaf"></path><path d="m312.57 336.84v31.82l-5.76-4.04c-3.32-2.43-8.07-2.43-11.4 0l-5.58 4.04v-7.06c12.11-6.65 15.49-16.86 16.09-24.75h6.65z" fill="#b7826a" data-original="#b7826a"></path><path d="m445.33 336.84v31.82l-5.76-4.04c-3.32-2.43-8.07-2.43-11.4 0l-5.58 4.04v-7.06c12.11-6.65 15.49-16.86 16.09-24.75h6.65z" fill="#b7826a" data-original="#b7826a"></path><g fill="#e5ad88"><path d="m361.12 336.84v14.66h-24.34c1.13-5.4 1.84-10.39 2.32-14.66z" fill="#e5ad88" data-original="#e5ad88" class=""></path><path d="m333.4 364.62h27.72v92.06h-119.84v-11.81c4.33-.89 8.49-1.84 12.41-3.03 9.44-2.67 17.81-6.05 25.29-10.03 31.98-16.97 47.18-44.04 54.42-67.19z" fill="#e5ad88" data-original="#e5ad88" class=""></path><path d="m493.97 336.84v14.66h-24.34c1.13-5.4 1.84-10.39 2.32-14.66z" fill="#e5ad88" data-original="#e5ad88" class=""></path><path d="m466.25 364.62h27.72v92.06h-119.84v-11.81c4.33-.89 8.49-1.84 12.41-3.03 9.44-2.67 17.81-6.05 25.29-10.03 31.98-16.97 47.18-44.04 54.42-67.19z" fill="#e5ad88" data-original="#e5ad88" class=""></path></g><path d="m283.73 438.17c0 3.49-2.97 6.46-6.46 6.46h-18.34c-3.49 0-6.46-2.97-6.46-6.46 0-3.67 2.97-6.64 6.46-6.64h18.34c3.49 0 6.46 2.97 6.46 6.64z" fill="#ffffff" data-original="#000000" class=""></path><path d="m283.73 418.43c0 3.67-2.97 6.46-6.46 6.46h-18.34c-3.49 0-6.46-2.79-6.46-6.46s2.97-6.64 6.46-6.64h18.34c3.49 0 6.46 2.97 6.46 6.64z" fill="#ffffff" data-original="#000000" class=""></path><path d="m416.67 438.17c0 3.49-2.97 6.46-6.64 6.46h-18.17c-3.67 0-6.64-2.97-6.64-6.46 0-3.67 2.97-6.64 6.64-6.64h18.17c3.67 0 6.64 2.97 6.64 6.64z" fill="#ffffff" data-original="#000000" class=""></path><path d="m416.67 418.43c0 3.67-2.97 6.46-6.64 6.46h-18.17c-3.67 0-6.64-2.79-6.64-6.46s2.97-6.64 6.64-6.64h18.17c3.67 0 6.64 2.97 6.64 6.64z" fill="#ffffff" data-original="#000000" class=""></path></g><path d="m209.66 191.36-143.25-67.95 10.28-8.02c76.51 40.92 143.59 23.71 179.56 7.81l7.22 1.09z" fill="#607093" data-original="#607093"></path><path d="m330.12 323.74h-21.91l-30.98-64.8 67.07-53.81.04.21 1.05 7.01c-10.94 24.72-22.49 64.22-15.27 111.39z" fill="#607093" data-original="#607093"></path><path d="m410.67 58.02-202.94 202.93-20.61-20.52 122.48-152.86c5.75-7.01 13.47-11.88 22.37-13.98l20.61-5.25-42.48 42.64c-2.6 2.43-2.6 6.63 0 9.23 1.22 1.22 2.98 1.8 4.53 1.76 1.76 0 3.53-.5 4.74-1.89l58.01-57.84 26.69-6.8c2.98-.71 4.91.88 5.75 1.55.22.23.55.57.85 1.03z" fill="#ced9ef" data-original="#ced9ef" class=""></path><path d="m178.94 250.71 19.56 19.48-74.17 74.16-11.24-11.33z" fill="#607093" data-original="#607093"></path><path d="m100.49 338.98 14.57 14.65-26.07 26.06-34.12-34.12 18.51-18.51z" fill="#ced9ef" data-original="#ced9ef" class=""></path></g></g></svg>