<svg xmlns="http://www.w3.org/2000/svg" version="1.1" xmlns:xlink="http://www.w3.org/1999/xlink" xmlns:svgjs="http://svgjs.com/svgjs" width="512" height="512" x="0" y="0" viewBox="0 0 512 512" style="enable-background:new 0 0 512 512" xml:space="preserve" class=""><g>
<g>
	<g>
		<g>
			<path style="" d="M336.896,212.756c8.775,5.06,20,2.058,25.071-6.727l8.655-15c5.071-8.775,2.058-20-6.717-25.071
				l-7.229-4.167c2.299-8.595,3.524-17.621,3.524-26.938c0-9.307-1.225-18.334-3.524-26.928l7.229-4.177
				c8.775-5.07,11.788-16.296,6.717-25.071l-8.655-15c-5.07-8.775-16.296-11.788-25.071-6.717l-7.249,4.187
				c-12.731-12.721-28.736-22.149-46.628-26.949v-8.344c0-10.141-8.223-18.354-18.354-18.354h-9.666
				c-20.191,30.008-22.178,65.12-6.191,101.152c2.292-0.627,4.701-0.969,7.192-0.969c15.01,0,27.179,12.159,27.179,27.169
				c0,12.511-8.456,23.041-19.963,26.203c-5.902,29.473,7.112,52.301,39.698,66.846c9.922-5.012,18.942-11.555,26.731-19.332
				L336.896,212.756z" fill="#7a8fa5" data-original="#7a8fa5"></path>
			<path style="" d="M256,162.032c-15.01,0-27.179-12.169-27.179-27.179c0-12.52,8.468-23.049,19.987-26.201
				C242.76,71.931,245.298,36.78,254.999,7.5h-7.663c-10.131,0-18.354,8.213-18.354,18.354v8.344
				c-17.892,4.799-33.896,14.227-46.628,26.949l-7.249-4.187c-8.775-5.07-20.001-2.058-25.071,6.717l-8.655,15
				c-5.07,8.775-2.058,20.001,6.717,25.071l7.229,4.177c-4.729,17.677-4.673,36.401,0,53.867l-7.229,4.167
				c-8.775,5.07-11.787,16.296-6.717,25.071l8.655,15c5.07,8.785,16.296,11.787,25.071,6.727l7.249-4.187
				c12.731,12.711,28.736,22.149,46.628,26.938v8.354c0,10.131,8.223,18.344,18.354,18.344c6.061,0,11.269,0,17.33,0
				c10.131,0,18.354-8.213,18.354-18.344v-8.354c6.945-1.859,13.601-4.427,19.896-7.606c-15.91-18.382-29.608-41.053-39.698-66.846
				C260.918,161.688,258.5,162.032,256,162.032z" fill="#6a829a" data-original="#6a829a"></path>
			<path style="" d="M320.831,134.852c0-39.77-35.596-70.4-75.277-63.972c-8.297,11.798-7.952,24.407,3.253,37.771
				c2.292-0.627,4.701-0.969,7.192-0.969c15.01,0,27.179,12.159,27.179,27.169c0,12.511-8.456,23.041-19.963,26.203
				c-6.789,14.787-1.71,26.317,16.454,34.15C303.764,185.747,320.831,162.3,320.831,134.852z" fill="#e5eef9" data-original="#e5eef9"></path>
			<path style="" d="M256,162.032c-15.01,0-27.179-12.169-27.179-27.179c0-12.52,8.468-23.049,19.987-26.201
				c-2.115-12.845-3.179-25.495-3.253-37.771c-30.836,4.995-54.385,31.725-54.385,63.972c0,35.804,29.027,64.831,64.831,64.831
				c8.357,0,16.335-1.599,23.67-4.478c-6.186-10.613-11.716-22.038-16.454-34.15C260.918,161.688,258.5,162.032,256,162.032z" fill="#d9e7f9" data-original="#d9e7f9"></path>
			<path style="" d="M504.5,476.216v-69.61c-29.467-16.263-58.961-15.867-88.482,0
				c-12.389,43.579,1.777,82.511,41.107,97.894h19.091C491.839,504.5,504.5,491.839,504.5,476.216z" fill="#fff2d4" data-original="#fff2d4"></path>
			<path style="" d="M416.018,406.606c-16.18-10.943-31.937-12.486-47.064,0v69.61
				c0,15.623,12.661,28.284,28.284,28.284h59.887C430.268,480.802,415.288,442.412,416.018,406.606z" fill="#ffeab7" data-original="#ffeab7"></path>
			<path style="" d="M476.216,368.954c-24.945,0-53.555,0-78.978,0c-15.623,0-28.284,12.661-28.284,28.284v9.368
				c33.033,0,105.465,0,135.546,0v-9.368C504.5,381.616,491.839,368.954,476.216,368.954z" fill="#ffeab7" data-original="#ffeab7"></path>
			<path style="" d="M459.318,426.135c0,11.165-15.051,14.709-20.041,4.729l-2.55-5.1l-2.55,5.1
				c-4.99,9.98-20.041,6.436-20.041-4.729c0-11.819,0-46.176,0-57.18c15.043,0,30.139,0,45.182,0
				C459.318,379.959,459.318,414.312,459.318,426.135z" fill="#f8dc11" data-original="#f8dc11" class=""></path>
			<path style="" d="M323.773,476.216v-69.61c-29.467-16.263-58.961-15.867-88.482,0
				c-12.389,43.579,1.777,82.511,41.107,97.894h19.091C311.112,504.5,323.773,491.839,323.773,476.216z" fill="#fff2d4" data-original="#fff2d4"></path>
			<path style="" d="M235.291,406.606c-16.18-10.943-31.937-12.486-47.064,0v69.61
				c0,15.623,12.661,28.284,28.284,28.284h59.887C249.541,480.802,234.561,442.412,235.291,406.606z" fill="#ffeab7" data-original="#ffeab7"></path>
			<path style="" d="M295.489,368.954c-24.945,0-53.555,0-78.978,0c-15.623,0-28.284,12.661-28.284,28.284v9.368
				c33.033,0,105.465,0,135.545,0v-9.368C323.773,381.616,311.112,368.954,295.489,368.954z" fill="#ffeab7" data-original="#ffeab7"></path>
			<path style="" d="M278.591,426.135c0,11.165-15.051,14.709-20.041,4.729l-2.55-5.1l-2.55,5.1
				c-4.99,9.98-20.041,6.436-20.041-4.729c0-11.819,0-46.176,0-57.18c15.043,0,30.139,0,45.182,0
				C278.591,379.959,278.591,414.312,278.591,426.135z" fill="#f8dc11" data-original="#f8dc11" class=""></path>
			<path style="" d="M143.046,476.216v-69.61c-29.467-16.263-58.961-15.867-88.482,0
				c-12.389,43.579,1.777,82.511,41.107,97.894h19.091C130.385,504.5,143.046,491.839,143.046,476.216z" fill="#fff2d4" data-original="#fff2d4"></path>
			<path style="" d="M54.564,406.606c-16.18-10.943-31.937-12.486-47.064,0v69.61
				c0,15.623,12.661,28.284,28.284,28.284H95.67C68.814,480.802,53.833,442.412,54.564,406.606z" fill="#ffeab7" data-original="#ffeab7"></path>
			<path style="" d="M114.762,368.954c-16.257,0-63.429,0-78.978,0c-15.623,0-28.284,12.661-28.284,28.284v9.368
				c33.033,0,105.465,0,135.546,0v-9.368C143.046,381.616,130.385,368.954,114.762,368.954z" fill="#ffeab7" data-original="#ffeab7"></path>
			<path style="" d="M97.864,426.135c0,11.165-15.05,14.709-20.041,4.729l-2.55-5.1l-2.55,5.1
				c-4.99,9.98-20.041,6.436-20.041-4.729c0-11.819,0-46.176,0-57.18c15.043,0,30.139,0,45.182,0
				C97.864,379.959,97.864,414.312,97.864,426.135z" fill="#f8dc11" data-original="#f8dc11" class=""></path>
		</g>
		<g>
			<g>
				<path style="stroke-width:15;stroke-linecap:round;stroke-linejoin:round;stroke-miterlimit:10;" d="
					M309.35,98.03c7.24,10.45,11.48,23.14,11.48,36.82c0,35.81-29.03,64.83-64.83,64.83s-64.83-29.02-64.83-64.83
					c0-35.8,29.03-64.82,64.83-64.82c9.54,0,18.59,2.06,26.75,5.75" fill="none" stroke="#ffffff" stroke-width="15" stroke-linecap="round" stroke-linejoin="round" stroke-miterlimit="10" data-original="#000000" class=""></path>
				<path style="stroke-width:15;stroke-linecap:round;stroke-linejoin:round;stroke-miterlimit:10;" d="
					M363.904,165.958l-7.229-4.167c2.299-8.595,3.524-17.621,3.524-26.938c0-9.307-1.225-18.334-3.524-26.928l7.229-4.177
					c8.775-5.07,11.788-16.296,6.717-25.071l-8.655-15c-5.07-8.775-16.296-11.788-25.071-6.717l-7.249,4.187
					c-12.731-12.721-28.736-22.149-46.628-26.949v-8.343c0-10.141-8.223-18.354-18.354-18.354h-17.33
					c-10.131,0-18.354,8.213-18.354,18.354v8.343c-17.892,4.799-33.896,14.227-46.628,26.949l-7.249-4.187
					c-8.775-5.07-20.001-2.058-25.071,6.717l-8.655,15c-5.07,8.775-2.058,20.001,6.717,25.071l7.229,4.177
					c-4.72,17.641-4.682,36.366,0,53.867l-7.229,4.167c-8.775,5.07-11.787,16.296-6.717,25.071l8.655,15
					c5.07,8.785,16.296,11.787,25.071,6.727l7.249-4.187c12.731,12.711,28.736,22.149,46.628,26.938v8.354
					c0,10.131,8.223,18.344,18.354,18.344c6.061,0,11.269,0,17.33,0c10.131,0,18.354-8.213,18.354-18.344v-8.354
					c17.892-4.789,33.896-14.227,46.628-26.938l7.249,4.187c8.775,5.06,20,2.058,25.071-6.727l8.655-15
					C375.692,182.253,372.68,171.028,363.904,165.958z" fill="none" stroke="#ffffff" stroke-width="15" stroke-linecap="round" stroke-linejoin="round" stroke-miterlimit="10" data-original="#000000" class=""></path>
				<path style="stroke-width:15;stroke-linecap:round;stroke-linejoin:round;stroke-miterlimit:10;" d="
					M459.318,368.954c0,11.004,0,45.358,0,57.18c0,11.165-15.051,14.709-20.041,4.729l-2.55-5.1l-2.55,5.1
					c-4.99,9.98-20.041,6.436-20.041-4.729c0-11.819,0-46.176,0-57.18" fill="none" stroke="#ffffff" stroke-width="15" stroke-linecap="round" stroke-linejoin="round" stroke-miterlimit="10" data-original="#000000" class=""></path>
				<path style="stroke-width:15;stroke-linecap:round;stroke-linejoin:round;stroke-miterlimit:10;" d="
					M504.5,476.216c0,15.623-12.661,28.284-28.284,28.284h-78.978c-15.623,0-28.284-12.661-28.284-28.284
					c0-18.987,0-63.592,0-78.978c0-15.623,12.661-28.284,28.284-28.284c18.337,0,61.007,0,78.978,0
					c15.623,0,28.284,12.661,28.284,28.284C504.5,412.97,504.5,457.631,504.5,476.216z" fill="none" stroke="#ffffff" stroke-width="15" stroke-linecap="round" stroke-linejoin="round" stroke-miterlimit="10" data-original="#000000" class=""></path>
				
					<line style="stroke-width:15;stroke-linecap:round;stroke-linejoin:round;stroke-miterlimit:10;" x1="459.318" y1="406.606" x2="504.5" y2="406.606" fill="none" stroke="#ffffff" stroke-width="15" stroke-linecap="round" stroke-linejoin="round" stroke-miterlimit="10" data-original="#000000" class=""></line>
				
					<line style="stroke-width:15;stroke-linecap:round;stroke-linejoin:round;stroke-miterlimit:10;" x1="414.136" y1="406.606" x2="368.954" y2="406.606" fill="none" stroke="#ffffff" stroke-width="15" stroke-linecap="round" stroke-linejoin="round" stroke-miterlimit="10" data-original="#000000" class=""></line>
				<path style="stroke-width:15;stroke-linecap:round;stroke-linejoin:round;stroke-miterlimit:10;" d="
					M278.591,368.954c0,11.004,0,45.358,0,57.18c0,11.165-15.051,14.709-20.041,4.729l-2.55-5.1l-2.55,5.1
					c-4.99,9.98-20.041,6.436-20.041-4.729c0-11.819,0-46.176,0-57.18" fill="none" stroke="#ffffff" stroke-width="15" stroke-linecap="round" stroke-linejoin="round" stroke-miterlimit="10" data-original="#000000" class=""></path>
				<path style="stroke-width:15;stroke-linecap:round;stroke-linejoin:round;stroke-miterlimit:10;" d="
					M188.23,468.66c0,2.81,0,5.36,0,7.56c0,15.62,12.66,28.28,28.28,28.28h78.98c15.62,0,28.28-12.66,28.28-28.28
					c0-18.59,0-63.25,0-78.98c0-15.62-12.66-28.29-28.28-28.29c-15.07,0-47.05,0-62.08,0h-16.9c-15.62,0-28.28,12.67-28.28,28.29
					c0,7.4,0,21.59,0,36.42" fill="none" stroke="#ffffff" stroke-width="15" stroke-linecap="round" stroke-linejoin="round" stroke-miterlimit="10" data-original="#000000" class=""></path>
				
					<line style="stroke-width:15;stroke-linecap:round;stroke-linejoin:round;stroke-miterlimit:10;" x1="278.591" y1="406.606" x2="323.773" y2="406.606" fill="none" stroke="#ffffff" stroke-width="15" stroke-linecap="round" stroke-linejoin="round" stroke-miterlimit="10" data-original="#000000" class=""></line>
				
					<line style="stroke-width:15;stroke-linecap:round;stroke-linejoin:round;stroke-miterlimit:10;" x1="233.409" y1="406.606" x2="188.227" y2="406.606" fill="none" stroke="#ffffff" stroke-width="15" stroke-linecap="round" stroke-linejoin="round" stroke-miterlimit="10" data-original="#000000" class=""></line>
				<path style="stroke-width:15;stroke-linecap:round;stroke-linejoin:round;stroke-miterlimit:10;" d="
					M436.727,368.954v-14.98c0-25.001-20.262-45.262-45.262-45.262c-15.031,0-255.899,0-270.93,0
					c-25.001,0-45.262,20.262-45.262,45.262v14.98" fill="none" stroke="#ffffff" stroke-width="15" stroke-linecap="round" stroke-linejoin="round" stroke-miterlimit="10" data-original="#000000" class=""></path>
				<path style="stroke-width:15;stroke-linecap:round;stroke-linejoin:round;stroke-miterlimit:10;" d="
					M256,368.954c0-15.073,0-91.627,0-106.75" fill="none" stroke="#ffffff" stroke-width="15" stroke-linecap="round" stroke-linejoin="round" stroke-miterlimit="10" data-original="#000000" class=""></path>
				<path style="stroke-width:15;stroke-linecap:round;stroke-linejoin:round;stroke-miterlimit:10;" d="
					M283.179,134.852c0,15.01-12.169,27.179-27.179,27.179s-27.179-12.169-27.179-27.179c0-15.01,12.169-27.169,27.179-27.169
					S283.179,119.842,283.179,134.852z" fill="none" stroke="#ffffff" stroke-width="15" stroke-linecap="round" stroke-linejoin="round" stroke-miterlimit="10" data-original="#000000" class=""></path>
				<path style="stroke-width:15;stroke-linecap:round;stroke-linejoin:round;stroke-miterlimit:10;" d="
					M97.864,368.954c0,11.004,0,45.358,0,57.18c0,11.165-15.05,14.709-20.041,4.729l-2.55-5.1l-2.55,5.1
					c-4.99,9.98-20.041,6.436-20.041-4.729c0-11.819,0-46.176,0-57.18" fill="none" stroke="#ffffff" stroke-width="15" stroke-linecap="round" stroke-linejoin="round" stroke-miterlimit="10" data-original="#000000" class=""></path>
				<path style="stroke-width:15;stroke-linecap:round;stroke-linejoin:round;stroke-miterlimit:10;" d="
					M143.046,476.216c0,15.623-12.661,28.284-28.284,28.284H35.784C20.161,504.5,7.5,491.839,7.5,476.216
					c0-18.987,0-63.592,0-78.978c0-15.623,12.661-28.284,28.284-28.284c51.852,0-13.769,0,78.978,0
					c15.623,0,28.284,12.661,28.284,28.284C143.046,412.97,143.046,457.631,143.046,476.216z" fill="none" stroke="#ffffff" stroke-width="15" stroke-linecap="round" stroke-linejoin="round" stroke-miterlimit="10" data-original="#000000" class=""></path>
				
					<line style="stroke-width:15;stroke-linecap:round;stroke-linejoin:round;stroke-miterlimit:10;" x1="97.864" y1="406.606" x2="143.046" y2="406.606" fill="none" stroke="#ffffff" stroke-width="15" stroke-linecap="round" stroke-linejoin="round" stroke-miterlimit="10" data-original="#000000" class=""></line>
				
					<line style="stroke-width:15;stroke-linecap:round;stroke-linejoin:round;stroke-miterlimit:10;" x1="52.682" y1="406.606" x2="7.5" y2="406.606" fill="none" stroke="#ffffff" stroke-width="15" stroke-linecap="round" stroke-linejoin="round" stroke-miterlimit="10" data-original="#000000" class=""></line>
			</g>
		</g>
	</g>
</g>















</g></svg>