<svg xmlns="http://www.w3.org/2000/svg" version="1.1" xmlns:xlink="http://www.w3.org/1999/xlink" xmlns:svgjs="http://svgjs.com/svgjs" width="512" height="512" x="0" y="0" viewBox="0 0 496 496" style="enable-background:new 0 0 512 512" xml:space="preserve" class=""><g>
<polygon style="" points="184,56 200,8 280,8 296,56 " fill="#48c397" data-original="#48c397"></polygon>
<rect x="24" y="88" style="" width="272" height="192" fill="#92e0c0" data-original="#92e0c0"></rect>
<rect x="24" y="88" style="" width="272" height="24" fill="#48c397" data-original="#48c397"></rect>
<rect x="24" y="264" style="" width="272" height="192" fill="#92e0c0" data-original="#92e0c0"></rect>
<polygon style="" points="224,312 8,312 8,248 256,248 " fill="#0fa196" data-original="#0fa196" class=""></polygon>
<rect x="24" y="312" style="" width="272" height="24" fill="#48c397" data-original="#48c397"></rect>
<g>
	<rect x="8" y="56" style="" width="304" height="32" fill="#0fa196" data-original="#0fa196" class=""></rect>
	<polygon style="" points="344,488 8,488 8,456 280,456 	" fill="#0fa196" data-original="#0fa196" class=""></polygon>
</g>
<circle style="" cx="344" cy="344" r="144" fill="#ececec" data-original="#ececec"></circle>
<g>
	<circle style="" cx="344" cy="344" r="16" fill="#fcd770" data-original="#fcd770"></circle>
	<path style="" d="M328,384l-40,56.896C304.488,450.448,323.576,456,344,456s39.512-5.552,56-15.104L360,384H328z" fill="#fcd770" data-original="#fcd770"></path>
	<path style="" d="M455.912,344.048c0.024-19.056-4.704-38.36-14.92-56.048c-10.208-17.688-24.568-31.44-41.08-40.944
		l-29.272,63.088l16,27.712L455.912,344.048z" fill="#fcd770" data-original="#fcd770"></path>
	<path style="" d="M317.36,310.144l-29.272-63.088c-16.512,9.504-30.872,23.256-41.08,40.944
		c-10.216,17.688-14.944,37-14.92,56.048l69.272-6.192L317.36,310.144z" fill="#fcd770" data-original="#fcd770"></path>
</g>
<path style="" d="M344,456c-74.112,0-135.096-56.008-143.064-128c-0.576,5.256-0.936,10.584-0.936,16
	c0,79.528,64.472,144,144,144s144-64.472,144-144c0-5.416-0.36-10.744-0.936-16C479.096,399.992,418.112,456,344,456z" fill="#b6c1ce" data-original="#b6c1ce"></path>
<path d="M344,192c-13.864,0-27.232,2.024-40,5.52V96h16V48h-18.232l-16-48h-91.536l-16,48H0v48h16v144H0v80h16v128H0v48h344
	c83.816,0,152-68.184,152-152S427.816,192,344,192z M205.768,16h68.472l10.664,32h-89.8L205.768,16z M32,96h224V80H16V64h288v16h-32
	v16h16v106.824c-20.856,8.304-39.408,21.088-54.544,37.176H32V96z M16,256h204.296c-3.664,5.128-7.104,10.424-10.112,16H128v16
	h74.824c-2.072,5.2-3.816,10.544-5.304,16H16V256z M32,320h162.088c-1.256,7.84-2.088,15.816-2.088,24
	c0,40.24,15.832,76.784,41.456,104H32V320z M16,480v-16h235.048c7.912,6.144,16.432,11.496,25.48,16H16z M344,480
	c-74.992,0-136-61.008-136-136s61.008-136,136-136s136,61.008,136,136S418.992,480,344,480z" fill="#ffffff" data-original="#000000" class=""></path>
<path d="M344,368c13.232,0,24-10.768,24-24s-10.768-24-24-24s-24,10.768-24,24S330.768,368,344,368z M344,336c4.408,0,8,3.584,8,8
	s-3.592,8-8,8s-8-3.584-8-8S339.592,336,344,336z" fill="#ffffff" data-original="#000000" class=""></path>
<path d="M353.456,388.6l34.76,49.448c-27.672,13.064-60.768,13.064-88.44,0l34.76-49.448l-13.088-9.2l-45.024,64.04l7.552,4.376
	C302.264,458.408,323.016,464,344,464s41.736-5.592,60.008-16.184l7.552-4.376l-45.024-64.04L353.456,388.6z" fill="#ffffff" data-original="#000000" class=""></path>
<path d="M447.92,284c-10.488-18.168-25.704-33.336-44.016-43.88l-7.568-4.36l-32.952,71.008l14.512,6.736l25.44-54.832
	c12.576,8.728,23.104,20.112,30.728,33.32c7.632,13.216,12.232,28.024,13.496,43.264l-60.208-5.376l-1.424,15.936l77.976,6.96
	l0.008-8.736C463.944,322.936,458.416,302.168,447.92,284z" fill="#ffffff" data-original="#000000" class=""></path>
<path d="M300.648,329.888l-60.208,5.376c1.264-15.24,5.864-30.048,13.488-43.264c7.632-13.208,18.16-24.592,30.736-33.32
	l25.44,54.832l14.512-6.736l-32.952-71.008l-7.568,4.36c-18.312,10.544-33.528,25.712-44.016,43.88
	c-10.488,18.168-16.016,38.936-15.992,60.056l0.008,8.736l77.976-6.96L300.648,329.888z" fill="#ffffff" data-original="#000000" class=""></path>
<rect x="48" y="112" width="136" height="16" fill="#ffffff" data-original="#000000" class=""></rect>
<rect x="200" y="112" width="16" height="16" fill="#ffffff" data-original="#000000" class=""></rect>
<rect x="32" y="272" width="16" height="16" fill="#ffffff" data-original="#000000" class=""></rect>
<rect x="64" y="272" width="16" height="16" fill="#ffffff" data-original="#000000" class=""></rect>
<rect x="96" y="272" width="16" height="16" fill="#ffffff" data-original="#000000" class=""></rect>
<g>
</g>
<g>
</g>
<g>
</g>
<g>
</g>
<g>
</g>
<g>
</g>
<g>
</g>
<g>
</g>
<g>
</g>
<g>
</g>
<g>
</g>
<g>
</g>
<g>
</g>
<g>
</g>
<g>
</g>
</g></svg>