<svg xmlns="http://www.w3.org/2000/svg" version="1.1" xmlns:xlink="http://www.w3.org/1999/xlink" xmlns:svgjs="http://svgjs.com/svgjs" width="512" height="512" x="0" y="0" viewBox="0 0 512 512" style="enable-background:new 0 0 512 512" xml:space="preserve" class=""><g><g><g><g><path d="m102.127 209.184c4.286 4.069 9.971 6.338 15.881 6.338h361.492c8.284 0 15-6.716 15-15 0-43.089-77.621-78.019-120.709-78.019h-243.36l-12.855-25.379-30.923-40.61c-2.357-4.653-7.13-7.586-12.345-7.586l-13.002.265c-5.463 0-9.73 4.721-9.179 10.156l-12.163 37.775v47.099c0 2.457.653 4.845 1.861 6.932z" fill="#f9f7f8" data-original="#f9f7f8" class=""></path><g><path d="m426.481 132.503h-30c30.872 0 57.556 7.931 70.205 33.947 5.005 10.295 7.813 21.855 7.813 34.072 0 8.284-6.716 15-15 15h30c8.284 0 15-6.716 15-15 0-12.216-2.808-23.777-7.813-34.072-12.648-26.015-39.333-33.947-70.205-33.947z" fill="#e7e2e6" data-original="#e7e2e6"></path></g><path d="m416.481 122.503h-42.69v30.11c0 7.643 6.196 13.839 13.839 13.839h79.057c10.614-18.166-19.334-43.949-50.206-43.949z" fill="#87bee8" data-original="#87bee8" class=""></path><path d="m466.681 166.453h30c-12.65-26.015-39.328-43.949-70.2-43.949h-30c30.872-.001 57.551 17.933 70.2 43.949z" fill="#309bda" data-original="#309bda"></path><path d="m117.576 97.124-29.433-58.106c-2.357-4.653-7.13-7.586-12.346-7.586h-26.654c-5.463 0-9.73 4.721-9.179 10.156v55.536z" fill="#ff7bba" data-original="#ff7bba" class=""></path><path d="m322.118 215.522h-117.608c-8.017 0-14.516-6.499-14.516-14.516 0-8.017 6.499-14.516 14.516-14.516h117.609c8.017 0 14.516 6.499 14.516 14.516-.001 8.017-6.5 14.516-14.517 14.516z" fill="#87bee8" data-original="#87bee8" class=""></path><path d="m332.118 186.49h-30c8.017 0 14.516 6.499 14.516 14.516 0 8.017-6.499 14.516-14.516 14.516h30c8.017 0 14.516-6.499 14.516-14.516 0-8.017-6.499-14.516-14.516-14.516z" fill="#309bda" data-original="#309bda"></path><path d="m111.947 180.186h-89.931c-8.017 0-14.516-6.499-14.516-14.516 0-8.017 6.499-14.516 14.516-14.516h89.931c8.017 0 14.516 6.499 14.516 14.516 0 8.016-6.499 14.516-14.516 14.516z" fill="#87bee8" data-original="#87bee8" class=""></path><path d="m121.947 151.153h-30c8.017 0 14.516 6.499 14.516 14.516s-6.499 14.516-14.516 14.516h30c8.017 0 14.516-6.499 14.516-14.516s-6.499-14.516-14.516-14.516z" fill="#309bda" data-original="#309bda"></path><path d="m171.335 470.567c0 5.523 4.477 10 10 10h139.33c5.523 0 10-4.477 10-10v-149.33c0-5.523-4.477-10-10-10h-45.552l-19.113 8.083-19.113-8.083h-55.552c-5.523 0-10 4.477-10 10z" fill="#ffe270" data-original="#ffe270"></path><path d="m330.665 311.237h-23c5.523 0 10 4.477 10 10v106.248l-10 10.797 10 10.797v21.488c0 5.523-4.477 10-10 10h23c5.523 0 10-4.477 10-10v-149.33c0-5.522-4.477-10-10-10z" fill="#ffc533" data-original="#ffc533" class=""></path><path d="m236.887 311.237v39.114c0 2.986 3.465 4.635 5.782 2.752l11.094-9.014c1.303-1.059 3.169-1.059 4.472 0l4.876 3.962c2.317 1.883 7.503-4.301 7.503-7.287l-7.503-29.528h-26.224z" fill="#ffc533" data-original="#ffc533" class=""></path><g><path d="m263.113 311.237v36.815l6.218 5.052c2.317 1.883 5.782.234 5.782-2.752v-39.114h-12z" fill="#ffb632" data-original="#ffb632" class=""></path></g><path d="m278.257 424.486h36.408c1.657 0 3 1.343 3 3v21.594c0 1.657-1.343 3-3 3h-36.408c-1.657 0-3-1.343-3-3v-21.594c0-1.658 1.343-3 3-3z" fill="#f9f7f8" data-original="#f9f7f8" class=""></path></g></g><g><path d="m185.976 154.393c0 4.142 3.358 7.5 7.5 7.5s7.5-3.358 7.5-7.5c0-4.142-3.358-7.5-7.5-7.5s-7.5 3.358-7.5 7.5z" fill="#ffffff" data-original="#000000" class=""></path><path d="m227.659 154.393c0 4.142 3.358 7.5 7.5 7.5s7.5-3.358 7.5-7.5c0-4.142-3.358-7.5-7.5-7.5s-7.5 3.358-7.5 7.5z" fill="#ffffff" data-original="#000000" class=""></path><path d="m269.341 154.393c0 4.142 3.358 7.5 7.5 7.5s7.5-3.358 7.5-7.5c0-4.142-3.358-7.5-7.5-7.5s-7.5 3.358-7.5 7.5z" fill="#ffffff" data-original="#000000" class=""></path><path d="m326.024 154.393c0-4.142-3.358-7.5-7.5-7.5s-7.5 3.358-7.5 7.5c0 4.142 3.358 7.5 7.5 7.5s7.5-3.358 7.5-7.5z" fill="#ffffff" data-original="#000000" class=""></path><path d="m278.257 416.985c-5.79 0-10.5 4.71-10.5 10.5v21.594c0 5.79 4.71 10.5 10.5 10.5h36.408c5.79 0 10.5-4.71 10.5-10.5v-21.594c0-5.79-4.71-10.5-10.5-10.5zm31.908 27.594h-27.408v-12.594h27.408z" fill="#ffffff" data-original="#000000" class=""></path><path d="m62.895 158.653c4.143 0 7.5-3.357 7.5-7.5s-3.357-7.5-7.5-7.5h-15.431v-39.029h65.503l10.773 21.269c1.277 2.522 3.863 4.111 6.69 4.111l141.777-.001c4.143 0 7.5-3.358 7.5-7.5 0-4.143-3.358-7.5-7.5-7.5l-137.169.001-40.204-79.375c-3.655-7.215-10.949-11.696-19.036-11.696h-26.654c-4.721 0-9.244 2.009-12.41 5.511-3.067 3.394-4.61 7.916-4.269 12.468v101.742h-10.448c-12.14-.001-22.017 9.875-22.017 22.015s9.877 22.017 22.017 22.017h46.954l27.993 26.938c5.705 5.416 13.179 8.399 21.044 8.399h7.35l53.771 80.869c-8.609 1.09-15.294 8.445-15.294 17.345v149.33c0 9.649 7.85 17.5 17.5 17.5h149.33c9.65 0 17.5-7.851 17.5-17.5v-74.37c0-4.143-3.357-7.5-7.5-7.5s-7.5 3.357-7.5 7.5v74.37c0 1.379-1.121 2.5-2.5 2.5h-149.33c-1.379 0-2.5-1.121-2.5-2.5v-149.33c0-1.379 1.121-2.5 2.5-2.5h48.053v31.614c0 4.304 2.414 8.126 6.3 9.975 1.532.729 3.157 1.087 4.77 1.087 2.477 0 4.92-.845 6.942-2.488l8.601-6.988 8.6 6.986c3.337 2.714 7.823 3.254 11.713 1.403 3.886-1.849 6.3-5.671 6.3-9.975v-31.614h48.053c1.379 0 2.5 1.121 2.5 2.5v42.274c0 4.143 3.357 7.5 7.5 7.5s7.5-3.357 7.5-7.5v-42.274c0-8.901-6.685-16.255-15.294-17.345l53.772-80.869h102.855c12.406 0 22.5-10.094 22.5-22.5 0-47.155-38.363-85.52-85.519-85.52h-118.816c-4.143 0-7.5 3.357-7.5 7.5s3.357 7.5 7.5 7.5h58.626v22.61c0 11.767 9.572 21.34 21.339 21.34h104.157c3.351 8.206 5.213 17.172 5.213 26.569 0 4.136-3.364 7.5-7.5 7.5h-106.906c-.01 0-.021 0-.031 0h-29.581c.744-2.206 1.153-4.564 1.153-7.017 0-12.14-9.877-22.017-22.017-22.017h-127.608c-12.14 0-22.017 9.877-22.017 22.017 0 2.453.409 4.811 1.153 7.017h-54.208c-.011 0-.021 0-.031 0h-11.399c-4.005 0-7.812-1.52-10.681-4.242l-16.724-16.095h31.345c12.14 0 22.016-9.877 22.016-22.017s-9.876-22.016-22.016-22.016h-26.367c-4.143 0-7.5 3.357-7.5 7.5s3.357 7.5 7.5 7.5h26.366c3.868 0 7.016 3.147 7.016 7.016s-3.148 7.017-7.016 7.017h-99.93c-3.869 0-7.017-3.147-7.017-7.017 0-3.868 3.147-7.016 7.017-7.016h40.878zm-15.033-119.152c.234-.259.647-.568 1.281-.568h26.654c2.402 0 4.569 1.332 5.655 3.475l23.916 47.217h-57.904v-48.036c0-.253-.013-.505-.038-.756-.065-.631.202-1.072.436-1.332zm149.631 161.505c0-3.869 3.147-7.017 7.017-7.017h127.608c3.869 0 7.017 3.147 7.017 7.017 0 3.869-3.147 7.017-7.017 7.017h-127.608c-3.869 0-7.017-3.148-7.017-7.017zm70.119 141.038-4.647-3.774c-4.037-3.281-9.896-3.28-13.932-.001l-4.646 3.775v-23.307h23.225zm47.349-38.307h-118.078c-.177-.412-.388-.816-.645-1.203l-52.868-79.512h225.26zm72.669-144.784c-3.495 0-6.339-2.844-6.339-6.34v-22.61h45.19c23.35 0 44.074 11.416 56.916 28.95z" fill="#ffffff" data-original="#000000" class=""></path></g></g></g></svg>