<svg xmlns="http://www.w3.org/2000/svg" version="1.1" xmlns:xlink="http://www.w3.org/1999/xlink" xmlns:svgjs="http://svgjs.com/svgjs" width="512" height="512" x="0" y="0" viewBox="0 0 512 512" style="enable-background:new 0 0 512 512" xml:space="preserve" class=""><g><g id="Layer_2"><g><g><path d="m228.396 373.151h-208.781v-121.022c0-33.124 71.267-104.391 104.391-104.391h74.955c16.257 0 29.435 13.179 29.435 29.435z" fill="#f8d250" data-original="#f8d250"></path><path d="m147.314 147.738h-23.309c-33.124 0-104.391 71.267-104.391 104.391v121.022h23.309v-121.022c0-33.124 71.267-104.391 104.391-104.391z" fill="#f8ae46" data-original="#f8ae46"></path><path d="m189.503 232.684-143.961 36.639v-21.33c0-22.84 49.14-71.98 71.98-71.98h71.98v56.671z" fill="#68c0e0" data-original="#68c0e0"></path><path d="m228.396 260.288h262.27v112.863h-262.27z" fill="#f8d250" data-original="#f8d250"></path><path d="m228.396 259.288h23.309v112.863h-23.309z" fill="#f8ae46" data-original="#f8ae46"></path><circle cx="124.006" cy="373.151" fill="#494a47" r="50.025" data-original="#494a47"></circle><path d="m97.281 373.151c0-23.615 16.368-43.395 38.375-48.647-3.74-.892-7.637-1.378-11.65-1.378-27.628 0-50.025 22.397-50.025 50.025s22.397 50.025 50.025 50.025c4.013 0 7.911-.486 11.65-1.378-22.007-5.252-38.375-25.032-38.375-48.647z" fill="#333331" data-original="#333331"></path><circle cx="124.006" cy="373.151" fill="#cdcdc6" r="26.5" data-original="#cdcdc6"></circle><circle cx="392.574" cy="373.151" fill="#494a47" r="50.025" data-original="#494a47"></circle><path d="m365.858 373.151c0-23.614 16.366-43.393 38.371-48.646-3.741-.893-7.64-1.379-11.654-1.379-27.628 0-50.025 22.397-50.025 50.025s22.397 50.025 50.025 50.025c4.014 0 7.913-.486 11.654-1.379-22.005-5.253-38.371-25.032-38.371-48.646z" fill="#333331" data-original="#333331"></path><g fill="#cdcdc6"><path d="m28.882 373.151h-8.949c-6.853 0-12.409-5.556-12.409-12.409v-7.219c0-6.853 5.556-12.409 12.409-12.409h8.949z" fill="#cdcdc6" data-original="#cdcdc6"></path><path d="m483.118 373.151h8.949c6.853 0 12.409-5.556 12.409-12.409v-7.219c0-6.853-5.556-12.409-12.409-12.409h-8.949z" fill="#cdcdc6" data-original="#cdcdc6"></path><circle cx="392.574" cy="373.151" r="26.5" fill="#cdcdc6" data-original="#cdcdc6"></circle></g><g><path d="m228.396 174.505h85.681v85.681h-85.681z" fill="#ffcebf" data-original="#ffcebf" class=""></path><path d="m228.396 174.505h23.309v85.681h-23.309z" fill="#ffb09e" data-original="#ffb09e"></path><path d="m257.531 174.505h27.413v20.16h-27.413z" fill="#e15f4f" data-original="#e15f4f"></path></g><g><path d="m314.078 174.505h85.681v85.681h-85.681z" fill="#ffcebf" data-original="#ffcebf" class=""></path><path d="m343.212 174.505h27.413v20.16h-27.413z" fill="#e15f4f" data-original="#e15f4f"></path></g><g><path d="m399.759 174.505h85.681v85.681h-85.681z" fill="#ffcebf" data-original="#ffcebf" class=""></path><path d="m428.893 174.505h27.413v20.16h-27.413z" fill="#e15f4f" data-original="#e15f4f"></path></g><g><path d="m228.396 88.824h85.681v85.681h-85.681z" fill="#ffcebf" data-original="#ffcebf" class=""></path><path d="m228.396 88.824h23.309v85.681h-23.309z" fill="#ffb09e" data-original="#ffb09e"></path><path d="m257.531 88.824h27.413v20.16h-27.413z" fill="#e15f4f" data-original="#e15f4f"></path></g><g><path d="m314.078 88.824h85.681v85.681h-85.681z" fill="#ffcebf" data-original="#ffcebf" class=""></path><path d="m343.212 88.824h27.413v20.16h-27.413z" fill="#e15f4f" data-original="#e15f4f"></path></g><g><path d="m399.759 88.824h85.681v85.681h-85.681z" fill="#ffcebf" data-original="#ffcebf" class=""></path><path d="m428.893 88.824h27.413v20.16h-27.413z" fill="#e15f4f" data-original="#e15f4f"></path></g><path d="m195.699 373.151h118.378v30.58h-118.378z" fill="#333331" data-original="#333331"></path></g><path d="m189.503 171.013h-71.98c-14.157 0-34.125 14.924-48.091 28.89s-28.89 33.934-28.89 48.091v21.33c0 1.543.713 3 1.932 3.947.887.689 1.969 1.053 3.068 1.053.412 0 .826-.051 1.233-.154l143.961-36.64c2.216-.564 3.767-2.56 3.767-4.846v-56.671c0-2.762-2.238-5-5-5zm-5 57.784-133.961 34.095v-14.898c0-20.031 46.949-66.98 66.98-66.98h66.98v47.783z" fill="#000000" data-original="#000000" class=""></path><path d="m124.006 341.651c-17.37 0-31.501 14.131-31.501 31.5s14.131 31.5 31.501 31.5c17.369 0 31.5-14.131 31.5-31.5s-14.131-31.5-31.5-31.5zm0 53c-11.855 0-21.501-9.645-21.501-21.5s9.646-21.5 21.501-21.5 21.5 9.645 21.5 21.5-9.645 21.5-21.5 21.5z" fill="#000000" data-original="#000000" class=""></path><path d="m495.667 336.493v-76.205c0-2.762-2.238-5-5-5h-.227v-166.465c0-2.762-2.238-5-5-5h-29.135-27.412-29.135-29.134-27.413-29.134-29.135-27.412-29.134c-2.762 0-5 2.238-5 5v64.114c-6.243-6.294-14.891-10.199-24.436-10.199h-74.955c-19.844 0-48.217 21.303-68.152 41.238s-41.238 48.309-41.238 68.152v84.823c-7.005 2.253-12.091 8.827-12.091 16.571v7.219c0 9.6 7.81 17.409 17.408 17.409h49.285c2.536 28.005 26.133 50.025 54.788 50.025s52.251-22.021 54.787-50.025h11.906v25.58c0 2.762 2.238 5 5 5h118.379c2.762 0 5-2.238 5-5v-25.58h18.709c2.536 28.005 26.132 50.025 54.787 50.025s52.252-22.021 54.788-50.025h35.756 7.549 1.4c9.599 0 17.408-7.81 17.408-17.409v-7.219c.002-8.364-5.93-15.365-13.807-17.029zm-61.773-242.67h17.412v10.161h-17.412zm-29.135 0h19.135v15.161c0 2.762 2.238 5 5 5h27.412c2.762 0 5-2.238 5-5v-15.161h19.135v75.682h-24.135-27.412-24.135zm46.547 85.682v10.16h-17.412v-10.16zm-46.547 0h19.135v15.16c0 2.762 2.238 5 5 5h27.412c2.762 0 5-2.238 5-5v-15.16h19.135v75.682h-75.682zm-56.547-85.682h17.413v10.161h-17.413zm-29.134 0h19.134v15.161c0 2.762 2.238 5 5 5h27.413c2.762 0 5-2.238 5-5v-15.161h19.134v75.682h-24.134-27.413-24.134zm46.547 85.682v10.16h-17.413v-10.16zm-46.547 0h19.134v15.16c0 2.762 2.238 5 5 5h27.413c2.762 0 5-2.238 5-5v-15.16h19.134v75.682h-75.681zm-56.548-85.682h17.413v10.161h-17.413zm-29.134 0h19.134v15.161c0 2.762 2.238 5 5 5h27.413c2.762 0 5-2.238 5-5v-15.161h19.135v75.682h-24.135-27.413-24.134zm46.547 85.682v10.16h-17.413v-10.16zm-46.547 0h19.134v15.16c0 2.762 2.238 5 5 5h27.413c2.762 0 5-2.238 5-5v-15.16h19.135v75.682h-75.682zm-209.514 188.646h-3.949c-4.085 0-7.408-3.324-7.408-7.409v-7.219c0-4.085 3.323-7.409 7.408-7.409h3.949zm100.124 50.026c-24.827 0-45.025-20.198-45.025-45.025s20.198-45.025 45.025-45.025c24.826 0 45.024 20.198 45.024 45.025s-20.198 45.025-45.024 45.025zm54.787-50.026c-2.536-28.005-26.132-50.025-54.787-50.025s-52.252 22.021-54.788 50.025h-35.336v-27.037c0-2.762-2.238-5-5-5h-4.267v-83.985c0-13.62 15.396-38.167 38.31-61.081s47.46-38.31 61.081-38.31h74.955c13.474 0 24.436 10.962 24.436 24.436v190.978h-27.697-16.907zm130.285 30.58h-108.379v-20.58h108.379zm83.496 19.446c-24.826 0-45.024-20.198-45.024-45.025s20.198-45.025 45.024-45.025c24.827 0 45.025 20.198 45.025 45.025s-20.198 45.025-45.025 45.025zm93.093-82.063h-2.549c-2.762 0-5 2.238-5 5v27.037h-30.756c-2.536-28.005-26.133-50.025-54.788-50.025s-52.251 22.021-54.787 50.025h-104.391v-73.576h252.271zm0-51.539h-252.271v-19.287h252.271zm13.809 76.167c0 4.085-3.323 7.409-7.408 7.409h-3.949v-22.037h3.949c4.085 0 7.408 3.324 7.408 7.409z" fill="#000000" data-original="#000000" class=""></path><path d="m392.574 341.651c-17.369 0-31.5 14.131-31.5 31.5s14.131 31.5 31.5 31.5c17.37 0 31.501-14.131 31.501-31.5s-14.131-31.5-31.501-31.5zm0 53c-11.855 0-21.5-9.645-21.5-21.5s9.645-21.5 21.5-21.5 21.501 9.645 21.501 21.5-9.645 21.5-21.501 21.5z" fill="#000000" data-original="#000000" class=""></path></g></g></g></svg>