<svg xmlns="http://www.w3.org/2000/svg" version="1.1" xmlns:xlink="http://www.w3.org/1999/xlink" xmlns:svgjs="http://svgjs.com/svgjs" width="512" height="512" x="0" y="0" viewBox="0 0 682.66669 682.66669" style="enable-background:new 0 0 512 512" xml:space="preserve" class=""><g><defs id="defs1840"><clipPath clipPathUnits="userSpaceOnUse" id="clipPath1850"><path d="M 0,512 H 512 V 0 H 0 Z" id="path1848" fill="#ffffff" data-original="#000000"></path></clipPath></defs><g id="g1842" transform="matrix(1.3333333,0,0,-1.3333333,0,682.66667)"><g id="g1844"><g id="g1846" clip-path="url(#clipPath1850)"><g id="g1852" transform="translate(315.4619,403.9902)"><path d="M 0,0 -29.462,17.01 0,34.02 C 7.174,38.162 9.632,47.335 5.49,54.51 1.348,61.684 -7.826,64.143 -15,60 L -44.462,42.991 V 77.01 c 0,8.284 -6.716,15 -15,15 -8.284,0 -15,-6.716 -15,-15 V 42.991 L -103.924,60 c -7.174,4.143 -16.347,1.684 -20.49,-5.49 -4.142,-7.175 -1.684,-16.348 5.49,-20.49 L -89.462,17.01 -118.924,0 c -7.174,-4.142 -9.632,-13.316 -5.49,-20.49 4.143,-7.175 13.316,-9.633 20.49,-5.49 l 29.462,17.009 V -42.99 c 0,-8.284 6.716,-15 15,-15 8.284,0 15,6.716 15,15 V -8.971 L -15,-25.98 c 7.174,-4.143 16.348,-1.685 20.49,5.49 C 9.632,-13.316 7.174,-4.142 0,0" style="fill-opacity:1;fill-rule:nonzero;stroke:none" id="path1854" fill="#93faec" data-original="#93faec"></path></g><g id="g1856" transform="translate(474.5,16)"><path d="M 0,0 -111.4,166.364 0,300 H 30 V 0 Z" style="fill-opacity:1;fill-rule:nonzero;stroke:none" id="path1858" fill="#4ad6ff" data-original="#4ad6ff"></path></g><g id="g1860" transform="translate(37.5,16)"><path d="M 0,0 111.4,166.364 0,300 H -30 V 0 Z" style="fill-opacity:1;fill-rule:nonzero;stroke:none" id="path1862" fill="#8de5ff" data-original="#8de5ff"></path></g><g id="g1864" transform="translate(474.5,316)"><path d="M 0,0 H -30 L -111.4,-133.636 -30,-300 H 0 v 60 L -30,-133.636 0,-30 Z" style="fill-opacity:1;fill-rule:nonzero;stroke:none" id="path1866" fill="#8de5ff" data-original="#8de5ff"></path></g><g id="g1868" transform="translate(37.5,316)"><path d="M 0,0 V -30 L 30,-135 0,-240 v -60 h 97.015 l 40.699,15 40.7,-15 h 80.172 l 40.7,15 40.699,-15 H 407 V 0 Z" style="fill-opacity:1;fill-rule:nonzero;stroke:none" id="path1870" fill="#c6f2ff" data-original="#c6f2ff"></path></g><path d="m 134.515,16 h 81.399 v 30 h -81.399 z" style="fill-opacity:1;fill-rule:nonzero;stroke:none" id="path1872" fill="#34b9e0" data-original="#34b9e0"></path><path d="m 296.086,16 h 81.399 v 30 h -81.399 z" style="fill-opacity:1;fill-rule:nonzero;stroke:none" id="path1874" fill="#34b9e0" data-original="#34b9e0"></path><g id="g1876" transform="translate(474.5,286)"><path d="M 0,0 H -30 L -111.4,-103.939 -30,-210 H 0 Z" style="fill-opacity:1;fill-rule:nonzero;stroke:none" id="path1878" fill="#34b9e0" data-original="#34b9e0"></path></g><g id="g1880" transform="translate(444.5,76)"><path d="M 0,0 H -407 V 210 H 0 V 180 L -30,105 0,30 Z" style="fill-opacity:1;fill-rule:nonzero;stroke:none" id="path1882" fill="#4ad6ff" data-original="#4ad6ff"></path></g><g id="g1884" transform="translate(390.6426,256)"><path d="M 0,0 -30,-75 0,-150 H 53.857 V 0 Z" style="fill-opacity:1;fill-rule:nonzero;stroke:none" id="path1886" fill="#c6f2ff" data-original="#c6f2ff"></path></g><g id="g1888" transform="translate(336.7861,256)"><path d="M 0,0 -30,-75 0,-150 H 53.856 V 0 Z" style="fill-opacity:1;fill-rule:nonzero;stroke:none" id="path1890" fill="#ffffff" data-original="#ffffff" class=""></path></g><g id="g1892" transform="translate(282.9287,256)"><path d="M 0,0 -30,-75 0,-150 H 53.857 V 0 Z" style="fill-opacity:1;fill-rule:nonzero;stroke:none" id="path1894" fill="#c6f2ff" data-original="#c6f2ff"></path></g><g id="g1896" transform="translate(229.0713,256)"><path d="M 0,0 -30,-75 0,-150 H 53.857 V 0 Z" style="fill-opacity:1;fill-rule:nonzero;stroke:none" id="path1898" fill="#ffffff" data-original="#ffffff" class=""></path></g><g id="g1900" transform="translate(175.2139,256)"><path d="M 0,0 -30,-75 0,-150 H 53.857 V 0 Z" style="fill-opacity:1;fill-rule:nonzero;stroke:none" id="path1902" fill="#c6f2ff" data-original="#c6f2ff"></path></g><g id="g1904" transform="translate(121.3574,256)"><path d="M 0,0 -30,-75 0,-150 H 53.856 V 0 Z" style="fill-opacity:1;fill-rule:nonzero;stroke:none" id="path1906" fill="#ffffff" data-original="#ffffff" class=""></path></g><path d="m 67.5,106 h 53.857 V 256 H 67.5 Z" style="fill-opacity:1;fill-rule:nonzero;stroke:none" id="path1908" fill="#c6f2ff" data-original="#c6f2ff"></path><g id="g1910" transform="translate(315.4619,403.9902)"><path d="M 0,0 -29.462,17.01 0,34.02 C 7.174,38.162 9.632,47.335 5.49,54.51 1.348,61.684 -7.826,64.143 -15,60 L -44.462,42.991 V 77.01 c 0,8.284 -6.716,15 -15,15 -8.284,0 -15,-6.716 -15,-15 V 42.991 L -103.924,60 c -7.174,4.143 -16.347,1.684 -20.49,-5.49 -4.142,-7.175 -1.684,-16.348 5.49,-20.49 L -89.462,17.01 -118.924,0 c -7.174,-4.142 -9.632,-13.316 -5.49,-20.49 4.143,-7.175 13.316,-9.633 20.49,-5.49 l 29.462,17.009 V -42.99 c 0,-8.284 6.716,-15 15,-15 8.284,0 15,6.716 15,15 V -8.971 L -15,-25.98 c 7.174,-4.143 16.348,-1.685 20.49,5.49 C 9.632,-13.316 7.174,-4.142 0,0 Z" style="stroke-width:15;stroke-linecap:round;stroke-linejoin:round;stroke-miterlimit:10;stroke-dasharray:none;stroke-opacity:1" id="path1912" fill="none" stroke="#ffffff" stroke-width="15" stroke-linecap="round" stroke-linejoin="round" stroke-miterlimit="10" stroke-dasharray="none" stroke-opacity="" data-original="#000000"></path></g><path d="M 504.5,16 H 7.5 v 300 h 497 z" style="stroke-width:15;stroke-linecap:round;stroke-linejoin:round;stroke-miterlimit:10;stroke-dasharray:none;stroke-opacity:1" id="path1914" fill="none" stroke="#ffffff" stroke-width="15" stroke-linecap="round" stroke-linejoin="round" stroke-miterlimit="10" stroke-dasharray="none" stroke-opacity="" data-original="#000000"></path><path d="m 67.5,256 h 377 V 106 h -377 z" style="stroke-width:15;stroke-linecap:round;stroke-linejoin:round;stroke-miterlimit:10;stroke-dasharray:none;stroke-opacity:1" id="path1916" fill="none" stroke="#ffffff" stroke-width="15" stroke-linecap="round" stroke-linejoin="round" stroke-miterlimit="10" stroke-dasharray="none" stroke-opacity="" data-original="#000000"></path><g id="g1918" transform="translate(121.3574,106)"><path d="M 0,0 V 150" style="stroke-width:15;stroke-linecap:round;stroke-linejoin:round;stroke-miterlimit:10;stroke-dasharray:none;stroke-opacity:1" id="path1920" fill="none" stroke="#ffffff" stroke-width="15" stroke-linecap="round" stroke-linejoin="round" stroke-miterlimit="10" stroke-dasharray="none" stroke-opacity="" data-original="#000000"></path></g><g id="g1922" transform="translate(175.2139,106)"><path d="M 0,0 V 150" style="stroke-width:15;stroke-linecap:round;stroke-linejoin:round;stroke-miterlimit:10;stroke-dasharray:none;stroke-opacity:1" id="path1924" fill="none" stroke="#ffffff" stroke-width="15" stroke-linecap="round" stroke-linejoin="round" stroke-miterlimit="10" stroke-dasharray="none" stroke-opacity="" data-original="#000000"></path></g><g id="g1926" transform="translate(229.0713,106)"><path d="M 0,0 V 150" style="stroke-width:15;stroke-linecap:round;stroke-linejoin:round;stroke-miterlimit:10;stroke-dasharray:none;stroke-opacity:1" id="path1928" fill="none" stroke="#ffffff" stroke-width="15" stroke-linecap="round" stroke-linejoin="round" stroke-miterlimit="10" stroke-dasharray="none" stroke-opacity="" data-original="#000000"></path></g><g id="g1930" transform="translate(282.9287,106)"><path d="M 0,0 V 150" style="stroke-width:15;stroke-linecap:round;stroke-linejoin:round;stroke-miterlimit:10;stroke-dasharray:none;stroke-opacity:1" id="path1932" fill="none" stroke="#ffffff" stroke-width="15" stroke-linecap="round" stroke-linejoin="round" stroke-miterlimit="10" stroke-dasharray="none" stroke-opacity="" data-original="#000000"></path></g><g id="g1934" transform="translate(336.7861,106)"><path d="M 0,0 V 150" style="stroke-width:15;stroke-linecap:round;stroke-linejoin:round;stroke-miterlimit:10;stroke-dasharray:none;stroke-opacity:1" id="path1936" fill="none" stroke="#ffffff" stroke-width="15" stroke-linecap="round" stroke-linejoin="round" stroke-miterlimit="10" stroke-dasharray="none" stroke-opacity="" data-original="#000000"></path></g><g id="g1938" transform="translate(390.6426,106)"><path d="M 0,0 V 150" style="stroke-width:15;stroke-linecap:round;stroke-linejoin:round;stroke-miterlimit:10;stroke-dasharray:none;stroke-opacity:1" id="path1940" fill="none" stroke="#ffffff" stroke-width="15" stroke-linecap="round" stroke-linejoin="round" stroke-miterlimit="10" stroke-dasharray="none" stroke-opacity="" data-original="#000000"></path></g><g id="g1942" transform="translate(37.5,286)"><path d="M 0,0 H 437" style="stroke-width:15;stroke-linecap:round;stroke-linejoin:round;stroke-miterlimit:10;stroke-dasharray:none;stroke-opacity:1" id="path1944" fill="none" stroke="#ffffff" stroke-width="15" stroke-linecap="round" stroke-linejoin="round" stroke-miterlimit="10" stroke-dasharray="none" stroke-opacity="" data-original="#000000"></path></g><g id="g1946" transform="translate(37.5,106)"><path d="M 0,0 V 210" style="stroke-width:15;stroke-linecap:round;stroke-linejoin:round;stroke-miterlimit:10;stroke-dasharray:none;stroke-opacity:1" id="path1948" fill="none" stroke="#ffffff" stroke-width="15" stroke-linecap="round" stroke-linejoin="round" stroke-miterlimit="10" stroke-dasharray="none" stroke-opacity="" data-original="#000000"></path></g><g id="g1950" transform="translate(37.5,16)"><path d="M 0,0 V 60 H 437" style="stroke-width:15;stroke-linecap:round;stroke-linejoin:round;stroke-miterlimit:10;stroke-dasharray:none;stroke-opacity:1" id="path1952" fill="none" stroke="#ffffff" stroke-width="15" stroke-linecap="round" stroke-linejoin="round" stroke-miterlimit="10" stroke-dasharray="none" stroke-opacity="" data-original="#000000"></path></g><g id="g1954" transform="translate(474.5,316)"><path d="M 0,0 V -300" style="stroke-width:15;stroke-linecap:round;stroke-linejoin:round;stroke-miterlimit:10;stroke-dasharray:none;stroke-opacity:1" id="path1956" fill="none" stroke="#ffffff" stroke-width="15" stroke-linecap="round" stroke-linejoin="round" stroke-miterlimit="10" stroke-dasharray="none" stroke-opacity="" data-original="#000000"></path></g><g id="g1958" transform="translate(134.5146,16)"><path d="M 0,0 V 30 H 81.399 V 0" style="stroke-width:15;stroke-linecap:round;stroke-linejoin:round;stroke-miterlimit:10;stroke-dasharray:none;stroke-opacity:1" id="path1960" fill="none" stroke="#ffffff" stroke-width="15" stroke-linecap="round" stroke-linejoin="round" stroke-miterlimit="10" stroke-dasharray="none" stroke-opacity="" data-original="#000000"></path></g><g id="g1962" transform="translate(299.7715,16)"><path d="M 0,0 V 30 H 77.714 V 0" style="stroke-width:15;stroke-linecap:round;stroke-linejoin:round;stroke-miterlimit:10;stroke-dasharray:none;stroke-opacity:1" id="path1964" fill="none" stroke="#ffffff" stroke-width="15" stroke-linecap="round" stroke-linejoin="round" stroke-miterlimit="10" stroke-dasharray="none" stroke-opacity="" data-original="#000000"></path></g></g></g></g></g></svg>