<svg xmlns="http://www.w3.org/2000/svg" version="1.1" xmlns:xlink="http://www.w3.org/1999/xlink" xmlns:svgjs="http://svgjs.com/svgjs" width="512" height="512" x="0" y="0" viewBox="0 0 512 512" style="enable-background:new 0 0 512 512" xml:space="preserve" class=""><g><g id="Filledoutline"><path d="m309.31 109.28h-106.62l14.91-37.28 10.65-26.62h55.5l10.65 26.62z" fill="#e3e4e2" data-original="#e3e4e2"></path><path d="m344 152 40-8v-48h-256v48l40 8z" fill="#b2b1b4" data-original="#b2b1b4"></path><path d="m168 128h176v120h-176z" fill="#e3e4e2" data-original="#e3e4e2"></path><path d="m112 200h96v104h-96z" fill="#0093b9" data-original="#0093b9"></path><path d="m208 200h96v104h-96z" fill="#85bb40" data-original="#85bb40"></path><path d="m304 200h96v104h-96z" fill="#f8bc1e" data-original="#f8bc1e"></path><path d="m96 288h160v112h-160z" fill="#f8bc1e" data-original="#f8bc1e"></path><path d="m256 288h160v112h-160z" fill="#eb5849" transform="matrix(-1 0 0 -1 672 688)" data-original="#eb5849"></path><path d="m440 392-16 64s-12 16.8-43.9 32h-248.2c-31.9-15.2-43.9-32-43.9-32l-16-64 184-24z" fill="#0093b9" data-original="#0093b9"></path><path d="m430 432-6 24s-12 16.8-43.9 32h-248.2c-31.9-15.2-43.9-32-43.9-32l-6-24z" fill="#eb5849" data-original="#eb5849"></path><path d="m488 496h-464v-40c29 0 29 16 58 16s29-16 58-16 29 16 58 16 29-16 58-16 29 16 58 16 29-16 58-16 29 16 58 16 29-16 58-16z" fill="#0093b9" data-original="#0093b9"></path><path d="m294.4 72h-76.8l10.65-26.62h55.5z" fill="#c9c9c8" data-original="#c9c9c8" class=""></path><path d="m200 24h112a0 0 0 0 1 0 0v16a16 16 0 0 1 -16 16h-80a16 16 0 0 1 -16-16v-16a0 0 0 0 1 0 0z" fill="#e3e4e2" data-original="#e3e4e2"></path><path d="m280 400h16v16h-16z" fill="#ffffff" data-original="#000000" class=""></path><path d="m216 400h16v16h-16z" fill="#ffffff" data-original="#000000" class=""></path><path d="m455.134 457c-6.813 3.759-12.7 7-25.138 7s-18.324-3.246-25.137-7c-7.643-4.216-16.305-9-32.866-9s-25.223 4.779-32.866 9c-6.812 3.759-12.695 7-25.135 7s-18.323-3.246-25.136-7c-7.642-4.216-16.3-9-32.864-9s-25.221 4.779-32.863 9c-6.812 3.759-12.695 7-25.133 7s-18.323-3.246-25.135-7c-7.642-4.216-16.3-9-32.864-9s-25.223 4.779-32.865 9c-6.812 3.759-12.7 7-25.135 7s-18.322-3.246-25.134-7c-7.642-4.216-16.3-9-32.863-9v16c12.438 0 18.322 3.246 25.134 7 7.642 4.216 16.3 9 32.863 9s25.223-4.779 32.865-9c6.812-3.759 12.7-7 25.135-7s18.322 3.246 25.134 7c7.642 4.216 16.305 9 32.865 9s25.221-4.779 32.862-9c6.812-3.759 12.695-7 25.134-7s18.322 3.246 25.135 7c7.642 4.216 16.3 9 32.865 9s25.222-4.779 32.865-9c6.812-3.759 12.7-7 25.136-7s18.324 3.246 25.137 7c7.643 4.216 16.305 9 32.866 9s25.224-4.779 32.866-9c6.813-3.759 12.7-7 25.138-7v-16c-16.562 0-25.224 4.779-32.866 9z" fill="#ffffff" data-original="#000000" class=""></path><path d="m78.239 449.94 15.522-3.88-11.822-47.289 166.061-21.66v54.889h16v-54.889l166.061 21.66-11.822 47.289 15.522 3.88 14-56a8 8 0 0 0 -6.726-9.873l-184-24a8.058 8.058 0 0 0 -2.07 0l-184 24a8 8 0 0 0 -6.726 9.873z" fill="#ffffff" data-original="#000000" class=""></path><path d="m104 296h144v48h16v-48h144v72h16v-80a8 8 0 0 0 -8-8h-8v-80a8 8 0 0 0 -8-8h-288a8 8 0 0 0 -8 8v80h-8a8 8 0 0 0 -8 8v80h16zm112-16v-72h80v72zm176 0h-80v-72h80zm-272-72h80v72h-80z" fill="#ffffff" data-original="#000000" class=""></path><path d="m120 312h16v48h-16z" fill="#ffffff" data-original="#000000" class=""></path><path d="m152 312h16v40h-16z" fill="#ffffff" data-original="#000000" class=""></path><path d="m184 312h16v40h-16z" fill="#ffffff" data-original="#000000" class=""></path><path d="m216 312h16v40h-16z" fill="#ffffff" data-original="#000000" class=""></path><path d="m376 312h16v48h-16z" fill="#ffffff" data-original="#000000" class=""></path><path d="m344 312h16v40h-16z" fill="#ffffff" data-original="#000000" class=""></path><path d="m312 312h16v40h-16z" fill="#ffffff" data-original="#000000" class=""></path><path d="m280 312h16v40h-16z" fill="#ffffff" data-original="#000000" class=""></path><path d="m120 144a8 8 0 0 0 6.431 7.845l33.569 6.713v17.442h16v-40h160v40h16v-17.442l33.569-6.713a8 8 0 0 0 6.431-7.845v-16h16v-16h-16v-16a8 8 0 0 0 -8-8h-74.584l-9.716-24.286a24.038 24.038 0 0 0 20.3-23.714v-16a8 8 0 0 0 -8-8h-112a8 8 0 0 0 -8 8v16a24.038 24.038 0 0 0 20.3 23.714l-9.716 24.286h-74.584a8 8 0 0 0 -8 8v16h-16v16h16zm88-104v-8h96v8a8.009 8.009 0 0 1 -8 8h-80a8.009 8.009 0 0 1 -8-8zm21.416 24h53.168l9.6 24h-72.368zm-93.416 40h240v33.441l-24 4.8v-14.241a8 8 0 0 0 -8-8h-176a8 8 0 0 0 -8 8v14.241l-24-4.8z" fill="#ffffff" data-original="#000000" class=""></path><path d="m191.759 152.018h32v16h-32z" fill="#ffffff" data-original="#000000" class=""></path><path d="m240 152h32v16h-32z" fill="#ffffff" data-original="#000000" class=""></path><path d="m288 152h32v16h-32z" fill="#ffffff" data-original="#000000" class=""></path><path d="m136 224h16v40h-16z" fill="#ffffff" data-original="#000000" class=""></path><path d="m168 224h16v40h-16z" fill="#ffffff" data-original="#000000" class=""></path><path d="m232 224h16v40h-16z" fill="#ffffff" data-original="#000000" class=""></path><path d="m264 224h16v40h-16z" fill="#ffffff" data-original="#000000" class=""></path><path d="m328 224h16v40h-16z" fill="#ffffff" data-original="#000000" class=""></path><path d="m360 224h16v40h-16z" fill="#ffffff" data-original="#000000" class=""></path></g></g></svg>