<svg xmlns="http://www.w3.org/2000/svg" version="1.1" xmlns:xlink="http://www.w3.org/1999/xlink" xmlns:svgjs="http://svgjs.com/svgjs" width="512" height="512" x="0" y="0" viewBox="0 0 64 64" style="enable-background:new 0 0 512 512" xml:space="preserve" class=""><g><g id="Layer_14" data-name="Layer 14"><path d="m58 15v47h-6v-37h-40v37h-7v-47l27-13z" fill="#e6e7e8" data-original="#e6e7e8" class=""></path><path d="m32 2 26 13v47h-6v-37h-20z" fill="#d1d3d4" data-original="#d1d3d4"></path><path d="m16 15h32v6h-32z" fill="#bcbec0" data-original="#bcbec0"></path><path d="m32 15h16v6h-16z" fill="#a7a9ac" data-original="#a7a9ac"></path><path d="m12 29h40v4h-40z" fill="#a7a9ac" data-original="#a7a9ac"></path><path d="m32 29h20v4h-20z" fill="#939598" data-original="#939598"></path><path d="m12 25h40v4h-40z" fill="#808285" data-original="#808285"></path><path d="m32 25h20v4h-20z" fill="#6d6e71" data-original="#6d6e71"></path><path d="m34 38h14v14h-14z" fill="#e5a961" data-original="#e5a961"></path><path d="m41 38h7v14h-7z" fill="#d6914c" data-original="#d6914c"></path><path d="m39 38h4v5h-4z" fill="#f4ddb4" data-original="#f4ddb4"></path><path d="m41 38h2v5h-2z" fill="#e0c292" data-original="#e0c292"></path><path d="m8 48h14v14h-14z" fill="#e5a961" data-original="#e5a961"></path><path d="m15 48h7v14h-7z" fill="#d6914c" data-original="#d6914c"></path><path d="m13 48h4v5h-4z" fill="#f4ddb4" data-original="#f4ddb4"></path><path d="m15 48h2v5h-2z" fill="#e0c292" data-original="#e0c292"></path><path d="m51 52v-8h7l3 8v7h-30v-7h3 14z" fill="#879fa3" data-original="#879fa3"></path><path d="m59.13 47h-5.13v4h6.63z" fill="#e6e7e8" data-original="#e6e7e8" class=""></path><path d="m54 53h2v1h-2z" fill="#657678" data-original="#657678"></path><path d="m33 54h18v1h-18z" fill="#657678" data-original="#657678"></path><circle cx="56" cy="59" fill="#414042" r="3" data-original="#414042" class=""></circle><circle cx="37" cy="59" fill="#414042" r="3" data-original="#414042" class=""></circle><circle cx="37" cy="59" fill="#e6e7e8" r="1.5" data-original="#e6e7e8" class=""></circle><circle cx="56" cy="59" fill="#e6e7e8" r="1.5" data-original="#e6e7e8" class=""></circle><g fill="#231f20"><path d="m13 49h-2v-25h42v18h-2v-16h-38z" fill="#ffffff" data-original="#231f20" class=""></path><path d="m53 34h-42v-10h42zm-40-2h38v-6h-38z" fill="#ffffff" data-original="#231f20" class=""></path><path d="m11 28h42v2h-42z" fill="#ffffff" data-original="#231f20" class=""></path><path d="m49 22h-34v-8h34zm-32-2h30v-4h-30z" fill="#ffffff" data-original="#231f20" class=""></path><path d="m1 61h62v2h-62z" fill="#ffffff" data-original="#231f20" class=""></path><path d="m23 63h-16v-16h16zm-14-2h12v-12h-12z" fill="#ffffff" data-original="#231f20" class=""></path><path d="m18 58h1v1h-1z" fill="#ffffff" data-original="#231f20" class=""></path><path d="m16 58h1v1h-1z" fill="#ffffff" data-original="#231f20" class=""></path><path d="m56 63a4 4 0 1 1 4-4 4 4 0 0 1 -4 4zm0-6a2 2 0 1 0 2 2 2 2 0 0 0 -2-2z" fill="#ffffff" data-original="#231f20" class=""></path><path d="m37 63a4 4 0 1 1 4-4 4 4 0 0 1 -4 4zm0-6a2 2 0 1 0 2 2 2 2 0 0 0 -2-2z" fill="#ffffff" data-original="#231f20" class=""></path><path d="m49 53h-16v-16h16zm-14-2h12v-12h-12z" fill="#ffffff" data-original="#231f20" class=""></path><path d="m44 48h1v1h-1z" fill="#ffffff" data-original="#231f20" class=""></path><path d="m42 48h1v1h-1z" fill="#ffffff" data-original="#231f20" class=""></path><path d="m60.63 52h-6.63a1 1 0 0 1 -1-1v-4a1 1 0 0 1 1-1h5.13a1 1 0 0 1 .937.648l1.5 4a1 1 0 0 1 -.937 1.352zm-5.63-2h4.187l-.75-2h-3.437z" fill="#ffffff" data-original="#231f20" class=""></path><path d="m62 60h-3v-2h1v-5.818l-2.693-7.182h-5.307v8h-20v5h2v2h-4v-9h20v-8h8.693l3.307 8.818z" fill="#ffffff" data-original="#231f20" class=""></path><path d="m40 58h13v2h-13z" fill="#ffffff" data-original="#231f20" class=""></path><circle cx="37" cy="59" r="1" fill="#ffffff" data-original="#231f20" class=""></circle><circle cx="56" cy="59" r="1" fill="#ffffff" data-original="#231f20" class=""></circle><path d="m57 42v-26.382l-25.008-12.504-25.992 12.514v46.372a1 1 0 0 1 -2 0v-47a1 1 0 0 1 .566-.9l27-13a1 1 0 0 1 .881.007l26 13a1 1 0 0 1 .553.893v27z" fill="#ffffff" data-original="#231f20" class=""></path></g></g></g></svg>